{
.appVersion = "1339";
classes = (
{
automatic = 1;

glyphs = (
{
color = 1;
glyphname = A;
lastChange = "2020-06-16 10:26:24 +0000";
layers = (
{
anchors = (
{
name = bottom;
position = "{260, 0}";
},
{
name = ogonek;
position = "{509, 0}";
},
{
name = top;
position = "{396, 697}";
}
);
layerId = "F91D9E91-C1BC-4259-B0D8-112C0CBA2B8E";
paths = (
{
closed = 1;
nodes = (
"23 0 LINE",
"395 691 LINE",
"497 0 LINE",
"509 0 LINE",
"404 697 LINE",
"385 697 LINE",
"11 0 LINE"
);
},
{
closed = 1;
nodes = (
"472 215 LINE",
"470 225 LINE",
"138 225 LINE",
"132 215 LINE"
);
}
);
width = 616;
},
{
anchors = (
{
name = bottom;
position = "{285, 0}";
},
{
name = ogonek;
position = "{631, 0}";
},
{
name = top;
position = "{421, 697}";
}
);
layerId = "957254E3-B7AD-4837-9092-D4428001DE8E";
paths = (
{
closed = 1;
nodes = (
"119 0 LINE",
"386 463 LINE",
"471 0 LINE",
"631 0 LINE",
"478 697 LINE",
"363 697 LINE",
"-63 0 LINE"
);
},
{
closed = 1;
nodes = (
"479 118 LINE",
"456 262 LINE",
"245 262 LINE",
"168 118 LINE"
);
}
);
width = 664;
}
);
leftKerningGroup = A;
note = A;
rightKerningGroup = A;
unicode = 0041;
},
{
color = 1;
glyphname = AE;
lastChange = "2020-06-16 10:26:24 +0000";
layers = (
{
anchors = (
{
name = bottom;
position = "{389, 0}";
},
{
name = top;
position = "{525, 697}";
}
);
layerId = "F91D9E91-C1BC-4259-B0D8-112C0CBA2B8E";
paths = (
{
closed = 1;
nodes = (
"23 0 LINE",
"122 185 LINE",
"383 185 LINE",
"347 0 LINE",
"765 0 LINE",
"767 10 LINE",
"360 10 LINE",
"425 346 LINE",
"777 346 LINE",
"779 357 LINE",
"427 357 LINE",
"492 687 LINE",
"899 687 LINE",
"901 697 LINE",
"385 697 LINE",
"11 0 LINE"
);
},
{
closed = 1;
nodes = (
"393 687 LINE",
"481 687 LINE",
"385 195 LINE",
"127 195 LINE"
);
}
);
width = 873;
},
{
anchors = (
{
name = bottom;
position = "{417, 0}";
},
{
name = top;
position = "{553, 697}";
}
);
layerId = "957254E3-B7AD-4837-9092-D4428001DE8E";
paths = (
{
closed = 1;
nodes = (
"108 0 LINE",
"190 143 LINE",
"376 143 LINE",
"348 0 LINE",
"838 0 LINE",
"866 142 LINE",
"534 142 LINE",
"561 282 LINE",
"854 282 LINE",
"880 414 LINE",
"587 414 LINE",
"615 559 LINE",
"947 559 LINE",
"974 697 LINE",
"362 697 LINE",
"-63 0 LINE"
);
},
{
closed = 1;
nodes = (
"429 559 LINE",
"457 559 LINE",
"405 293 LINE",
"273 293 LINE"
);
}
);
width = 929;
}
);
leftKerningGroup = A;
note = AE;
rightKerningGroup = E;
unicode = 00C6;
},
{
color = 1;
glyphname = B;
lastChange = "2020-06-16 10:26:24 +0000";
layers = (
{
anchors = (
{
name = bottom;
position = "{263, 0}";
},
{
name = top;
position = "{399, 697}";
}
);
layerId = "F91D9E91-C1BC-4259-B0D8-112C0CBA2B8E";
paths = (
{
closed = 1;
nodes = (
"272 0 LINE SMOOTH",
"415 0 OFFCURVE",
"501 62 OFFCURVE",
"525 183 CURVE SMOOTH",
"545 287 OFFCURVE",
"504 353 OFFCURVE",
"416 365 CURVE",
"491 387 OFFCURVE",
"543 446 OFFCURVE",
"558 525 CURVE SMOOTH",
"579 634 OFFCURVE",
"519 697 OFFCURVE",
"397 697 CURVE SMOOTH",
"217 697 LINE",
"81 0 LINE"
);
},
{
closed = 1;
nodes = (
"160 357 LINE",
"383 357 LINE SMOOTH",
"488 357 OFFCURVE",
"536 293 OFFCURVE",
"515 185 CURVE SMOOTH",
"492 68 OFFCURVE",
"412 10 OFFCURVE",
"274 10 CURVE SMOOTH",
"93 10 LINE"
);
},
{
closed = 1;
nodes = (
"225 687 LINE",
"396 687 LINE SMOOTH",
"513 687 OFFCURVE",
"568 628 OFFCURVE",
"548 527 CURVE SMOOTH",
"530 430 OFFCURVE",
"456 367 OFFCURVE",
"363 367 CURVE SMOOTH",
"162 367 LINE"
);
}
);
width = 621;
},
{
anchors = (
{
name = bottom;
position = "{261, 0}";
},
{
name = top;
position = "{397, 697}";
}
);
layerId = "957254E3-B7AD-4837-9092-D4428001DE8E";
paths = (
{
closed = 1;
nodes = (
"319 0 LINE SMOOTH",
"461 0 OFFCURVE",
"565 80 OFFCURVE",
"590 209 CURVE SMOOTH",
"605 290 OFFCURVE",
"584 347 OFFCURVE",
"517 379 CURVE",
"566 409 OFFCURVE",
"600 459 OFFCURVE",
"612 520 CURVE SMOOTH",
"634 630 OFFCURVE",
"561 697 OFFCURVE",
"418 697 CURVE SMOOTH",
"158 697 LINE",
"22 0 LINE"
);
},
{
closed = 1;
nodes = (
"235 289 LINE",
"362 289 LINE SMOOTH",
"386 289 OFFCURVE",
"448 289 OFFCURVE",
"434 216 CURVE SMOOTH",
"426 172 OFFCURVE",
"397 144 OFFCURVE",
"334 144 CURVE SMOOTH",
"207 144 LINE"
);
},
{
closed = 1;
nodes = (
"287 553 LINE",
"390 553 LINE SMOOTH",
"434 553 OFFCURVE",
"458 537 OFFCURVE",
"451 498 CURVE SMOOTH",
"443 455 OFFCURVE",
"411 436 OFFCURVE",
"367 436 CURVE SMOOTH",
"264 436 LINE"
);
}
);
width = 618;
}
);
leftKerningGroup = B;
note = B;
rightKerningGroup = B;
unicode = 0042;
},
{
color = 1;
glyphname = C;
lastChange = "2020-06-16 10:26:24 +0000";
layers = (
{
anchors = (
{
name = bottom;
position = "{345, 0}";
},
{
name = top;
position = "{481, 697}";
}
);
layerId = "F91D9E91-C1BC-4259-B0D8-112C0CBA2B8E";
paths = (
{
closed = 1;
nodes = (
"461 -5 OFFCURVE",
"564 54 OFFCURVE",
"642 174 CURVE",
"633 178 LINE",
"560 63 OFFCURVE",
"460 5 OFFCURVE",
"335 5 CURVE SMOOTH",
"187 5 OFFCURVE",
"107 90 OFFCURVE",
"107 241 CURVE SMOOTH",
"107 485 OFFCURVE",
"241 692 OFFCURVE",
"479 692 CURVE SMOOTH",
"607 692 OFFCURVE",
"677 639 OFFCURVE",
"699 522 CURVE",
"709 525 LINE",
"686 645 OFFCURVE",
"612 702 OFFCURVE",
"480 702 CURVE SMOOTH",
"237 702 OFFCURVE",
"97 492 OFFCURVE",
"97 240 CURVE SMOOTH",
"97 82 OFFCURVE",
"180 -5 OFFCURVE",
"335 -5 CURVE SMOOTH"
);
}
);
width = 725;
},
{
anchors = (
{
name = bottom;
position = "{329, 0}";
},
{
name = top;
position = "{465, 697}";
}
);
layerId = "957254E3-B7AD-4837-9092-D4428001DE8E";
paths = (
{
closed = 1;
nodes = (
"478 -18 OFFCURVE",
"610 59 OFFCURVE",
"686 198 CURVE",
"549 254 LINE",
"510 173 OFFCURVE",
"439 132 OFFCURVE",
"352 132 CURVE SMOOTH",
"251 132 OFFCURVE",
"193 187 OFFCURVE",
"193 287 CURVE SMOOTH",
"193 436 OFFCURVE",
"282 567 OFFCURVE",
"433 567 CURVE SMOOTH",
"518 567 OFFCURVE",
"576 527 OFFCURVE",
"587 448 CURVE",
"743 505 LINE",
"718 637 OFFCURVE",
"618 717 OFFCURVE",
"462 717 CURVE SMOOTH",
"214 717 OFFCURVE",
"34 527 OFFCURVE",
"34 278 CURVE SMOOTH",
"34 109 OFFCURVE",
"152 -18 OFFCURVE",
"333 -18 CURVE SMOOTH"
);
}
);
width = 699;
}
);
leftKerningGroup = C;
note = C;
rightKerningGroup = C;
unicode = 0043;
},
{
color = 1;
glyphname = D;
lastChange = "2020-06-16 10:26:24 +0000";
layers = (
{
anchors = (
{
name = bottom;
position = "{321, 0}";
},
{
name = center;
position = "{185, 349}";
},
{
name = top;
position = "{457, 697}";
}
);
layerId = "F91D9E91-C1BC-4259-B0D8-112C0CBA2B8E";
paths = (
{
closed = 1;
nodes = (
"254 0 LINE SMOOTH",
"480 0 OFFCURVE",
"628 122 OFFCURVE",
"671 342 CURVE SMOOTH",
"714 568 OFFCURVE",
"612 697 OFFCURVE",
"390 697 CURVE SMOOTH",
"217 697 LINE",
"81 0 LINE"
);
},
{
closed = 1;
nodes = (
"225 687 LINE",
"389 687 LINE SMOOTH",
"605 687 OFFCURVE",
"703 563 OFFCURVE",
"660 344 CURVE SMOOTH",
"618 127 OFFCURVE",
"476 10 OFFCURVE",
"256 10 CURVE SMOOTH",
"93 10 LINE"
);
}
);
width = 737;
},
{
anchors = (
{
name = bottom;
position = "{285, 0}";
},
{
name = center;
position = "{186, 349}";
},
{
name = top;
position = "{421, 697}";
}
);
layerId = "957254E3-B7AD-4837-9092-D4428001DE8E";
paths = (
{
closed = 1;
nodes = (
"231 0 LINE SMOOTH",
"469 0 OFFCURVE",
"623 121 OFFCURVE",
"666 343 CURVE SMOOTH",
"710 569 OFFCURVE",
"601 697 OFFCURVE",
"368 697 CURVE SMOOTH",
"158 697 LINE",
"22 0 LINE"
);
},
{
closed = 1;
nodes = (
"287 553 LINE",
"337 553 LINE SMOOTH",
"468 553 OFFCURVE",
"540 511 OFFCURVE",
"509 349 CURVE SMOOTH",
"476 181 OFFCURVE",
"385 144 OFFCURVE",
"243 144 CURVE SMOOTH",
"207 144 LINE"
);
}
);
width = 667;
}
);
leftKerningGroup = B;
note = D;
rightKerningGroup = D;
unicode = 0044;
},
{
color = 1;
glyphname = E;
lastChange = "2020-06-16 10:26:24 +0000";
layers = (
{
anchors = (
{
name = bottom;
position = "{305, 0}";
},
{
name = ogonek;
position = "{529, 0}";
},
{
name = top;
position = "{441, 697}";
},
{
name = topleft;
position = "{108, 697}";
}
);
layerId = "F91D9E91-C1BC-4259-B0D8-112C0CBA2B8E";
paths = (
{
closed = 1;
nodes = (
"529 0 LINE",
"531 10 LINE",
"93 10 LINE",
"158 346 LINE",
"541 346 LINE",
"543 357 LINE",
"160 357 LINE",
"225 687 LINE",
"663 687 LINE",
"665 697 LINE",
"217 697 LINE",
"81 0 LINE"
);
}
);
width = 637;
},
{
anchors = (
{
name = bottom;
position = "{256, 0}";
},
{
name = ogonek;
position = "{490, 0}";
},
{
name = top;
position = "{392, 697}";
},
{
name = topleft;
position = "{101, 697}";
}
);
layerId = "957254E3-B7AD-4837-9092-D4428001DE8E";
paths = (
{
closed = 1;
nodes = (
"490 0 LINE",
"518 144 LINE",
"207 144 LINE",
"235 288 LINE",
"531 288 LINE",
"559 433 LINE",
"263 433 LINE",
"287 553 LINE",
"598 553 LINE",
"626 697 LINE",
"158 697 LINE",
"22 0 LINE"
);
}
);
width = 590;
}
);
leftKerningGroup = B;
note = E;
rightKerningGroup = E;
unicode = 0045;
},
{
color = 1;
glyphname = F;
lastChange = "2020-06-16 10:26:24 +0000";
layers = (
{
anchors = (
{
name = bottom;
position = "{267, 0}";
},
{
name = top;
position = "{403, 697}";
}
);
layerId = "F91D9E91-C1BC-4259-B0D8-112C0CBA2B8E";
paths = (
{
closed = 1;
nodes = (
"91 0 LINE",
"158 346 LINE",
"541 346 LINE",
"543 357 LINE",
"160 357 LINE",
"225 687 LINE",
"663 687 LINE",
"665 697 LINE",
"217 697 LINE",
"81 0 LINE"
);
}
);
width = 629;
},
{
anchors = (
{
name = bottom;
position = "{245, 0}";
},
{
name = top;
position = "{381, 697}";
}
);
layerId = "957254E3-B7AD-4837-9092-D4428001DE8E";
paths = (
{
closed = 1;
nodes = (
"179 0 LINE",
"235 288 LINE",
"544 288 LINE",
"572 433 LINE",
"263 433 LINE",
"287 553 LINE",
"637 553 LINE",
"665 697 LINE",
"158 697 LINE",
"22 0 LINE"
);
}
);
width = 590;
}
);
leftKerningGroup = B;
note = F;
rightKerningGroup = F;
unicode = 0046;
},
{
color = 1;
glyphname = G;
lastChange = "2020-06-16 10:26:24 +0000";
layers = (
{
anchors = (
{
name = bottom;
position = "{332, 0}";
},
{
name = top;
position = "{468, 697}";
}
);
layerId = "F91D9E91-C1BC-4259-B0D8-112C0CBA2B8E";
paths = (
{
closed = 1;
nodes = (
"459 -5 OFFCURVE",
"586 56 OFFCURVE",
"637 190 CURVE",
"633 191 LINE",
"596 0 LINE",
"607 0 LINE",
"673 341 LINE",
"479 341 LINE",
"477 331 LINE",
"660 331 LINE",
"645 253 LINE SMOOTH",
"610 73 OFFCURVE",
"464 5 OFFCURVE",
"334 5 CURVE SMOOTH",
"173 5 OFFCURVE",
"107 104 OFFCURVE",
"107 243 CURVE SMOOTH",
"107 486 OFFCURVE",
"243 692 OFFCURVE",
"481 692 CURVE SMOOTH",
"610 692 OFFCURVE",
"676 637 OFFCURVE",
"697 521 CURVE",
"708 525 LINE",
"685 644 OFFCURVE",
"616 702 OFFCURVE",
"482 702 CURVE SMOOTH",
"239 702 OFFCURVE",
"97 494 OFFCURVE",
"97 242 CURVE SMOOTH",
"97 85 OFFCURVE",
"178.994 -5 OFFCURVE",
"334 -5 CURVE SMOOTH"
);
}
);
width = 758;
},
{
anchors = (
{
name = bottom;
position = "{323, 0}";
},
{
name = top;
position = "{461, 697}";
}
);
layerId = "957254E3-B7AD-4837-9092-D4428001DE8E";
paths = (
{
closed = 1;
nodes = (
"446 -18 OFFCURVE",
"557 44 OFFCURVE",
"600 191 CURVE",
"528 136 LINE",
"537 0 LINE",
"645 0 LINE",
"720 387 LINE",
"413 387 LINE",
"386 247 LINE",
"535 247 LINE",
"533 237 LINE SMOOTH",
"522 182 OFFCURVE",
"461 132 OFFCURVE",
"361 132 CURVE SMOOTH",
"261 132 OFFCURVE",
"195 184 OFFCURVE",
"195 293 CURVE SMOOTH",
"195 446 OFFCURVE",
"293 567 OFFCURVE",
"429 567 CURVE SMOOTH",
"512 567 OFFCURVE",
"574 528 OFFCURVE",
"586 448 CURVE",
"742 505 LINE",
"713 647 OFFCURVE",
"604 717 OFFCURVE",
"455 717 CURVE SMOOTH",
"194 717 OFFCURVE",
"35 501 OFFCURVE",
"35 287 CURVE SMOOTH",
"35 99 OFFCURVE",
"157 -18 OFFCURVE",
"324 -18 CURVE SMOOTH"
);
}
);
width = 740;
}
);
leftKerningGroup = C;
note = G;
rightKerningGroup = G;
unicode = 0047;
},
{
color = 1;
glyphname = H;
lastChange = "2020-06-16 10:26:24 +0000";
layers = (
{
anchors = (
{
name = bottom;
position = "{305, 0}";
},
{
name = center;
position = "{410, 538}";
},
{
name = top;
position = "{441, 697}";
},
{
name = topleft;
position = "{108, 697}";
}
);
layerId = "F91D9E91-C1BC-4259-B0D8-112C0CBA2B8E";
paths = (
{
closed = 1;
nodes = (
"91 0 LINE",
"159 347 LINE",
"586 347 LINE",
"518 0 LINE",
"528 0 LINE",
"664 697 LINE",
"654 697 LINE",
"588 358 LINE",
"161 358 LINE",
"227 697 LINE",
"217 697 LINE",
"81 0 LINE"
);
}
);
width = 705;
},
{
anchors = (
{
name = bottom;
position = "{316, 0}";
},
{
name = center;
position = "{423, 557}";
},
{
name = top;
position = "{451, 697}";
},
{
name = topleft;
position = "{101, 697}";
}
);
layerId = "957254E3-B7AD-4837-9092-D4428001DE8E";
paths = (
{
closed = 1;
nodes = (
"179 0 LINE",
"235 288 LINE",
"506 288 LINE",
"450 0 LINE",
"607 0 LINE",
"743 697 LINE",
"586 697 LINE",
"534 432 LINE",
"263 432 LINE",
"315 697 LINE",
"158 697 LINE",
"22 0 LINE"
);
}
);
width = 725;
}
);
leftKerningGroup = B;
note = H;
rightKerningGroup = H;
unicode = 0048;
},
{
color = 1;
glyphname = I;
lastChange = "2020-06-16 10:26:24 +0000";
layers = (
{
anchors = (
{
name = bottom;
position = "{86, 0}";
},
{
name = ogonek;
position = "{91, 0}";
},
{
name = top;
position = "{222, 697}";
},
{
name = topleft;
position = "{108, 697}";
}
);
layerId = "F91D9E91-C1BC-4259-B0D8-112C0CBA2B8E";
paths = (
{
closed = 1;
nodes = (
"91 0 LINE",
"227 697 LINE",
"217 697 LINE",
"81 0 LINE"
);
}
);
width = 268;
},
{
anchors = (
{
name = bottom;
position = "{101, 0}";
},
{
name = ogonek;
position = "{179, 0}";
},
{
name = top;
position = "{237, 697}";
},
{
name = topleft;
position = "{101, 697}";
}
);
layerId = "957254E3-B7AD-4837-9092-D4428001DE8E";
paths = (
{
closed = 1;
nodes = (
"179 0 LINE",
"315 697 LINE",
"158 697 LINE",
"22 0 LINE"
);
}
);
width = 297;
}
);
leftKerningGroup = B;
note = I;
rightKerningGroup = H;
unicode = 0049;
},
{
color = 1;
glyphname = J;
lastChange = "2020-06-16 10:26:24 +0000";
layers = (
{
anchors = (
{
name = bottom;
position = "{247, 0}";
},
{
name = top;
position = "{403, 697}";
}
);
layerId = "F91D9E91-C1BC-4259-B0D8-112C0CBA2B8E";
paths = (
{
closed = 1;
nodes = (
"353 -5 OFFCURVE",
"441 85 OFFCURVE",
"474 257 CURVE SMOOTH",
"560 697 LINE",
"246 697 LINE",
"244 687 LINE",
"548 687 LINE",
"464 257 LINE SMOOTH",
"432 91 OFFCURVE",
"349 5 OFFCURVE",
"221 5 CURVE SMOOTH",
"107 5 OFFCURVE",
"45 75 OFFCURVE",
"59 190 CURVE",
"49 190 LINE",
"35 69 OFFCURVE",
"99 -5 OFFCURVE",
"221 -5 CURVE SMOOTH"
);
}
);
width = 588;
},
{
anchors = (
{
name = bottom;
position = "{225, 0}";
},
{
name = top;
position = "{371, 697}";
}
);
layerId = "957254E3-B7AD-4837-9092-D4428001DE8E";
paths = (
{
closed = 1;
nodes = (
"340 -18 OFFCURVE",
"455 81 OFFCURVE",
"485 238 CURVE SMOOTH",
"575 697 LINE",
"166 697 LINE",
"138 553 LINE",
"389 553 LINE",
"329 247 LINE SMOOTH",
"315 174 OFFCURVE",
"288 127 OFFCURVE",
"220 127 CURVE SMOOTH",
"162 127 OFFCURVE",
"142 158 OFFCURVE",
"153 242 CURVE",
"-5 225 LINE",
"-25 72 OFFCURVE",
"52 -18 OFFCURVE",
"192 -18 CURVE SMOOTH"
);
}
);
width = 543;
}
);
leftKerningGroup = J;
note = J;
rightKerningGroup = J;
unicode = 004A;
},
{
color = 1;
glyphname = K;
lastChange = "2020-06-16 10:26:24 +0000";
layers = (
{
anchors = (
{
name = bottom;
position = "{298, 0}";
},
{
name = top;
position = "{434, 697}";
}
);
layerId = "F91D9E91-C1BC-4259-B0D8-112C0CBA2B8E";
paths = (
{
closed = 1;
nodes = (
"91 0 LINE",
"132 209 LINE",
"699 697 LINE",
"684 697 LINE",
"134 223 LINE",
"227 697 LINE",
"217 697 LINE",
"81 0 LINE"
);
},
{
closed = 1;
nodes = (
"586 0 LINE",
"413 457 LINE",
"405 450 LINE",
"575 0 LINE"
);
}
);
width = 692;
},
{
anchors = (
{
name = bottom;
position = "{299, 0}";
},
{
name = top;
position = "{435, 697}";
}
);
layerId = "957254E3-B7AD-4837-9092-D4428001DE8E";
paths = (
{
closed = 1;
nodes = (
"179 0 LINE",
"220 213 LINE",
"794 697 LINE",
"588 697 LINE",
"259 410 LINE",
"315 697 LINE",
"158 697 LINE",
"22 0 LINE"
);
},
{
closed = 1;
nodes = (
"660 0 LINE",
"467 444 LINE",
"354 335 LINE",
"491 0 LINE"
);
}
);
width = 698;
}
);
leftKerningGroup = B;
note = K;
rightKerningGroup = K;
unicode = 004B;
},
{
color = 1;
glyphname = L;
lastChange = "2020-06-16 10:26:24 +0000";
layers = (
{
anchors = (
{
name = bottom;
position = "{256, 0}";
},
{
name = center;
position = "{225, 379}";
},
{
name = top;
position = "{222, 697}";
},
{
name = topright;
position = "{463, 493}";
}
);
layerId = "F91D9E91-C1BC-4259-B0D8-112C0CBA2B8E";
paths = (
{
closed = 1;
nodes = (
"431 0 LINE",
"433 10 LINE",
"93 10 LINE",
"227 697 LINE",
"217 697 LINE",
"81 0 LINE"
);
}
);
width = 529;
},
{
anchors = (
{
name = bottom;
position = "{244, 0}";
},
{
name = center;
position = "{182, 323}";
},
{
name = top;
position = "{237, 697}";
},
{
name = topright;
position = "{491, 493}";
}
);
layerId = "957254E3-B7AD-4837-9092-D4428001DE8E";
paths = (
{
closed = 1;
nodes = (
"465 0 LINE",
"493 144 LINE",
"207 144 LINE",
"315 697 LINE",
"158 697 LINE",
"22 0 LINE"
);
}
);
width = 508;
}
);
leftKerningGroup = B;
note = L;
rightKerningGroup = L;
unicode = 004C;
},
{
color = 1;
glyphname = M;
lastChange = "2020-06-16 10:26:24 +0000";
layers = (
{
anchors = (
{
name = bottom;
position = "{383, 0}";
},
{
name = top;
position = "{519, 697}";
}
);
layerId = "F91D9E91-C1BC-4259-B0D8-112C0CBA2B8E";
paths = (
{
closed = 1;
nodes = (
"91 0 LINE",
"225 687 LINE",
"227 687 LINE",
"388 54 LINE",
"399 54 LINE",
"806 687 LINE",
"808 687 LINE",
"674 0 LINE",
"684 0 LINE",
"820 697 LINE",
"801 697 LINE",
"393 61 LINE",
"397 61 LINE",
"234 697 LINE",
"217 697 LINE",
"81 0 LINE"
);
}
);
width = 861;
},
{
anchors = (
{
name = bottom;
position = "{397, 0}";
},
{
name = top;
position = "{533, 697}";
}
);
layerId = "957254E3-B7AD-4837-9092-D4428001DE8E";
paths = (
{
closed = 1;
nodes = (
"179 0 LINE",
"284 540 LINE",
"259 540 LINE",
"333 63 LINE",
"484 63 LINE",
"743 540 LINE",
"719 540 LINE",
"614 0 LINE",
"771 0 LINE",
"907 697 LINE",
"683 697 LINE",
"398 166 LINE",
"455 166 LINE",
"382 697 LINE",
"158 697 LINE",
"22 0 LINE"
);
}
);
width = 889;
}
);
leftKerningGroup = B;
note = M;
rightKerningGroup = H;
unicode = 004D;
},
{
color = 1;
glyphname = N;
lastChange = "2020-06-16 10:26:24 +0000";
layers = (
{
anchors = (
{
name = bottom;
position = "{296, 0}";
},
{
name = top;
position = "{432, 697}";
}
);
layerId = "F91D9E91-C1BC-4259-B0D8-112C0CBA2B8E";
paths = (
{
closed = 1;
nodes = (
"91 0 LINE",
"225 687 LINE",
"227 687 LINE",
"492 0 LINE",
"511 0 LINE",
"647 697 LINE",
"637 697 LINE",
"503 10 LINE",
"500 10 LINE",
"234 697 LINE",
"217 697 LINE",
"81 0 LINE"
);
}
);
width = 688;
},
{
anchors = (
{
name = bottom;
position = "{313, 0}";
},
{
name = top;
position = "{449, 697}";
}
);
layerId = "957254E3-B7AD-4837-9092-D4428001DE8E";
paths = (
{
closed = 1;
nodes = (
"179 0 LINE",
"275 492 LINE",
"242 492 LINE",
"441 0 LINE",
"602 0 LINE",
"738 697 LINE",
"581 697 LINE",
"485 206 LINE",
"520 206 LINE",
"318 697 LINE",
"158 697 LINE",
"22 0 LINE"
);
}
);
width = 720;
}
);
leftKerningGroup = B;
note = N;
rightKerningGroup = H;
unicode = 004E;
},
{
color = 1;
glyphname = Eng;
lastChange = "2020-06-16 10:26:24 +0000";
layers = (
{
layerId = "F91D9E91-C1BC-4259-B0D8-112C0CBA2B8E";
paths = (
{
closed = 1;
nodes = (
"443 -158 OFFCURVE",
"490 -109 OFFCURVE",
"506 -28 CURVE SMOOTH",
"647 697 LINE",
"637 697 LINE",
"503 10 LINE",
"500 10 LINE",
"234 697 LINE",
"217 697 LINE",
"81 0 LINE",
"91 0 LINE",
"225 687 LINE",
"227 687 LINE",
"492 0 LINE SMOOTH",
"494 -6 OFFCURVE",
"498 -14 OFFCURVE",
"494 -34 CURVE SMOOTH",
"483 -93 OFFCURVE",
"445 -147 OFFCURVE",
"364 -147 CURVE SMOOTH",
"347 -147 OFFCURVE",
"318 -141 OFFCURVE",
"298 -132 CURVE",
"293 -142 LINE",
"313 -151 OFFCURVE",
"344 -158 OFFCURVE",
"363 -158 CURVE SMOOTH"
);
}
);
width = 688;
},
{
layerId = "957254E3-B7AD-4837-9092-D4428001DE8E";
paths = (
{
closed = 1;
nodes = (
"519 -189 OFFCURVE",
"585 -89 OFFCURVE",
"604 8 CURVE SMOOTH",
"738 697 LINE",
"581 697 LINE",
"489 225 LINE",
"510 225 LINE",
"318 697 LINE",
"158 697 LINE",
"22 0 LINE",
"179 0 LINE",
"271 475 LINE",
"246 475 LINE",
"441 0 LINE SMOOTH",
"448 -16 OFFCURVE",
"446 -31 OFFCURVE",
"445 -39 CURVE SMOOTH",
"439 -65 OFFCURVE",
"408 -87 OFFCURVE",
"356 -87 CURVE SMOOTH",
"347 -87 OFFCURVE",
"338 -87 OFFCURVE",
"328 -87 CURVE",
"311 -186 LINE",
"337 -189 OFFCURVE",
"357 -189 OFFCURVE",
"379 -189 CURVE SMOOTH"
);
}
);
width = 721;
}
);
leftKerningGroup = B;
note = Eng;
rightKerningGroup = H;
unicode = 014A;
},
{
glyphname = Nhookleft;
lastChange = "2020-06-16 10:26:24 +0000";
layers = (
{
anchors = (
{
name = bottom;
position = "{301, 0}";
},
{
name = top;
position = "{423, 697}";
}
);
layerId = "F91D9E91-C1BC-4259-B0D8-112C0CBA2B8E";
paths = (
{
closed = 1;
nodes = (
"96 0 LINE",
"217 687 LINE",
"219 687 LINE",
"497 0 LINE",
"516 0 LINE",
"638 697 LINE",
"628 697 LINE",
"507 10 LINE",
"504 10 LINE",
"226 697 LINE",
"208 697 LINE",
"86 0 LINE"
);
},
{
closed = 1;
nodes = (
"30 -158 OFFCURVE",
"76 -109 OFFCURVE",
"91 -28 CURVE SMOOTH",
"96 0 LINE",
"86 0 LINE",
"85 -6 OFFCURVE",
"83 -14 OFFCURVE",
"79 -34 CURVE SMOOTH",
"69 -93 OFFCURVE",
"32 -147 OFFCURVE",
"-49 -147 CURVE",
"-50 -158 LINE"
);
}
);
width = 693;
},
{
anchors = (
{
name = bottom;
position = "{318, 0}";
},
{
name = top;
position = "{440, 697}";
}
);
layerId = "957254E3-B7AD-4837-9092-D4428001DE8E";
paths = (
{
closed = 1;
nodes = (
"185 0 LINE",
"268 475 LINE",
"232 475 LINE",
"447 0 LINE",
"608 0 LINE",
"730 697 LINE",
"573 697 LINE",
"490 225 LINE",
"526 225 LINE",
"310 697 LINE",
"150 697 LINE",
"28 0 LINE"
);
},
{
closed = 1;
nodes = (
"91 -189 OFFCURVE",
"166 -107 OFFCURVE",
"180 -26 CURVE SMOOTH",
"185 0 LINE",
"28 0 LINE",
"25 -16 OFFCURVE",
"23 -23 OFFCURVE",
"22 -31 CURVE SMOOTH",
"18 -54 OFFCURVE",
"-4 -87 OFFCURVE",
"-56 -87 CURVE",
"-74 -189 LINE"
);
}
);
width = 726;
}
);
leftKerningGroup = B;
rightKerningGroup = H;
rightMetricsKey = N;
unicode = 019D;
},
{
color = 1;
glyphname = O;
lastChange = "2020-06-16 10:26:24 +0000";
layers = (
{
anchors = (
{
name = bottom;
position = "{341, 0}";
},
{
name = center;
position = "{409, 349}";
},
{
name = ogonek;
position = "{399, 0}";
},
{
name = top;
position = "{477, 697}";
},
{
name = topleft;
position = "{108, 697}";
},
{
name = topright;
position = "{766, 493}";
}
);
layerId = "F91D9E91-C1BC-4259-B0D8-112C0CBA2B8E";
paths = (
{
closed = 1;
nodes = (
"524 -5 OFFCURVE",
"670 134 OFFCURVE",
"712 347 CURVE SMOOTH",
"753 562 OFFCURVE",
"660 702 OFFCURVE",
"476 702 CURVE SMOOTH",
"293 702 OFFCURVE",
"148 563 OFFCURVE",
"106 349 CURVE SMOOTH",
"64 134 OFFCURVE",
"156 -5 OFFCURVE",
"340 -5 CURVE SMOOTH"
);
},
{
closed = 1;
nodes = (
"162 5 OFFCURVE",
"75 138 OFFCURVE",
"116 347 CURVE SMOOTH",
"157 559 OFFCURVE",
"296 692 OFFCURVE",
"475 692 CURVE SMOOTH",
"655 692 OFFCURVE",
"743 559 OFFCURVE",
"702 349 CURVE SMOOTH",
"661 138 OFFCURVE",
"521 5 OFFCURVE",
"340 5 CURVE SMOOTH"
);
}
);
width = 777;
},
{
anchors = (
{
name = bottom;
position = "{315, 0}";
},
{
name = center;
position = "{383, 349}";
},
{
name = ogonek;
position = "{402, 0}";
},
{
name = top;
position = "{450, 697}";
},
{
name = topleft;
position = "{100, 697}";
},
{
name = topright;
position = "{721, 493}";
}
);
layerId = "957254E3-B7AD-4837-9092-D4428001DE8E";
paths = (
{
closed = 1;
nodes = (
"513 -18 OFFCURVE",
"681 128 OFFCURVE",
"724 348 CURVE SMOOTH",
"767 569 OFFCURVE",
"657 715 OFFCURVE",
"453 715 CURVE SMOOTH",
"251 715 OFFCURVE",
"83 568 OFFCURVE",
"41 348 CURVE SMOOTH",
"-2 129 OFFCURVE",
"109 -18 OFFCURVE",
"311 -18 CURVE SMOOTH"
);
},
{
closed = 1;
nodes = (
"228 132 OFFCURVE",
"171 213 OFFCURVE",
"198 348 CURVE SMOOTH",
"224 484 OFFCURVE",
"312 565 OFFCURVE",
"424 565 CURVE SMOOTH",
"537 565 OFFCURVE",
"592 482 OFFCURVE",
"566 348 CURVE SMOOTH",
"540 215 OFFCURVE",
"453 132 OFFCURVE",
"340 132 CURVE SMOOTH"
);
}
);
width = 725;
}
);
leftKerningGroup = C;
note = O;
rightKerningGroup = D;
unicode = 004F;
},
{
color = 1;
glyphname = P;
lastChange = "2020-06-16 10:26:24 +0000";
layers = (
{
anchors = (
{
name = bottom;
position = "{245, 0}";
},
{
name = top;
position = "{381, 697}";
}
);
layerId = "F91D9E91-C1BC-4259-B0D8-112C0CBA2B8E";
paths = (
{
closed = 1;
nodes = (
"91 0 LINE",
"153 321 LINE",
"309 321 LINE SMOOTH",
"449 321 OFFCURVE",
"544 390 OFFCURVE",
"567 507 CURVE SMOOTH",
"590 627 OFFCURVE",
"520 697 OFFCURVE",
"381 697 CURVE SMOOTH",
"217 697 LINE",
"81 0 LINE"
);
},
{
closed = 1;
nodes = (
"225 687 LINE",
"380 687 LINE SMOOTH",
"514 687 OFFCURVE",
"579 621 OFFCURVE",
"557 509 CURVE SMOOTH",
"535 396 OFFCURVE",
"444 331 OFFCURVE",
"310 331 CURVE SMOOTH",
"155 331 LINE"
);
}
);
width = 585;
},
{
anchors = (
{
name = bottom;
position = "{231, 0}";
},
{
name = top;
position = "{367, 697}";
}
);
layerId = "957254E3-B7AD-4837-9092-D4428001DE8E";
paths = (
{
closed = 1;
nodes = (
"178 0 LINE",
"233 280 LINE",
"322 280 LINE SMOOTH",
"481 280 OFFCURVE",
"578 353 OFFCURVE",
"605 492 CURVE SMOOTH",
"632 630 OFFCURVE",
"564 697 OFFCURVE",
"403 697 CURVE SMOOTH",
"158 697 LINE",
"22 0 LINE"
);
},
{
closed = 1;
nodes = (
"286 553 LINE",
"359 553 LINE SMOOTH",
"428 553 OFFCURVE",
"458 543 OFFCURVE",
"447 490 CURVE SMOOTH",
"436 434 OFFCURVE",
"398 424 OFFCURVE",
"334 424 CURVE SMOOTH",
"261 424 LINE"
);
}
);
width = 562;
}
);
leftKerningGroup = B;
note = P;
rightKerningGroup = P;
unicode = 0050;
},
{
color = 1;
glyphname = Thorn;
lastChange = "2020-06-16 10:26:24 +0000";
layers = (
{
anchors = (
{
name = bottom;
position = "{245, 0}";
},
{
name = top;
position = "{381, 697}";
}
);
layerId = "F91D9E91-C1BC-4259-B0D8-112C0CBA2B8E";
paths = (
{
closed = 1;
nodes = (
"91 0 LINE",
"133 216 LINE",
"288 216 LINE SMOOTH",
"428 216 OFFCURVE",
"523 285 OFFCURVE",
"546 402 CURVE SMOOTH",
"569 522 OFFCURVE",
"500 592 OFFCURVE",
"361 592 CURVE SMOOTH",
"206 592 LINE",
"227 697 LINE",
"217 697 LINE",
"81 0 LINE"
);
},
{
closed = 1;
nodes = (
"204 582 LINE",
"360 582 LINE SMOOTH",
"494 582 OFFCURVE",
"558 516 OFFCURVE",
"537 404 CURVE SMOOTH",
"515 291 OFFCURVE",
"424 226 OFFCURVE",
"290 226 CURVE SMOOTH",
"135 226 LINE"
);
}
);
width = 585;
},
{
anchors = (
{
name = bottom;
position = "{224, 0}";
},
{
name = top;
position = "{360, 697}";
}
);
layerId = "957254E3-B7AD-4837-9092-D4428001DE8E";
paths = (
{
closed = 1;
nodes = (
"165 0 LINE",
"202 191 LINE",
"285 191 LINE SMOOTH",
"441 191 OFFCURVE",
"548 270 OFFCURVE",
"574 404 CURVE SMOOTH",
"598 530 OFFCURVE",
"533 603 OFFCURVE",
"400 603 CURVE SMOOTH",
"282 603 LINE",
"301 697 LINE",
"158 697 LINE",
"22 0 LINE"
);
},
{
closed = 1;
nodes = (
"259 481 LINE",
"342 481 LINE SMOOTH",
"406 481 OFFCURVE",
"442 460 OFFCURVE",
"430 399 CURVE SMOOTH",
"418 340 OFFCURVE",
"374 321 OFFCURVE",
"310 321 CURVE SMOOTH",
"227 321 LINE"
);
}
);
width = 546;
}
);
leftKerningGroup = B;
note = Thorn;
rightKerningGroup = Thorn;
unicode = 00DE;
},
{
color = 1;
glyphname = Q;
lastChange = "2020-06-16 10:26:24 +0000";
layers = (
{
anchors = (
{
name = bottom;
position = "{346, 0}";
},
{
name = top;
position = "{482, 697}";
}
);
layerId = "F91D9E91-C1BC-4259-B0D8-112C0CBA2B8E";
paths = (
{
closed = 1;
nodes = (
"524 -5 OFFCURVE",
"670 134 OFFCURVE",
"712 347 CURVE SMOOTH",
"753 562 OFFCURVE",
"660 702 OFFCURVE",
"476 702 CURVE SMOOTH",
"293 702 OFFCURVE",
"148 563 OFFCURVE",
"106 349 CURVE SMOOTH",
"64 134 OFFCURVE",
"156 -5 OFFCURVE",
"340 -5 CURVE SMOOTH"
);
},
{
closed = 1;
nodes = (
"645 -20 LINE",
"448 222 LINE",
"440 215 LINE",
"637 -27 LINE"
);
},
{
closed = 1;
nodes = (
"162 5 OFFCURVE",
"75 138 OFFCURVE",
"116 347 CURVE SMOOTH",
"157 559 OFFCURVE",
"296 692 OFFCURVE",
"475 692 CURVE SMOOTH",
"655 692 OFFCURVE",
"743 559 OFFCURVE",
"702 349 CURVE SMOOTH",
"661 138 OFFCURVE",
"521 5 OFFCURVE",
"340 5 CURVE SMOOTH"
);
}
);
width = 787;
},
{
anchors = (
{
name = bottom;
position = "{331, 0}";
},
{
name = top;
position = "{467, 697}";
}
);
layerId = "957254E3-B7AD-4837-9092-D4428001DE8E";
paths = (
{
closed = 1;
nodes = (
"513 -18 OFFCURVE",
"681 128 OFFCURVE",
"724 348 CURVE SMOOTH",
"767 569 OFFCURVE",
"657 715 OFFCURVE",
"453 715 CURVE SMOOTH",
"251 715 OFFCURVE",
"83 568 OFFCURVE",
"41 348 CURVE SMOOTH",
"-2 128 OFFCURVE",
"110 -18 OFFCURVE",
"311 -18 CURVE SMOOTH"
);
},
{
closed = 1;
nodes = (
"708 29 LINE",
"467 318 LINE",
"357 231 LINE",
"596 -52 LINE"
);
},
{
closed = 1;
nodes = (
"228 132 OFFCURVE",
"171 213 OFFCURVE",
"198 348 CURVE SMOOTH",
"224 484 OFFCURVE",
"312 565 OFFCURVE",
"424 565 CURVE SMOOTH",
"537 565 OFFCURVE",
"592 482 OFFCURVE",
"566 348 CURVE SMOOTH",
"540 215 OFFCURVE",
"453 132 OFFCURVE",
"340 132 CURVE SMOOTH"
);
}
);
width = 754;
}
);
leftKerningGroup = C;
note = Q;
rightKerningGroup = Q;
unicode = 0051;
},
{
color = 1;
glyphname = R;
lastChange = "2020-06-16 10:26:24 +0000";
layers = (
{
anchors = (
{
name = bottom;
position = "{261, 0}";
},
{
name = top;
position = "{397, 697}";
}
);
layerId = "F91D9E91-C1BC-4259-B0D8-112C0CBA2B8E";
paths = (
{
closed = 1;
nodes = (
"91 0 LINE",
"155 331 LINE",
"311 331 LINE SMOOTH",
"331 331 OFFCURVE",
"350 332 OFFCURVE",
"368 334 CURVE",
"480 352 OFFCURVE",
"548 414 OFFCURVE",
"568 512 CURVE SMOOTH",
"591 631 OFFCURVE",
"523 697 OFFCURVE",
"381 697 CURVE SMOOTH",
"217 697 LINE",
"81 0 LINE"
);
},
{
closed = 1;
nodes = (
"502 0 LINE",
"374 338 LINE",
"364 336 LINE",
"491 0 LINE"
);
},
{
closed = 1;
nodes = (
"225 687 LINE",
"380 687 LINE SMOOTH",
"516 687 OFFCURVE",
"580 625 OFFCURVE",
"558 514 CURVE SMOOTH",
"536 402 OFFCURVE",
"449 341 OFFCURVE",
"312 341 CURVE SMOOTH",
"157 341 LINE"
);
}
);
width = 617;
},
{
anchors = (
{
name = bottom;
position = "{257, 0}";
},
{
name = top;
position = "{393, 697}";
}
);
layerId = "957254E3-B7AD-4837-9092-D4428001DE8E";
paths = (
{
closed = 1;
nodes = (
"178 0 LINE",
"232 277 LINE",
"247 277 LINE SMOOTH",
"267 277 OFFCURVE",
"305 277 OFFCURVE",
"342 276 CURVE",
"483 284 OFFCURVE",
"578 355 OFFCURVE",
"605 491 CURVE SMOOTH",
"629 615 OFFCURVE",
"579 697 OFFCURVE",
"403 697 CURVE SMOOTH",
"158 697 LINE",
"22 0 LINE"
);
},
{
closed = 1;
nodes = (
"575 0 LINE",
"428 313 LINE",
"279 294 LINE",
"408 0 LINE"
);
},
{
closed = 1;
nodes = (
"286 553 LINE",
"359 553 LINE SMOOTH",
"408 553 OFFCURVE",
"460 553 OFFCURVE",
"447 489 CURVE SMOOTH",
"435 424 OFFCURVE",
"383 421 OFFCURVE",
"333 421 CURVE SMOOTH",
"260 421 LINE"
);
}
);
width = 612;
}
);
leftKerningGroup = B;
note = R;
rightKerningGroup = R;
unicode = 0052;
},
{
color = 1;
glyphname = S;
lastChange = "2020-06-16 10:26:24 +0000";
layers = (
{
anchors = (
{
name = bottom;
position = "{236, 0}";
},
{
name = top;
position = "{372, 697}";
}
);
layerId = "F91D9E91-C1BC-4259-B0D8-112C0CBA2B8E";
paths = (
{
closed = 1;
nodes = (
"359 -5 OFFCURVE",
"460 73 OFFCURVE",
"481 180 CURVE SMOOTH",
"504 298 OFFCURVE",
"410 336 OFFCURVE",
"319 373 CURVE SMOOTH",
"234 408 OFFCURVE",
"153 440 OFFCURVE",
"172 538 CURVE SMOOTH",
"189 626 OFFCURVE",
"271 692 OFFCURVE",
"376 692 CURVE SMOOTH",
"452 692 OFFCURVE",
"500 658 OFFCURVE",
"525 594 CURVE",
"534 600 LINE",
"508 666 OFFCURVE",
"456 702 OFFCURVE",
"377 702 CURVE SMOOTH",
"267 702 OFFCURVE",
"180 632 OFFCURVE",
"162 540 CURVE SMOOTH",
"142 437 OFFCURVE",
"224 401 OFFCURVE",
"310 366 CURVE SMOOTH",
"400 329 OFFCURVE",
"493 294 OFFCURVE",
"471 181 CURVE SMOOTH",
"452 79 OFFCURVE",
"356 5 OFFCURVE",
"237 5 CURVE SMOOTH",
"129 5 OFFCURVE",
"62 69 OFFCURVE",
"65 175 CURVE",
"55 173 LINE",
"52 63 OFFCURVE",
"122 -5 OFFCURVE",
"237 -5 CURVE SMOOTH"
);
}
);
width = 567;
},
{
anchors = (
{
name = bottom;
position = "{225, 0}";
},
{
name = top;
position = "{361, 697}";
}
);
layerId = "957254E3-B7AD-4837-9092-D4428001DE8E";
paths = (
{
closed = 1;
nodes = (
"374 -15 OFFCURVE",
"502 78 OFFCURVE",
"527 206 CURVE SMOOTH",
"548 315 OFFCURVE",
"510 365 OFFCURVE",
"371 423 CURVE SMOOTH",
"279 462 OFFCURVE",
"257 486 OFFCURVE",
"263 520 CURVE SMOOTH",
"270 553 OFFCURVE",
"304 576 OFFCURVE",
"340 576 CURVE SMOOTH",
"380 576 OFFCURVE",
"409 550 OFFCURVE",
"420 499 CURVE",
"566 580 LINE",
"538 670 OFFCURVE",
"469 715 OFFCURVE",
"372 715 CURVE SMOOTH",
"235 715 OFFCURVE",
"128 633 OFFCURVE",
"106 517 CURVE SMOOTH",
"85 410 OFFCURVE",
"128 355 OFFCURVE",
"265 295 CURVE SMOOTH",
"349 258 OFFCURVE",
"377 234 OFFCURVE",
"368 192 CURVE SMOOTH",
"360 149 OFFCURVE",
"313 124 OFFCURVE",
"262 124 CURVE SMOOTH",
"192 124 OFFCURVE",
"150 162 OFFCURVE",
"159 244 CURVE",
"-5 205 LINE",
"-10 72 OFFCURVE",
"87 -15 OFFCURVE",
"232 -15 CURVE SMOOTH"
);
}
);
width = 546;
}
);
leftKerningGroup = S;
note = S;
rightKerningGroup = S;
unicode = 0053;
},
{
color = 1;
glyphname = Germandbls;
lastChange = "2020-06-16 10:26:24 +0000";
layers = (
{
anchors = (
{
name = bottom;
position = "{292, 0}";
},
{
name = top;
position = "{428, 697}";
}
);
layerId = "F91D9E91-C1BC-4259-B0D8-112C0CBA2B8E";
paths = (
{
closed = 1;
nodes = (
"506 -5 OFFCURVE",
"577 46 OFFCURVE",
"593 126 CURVE SMOOTH",
"631 323 OFFCURVE",
"285 215 OFFCURVE",
"317 378 CURVE SMOOTH",
"324 416 OFFCURVE",
"344 435 OFFCURVE",
"366 454 CURVE SMOOTH",
"628 687 LINE",
"630 697 LINE",
"391 697 LINE SMOOTH",
"228 697 OFFCURVE",
"182 575 OFFCURVE",
"159 459 CURVE SMOOTH",
"70 -1 LINE",
"80 -1 LINE",
"169 459 LINE SMOOTH",
"191 572 OFFCURVE",
"234 687 OFFCURVE",
"390 687 CURVE SMOOTH",
"614 687 LINE",
"360 462 LINE SMOOTH",
"337 441 OFFCURVE",
"315 421 OFFCURVE",
"307 380 CURVE SMOOTH",
"273 203 OFFCURVE",
"619 311 OFFCURVE",
"583 128 CURVE SMOOTH",
"568 50 OFFCURVE",
"499 5 OFFCURVE",
"409 5 CURVE SMOOTH",
"320 5 OFFCURVE",
"261 51 OFFCURVE",
"250 120 CURVE",
"240 116 LINE",
"251 42 OFFCURVE",
"314 -5 OFFCURVE",
"409 -5 CURVE SMOOTH"
);
}
);
width = 680;
},
{
anchors = (
{
name = bottom;
position = "{305, 0}";
},
{
name = top;
position = "{441, 697}";
}
);
layerId = "957254E3-B7AD-4837-9092-D4428001DE8E";
paths = (
{
closed = 1;
nodes = (
"524 -19 OFFCURVE",
"628 55 OFFCURVE",
"650 167 CURVE SMOOTH",
"686 352 OFFCURVE",
"460 329 OFFCURVE",
"467 365 CURVE SMOOTH",
"468 369 OFFCURVE",
"470 373 OFFCURVE",
"477 380 CURVE SMOOTH",
"668 570 LINE",
"693 697 LINE",
"429 697 LINE SMOOTH",
"165 697 OFFCURVE",
"108 529 OFFCURVE",
"86 417 CURVE SMOOTH",
"5 0 LINE",
"162 0 LINE",
"243 417 LINE SMOOTH",
"262 516 OFFCURVE",
"311 545 OFFCURVE",
"399 545 CURVE SMOOTH",
"454 545 LINE",
"395 481 LINE SMOOTH",
"354 437 OFFCURVE",
"312 405 OFFCURVE",
"299 341 CURVE SMOOTH",
"272 201 OFFCURVE",
"489 230 OFFCURVE",
"474 156 CURVE SMOOTH",
"471 136 OFFCURVE",
"455 126 OFFCURVE",
"437 126 CURVE SMOOTH",
"386 126 OFFCURVE",
"365 161 OFFCURVE",
"355 202 CURVE",
"209 132 LINE",
"215 48 OFFCURVE",
"289 -19 OFFCURVE",
"403 -19 CURVE SMOOTH"
);
}
);
width = 675;
}
);
unicode = 1E9E;
},
{
glyphname = Schwa;
lastChange = "2020-06-16 10:26:24 +0000";
layers = (
{
anchors = (
{
name = bottom;
position = "{329, 0}";
},
{
name = top;
position = "{451, 697}";
}
);
layerId = "F91D9E91-C1BC-4259-B0D8-112C0CBA2B8E";
paths = (
{
closed = 1;
nodes = (
"597 -5 OFFCURVE",
"704 244 OFFCURVE",
"704 451 CURVE SMOOTH",
"704 614 OFFCURVE",
"617 702 OFFCURVE",
"453 702 CURVE SMOOTH",
"321 702 OFFCURVE",
"226 645 OFFCURVE",
"159 525 CURVE",
"169 522 LINE",
"233 639 OFFCURVE",
"324 692 OFFCURVE",
"452 692 CURVE SMOOTH",
"612 692 OFFCURVE",
"694 607 OFFCURVE",
"694 451 CURVE SMOOTH",
"694 252 OFFCURVE",
"592 5 OFFCURVE",
"339 5 CURVE SMOOTH",
"187 5 OFFCURVE",
"107 93 OFFCURVE",
"107 250 CURVE SMOOTH",
"107 281 OFFCURVE",
"110 315 OFFCURVE",
"116 351 CURVE",
"106 351 LINE",
"99 314 OFFCURVE",
"96 279 OFFCURVE",
"96 248 CURVE SMOOTH",
"96 85 OFFCURVE",
"181 -5 OFFCURVE",
"338 -5 CURVE SMOOTH"
);
},
{
closed = 1;
nodes = (
"692 341 LINE",
"693 351 LINE",
"112 351 LINE",
"111 341 LINE"
);
}
);
width = 761;
},
{
anchors = (
{
name = bottom;
position = "{328, 0}";
},
{
name = top;
position = "{450, 697}";
}
);
layerId = "957254E3-B7AD-4837-9092-D4428001DE8E";
paths = (
{
closed = 1;
nodes = (
"599 -18 OFFCURVE",
"751 212 OFFCURVE",
"751 432 CURVE SMOOTH",
"751 607 OFFCURVE",
"642 717 OFFCURVE",
"460 717 CURVE SMOOTH",
"304 717 OFFCURVE",
"175 637 OFFCURVE",
"101 505 CURVE",
"236 448 LINE",
"276 527 OFFCURVE",
"349 567 OFFCURVE",
"434 567 CURVE SMOOTH",
"535 567 OFFCURVE",
"592 511 OFFCURVE",
"592 410 CURVE SMOOTH",
"592 281 OFFCURVE",
"522 132 OFFCURVE",
"354 132 CURVE SMOOTH",
"251 132 OFFCURVE",
"193 189 OFFCURVE",
"193 293 CURVE SMOOTH",
"193 311 OFFCURVE",
"194 330 OFFCURVE",
"198 351 CURVE",
"41 351 LINE",
"36 322 OFFCURVE",
"33 294 OFFCURVE",
"33 267 CURVE SMOOTH",
"33 92 OFFCURVE",
"144 -18 OFFCURVE",
"327 -18 CURVE SMOOTH"
);
},
{
closed = 1;
nodes = (
"681 231 LINE",
"702 351 LINE",
"121 351 LINE",
"100 231 LINE"
);
}
);
width = 745;
}
);
leftKerningGroup = C;
leftMetricsKey = O;
rightKerningGroup = D;
rightMetricsKey = O;
unicode = 018F;
},
{
color = 1;
glyphname = T;
lastChange = "2020-06-16 10:26:24 +0000";
layers = (
{
anchors = (
{
name = bottom;
position = "{275, 0}";
},
{
name = center;
position = "{343, 349}";
},
{
name = top;
position = "{411, 697}";
}
);
layerId = "F91D9E91-C1BC-4259-B0D8-112C0CBA2B8E";
paths = (
{
closed = 1;
nodes = (
"280 0 LINE",
"414 687 LINE",
"682 687 LINE",
"684 697 LINE",
"138 697 LINE",
"136 687 LINE",
"404 687 LINE",
"270 0 LINE"
);
}
);
width = 646;
},
{
anchors = (
{
name = bottom;
position = "{230, 0}";
},
{
name = center;
position = "{298, 349}";
},
{
name = top;
position = "{366, 697}";
}
);
layerId = "957254E3-B7AD-4837-9092-D4428001DE8E";
paths = (
{
closed = 1;
nodes = (
"310 0 LINE",
"418 553 LINE",
"621 553 LINE",
"649 697 LINE",
"83 697 LINE",
"55 553 LINE",
"259 553 LINE",
"151 0 LINE"
);
}
);
width = 556;
}
);
leftKerningGroup = T;
note = T;
rightKerningGroup = T;
unicode = 0054;
},
{
color = 1;
glyphname = U;
lastChange = "2020-06-16 10:26:24 +0000";
layers = (
{
anchors = (
{
name = bottom;
position = "{299, 0}";
},
{
name = ogonek;
position = "{352, 0}";
},
{
name = top;
position = "{435, 697}";
},
{
name = topright;
position = "{683, 493}";
}
);
layerId = "F91D9E91-C1BC-4259-B0D8-112C0CBA2B8E";
paths = (
{
closed = 1;
nodes = (
"447 -5 OFFCURVE",
"549 89 OFFCURVE",
"582 257 CURVE SMOOTH",
"668 697 LINE",
"658 697 LINE",
"572 257 LINE SMOOTH",
"541 95 OFFCURVE",
"443 5 OFFCURVE",
"298 5 CURVE SMOOTH",
"156 5 OFFCURVE",
"95 93 OFFCURVE",
"126 252 CURVE SMOOTH",
"213 697 LINE",
"203 697 LINE",
"116 252 LINE SMOOTH",
"84 87 OFFCURVE",
"149 -5 OFFCURVE",
"298 -5 CURVE SMOOTH"
);
}
);
width = 695;
},
{
anchors = (
{
name = bottom;
position = "{285, 0}";
},
{
name = ogonek;
position = "{380, 0}";
},
{
name = top;
position = "{421, 697}";
},
{
name = topright;
position = "{729, 493}";
}
);
layerId = "957254E3-B7AD-4837-9092-D4428001DE8E";
paths = (
{
closed = 1;
nodes = (
"463 -18 OFFCURVE",
"574 72 OFFCURVE",
"610 257 CURVE SMOOTH",
"696 697 LINE",
"539 697 LINE",
"455 268 LINE SMOOTH",
"437 174 OFFCURVE",
"409 126 OFFCURVE",
"309 126 CURVE SMOOTH",
"208 126 OFFCURVE",
"199 173 OFFCURVE",
"218 270 CURVE SMOOTH",
"301 697 LINE",
"144 697 LINE",
"57 252 LINE SMOOTH",
"22 70 OFFCURVE",
"98 -18 OFFCURVE",
"281 -18 CURVE SMOOTH"
);
}
);
width = 664;
}
);
leftKerningGroup = U;
note = U;
rightKerningGroup = J;
unicode = 0055;
},
{
color = 1;
glyphname = V;
lastChange = "2020-06-16 10:26:24 +0000";
layers = (
{
anchors = (
{
name = bottom;
position = "{291, 0}";
},
{
name = top;
position = "{427, 697}";
}
);
layerId = "F91D9E91-C1BC-4259-B0D8-112C0CBA2B8E";
paths = (
{
closed = 1;
nodes = (
"299 0 LINE",
"708 697 LINE",
"696 697 LINE",
"295 10 LINE",
"291 10 LINE",
"156 697 LINE",
"146 697 LINE",
"283 0 LINE"
);
}
);
width = 678;
},
{
anchors = (
{
name = bottom;
position = "{277, 0}";
},
{
name = top;
position = "{413, 697}";
}
);
layerId = "957254E3-B7AD-4837-9092-D4428001DE8E";
paths = (
{
closed = 1;
nodes = (
"334 0 LINE",
"750 697 LINE",
"565 697 LINE",
"279 193 LINE",
"330 193 LINE",
"236 697 LINE",
"74 697 LINE",
"219 0 LINE"
);
}
);
width = 648;
}
);
leftKerningGroup = V;
note = V;
rightKerningGroup = V;
unicode = 0056;
},
{
color = 1;
glyphname = W;
lastChange = "2020-06-16 10:26:24 +0000";
layers = (
{
anchors = (
{
name = bottom;
position = "{432, 0}";
},
{
name = top;
position = "{568, 697}";
}
);
layerId = "F91D9E91-C1BC-4259-B0D8-112C0CBA2B8E";
paths = (
{
closed = 1;
nodes = (
"224 0 LINE",
"560 651 LINE",
"557 651 LINE",
"639 0 LINE",
"655 0 LINE",
"984 697 LINE",
"972 697 LINE",
"649 9 LINE",
"567 663 LINE",
"554 663 LINE",
"218 9 LINE",
"161 697 LINE",
"151 697 LINE",
"208 0 LINE"
);
}
);
width = 959;
},
{
anchors = (
{
name = bottom;
position = "{415, 0}";
},
{
name = top;
position = "{551, 697}";
}
);
layerId = "957254E3-B7AD-4837-9092-D4428001DE8E";
paths = (
{
closed = 1;
nodes = (
"309 0 LINE",
"525 446 LINE",
"478 451 LINE",
"520 0 LINE",
"672 0 LINE",
"1022 697 LINE",
"848 697 LINE",
"626 242 LINE",
"589 655 LINE",
"476 655 LINE",
"281 242 LINE",
"236 697 LINE",
"81 697 LINE",
"158 0 LINE"
);
}
);
width = 927;
}
);
leftKerningGroup = W;
note = W;
rightKerningGroup = W;
unicode = 0057;
},
{
color = 1;
glyphname = X;
lastChange = "2020-06-16 10:26:24 +0000";
layers = (
{
anchors = (
{
name = bottom;
position = "{271, 0}";
},
{
name = top;
position = "{407, 697}";
}
);
layerId = "F91D9E91-C1BC-4259-B0D8-112C0CBA2B8E";
paths = (
{
closed = 1;
nodes = (
"23 0 LINE",
"340 348 LINE",
"335 349 LINE",
"518 0 LINE",
"530 0 LINE",
"345 355 LINE",
"658 697 LINE",
"645 697 LINE",
"337 360 LINE",
"342 359 LINE",
"166 697 LINE",
"155 697 LINE",
"333 355 LINE",
"11 0 LINE"
);
}
);
width = 637;
},
{
anchors = (
{
name = bottom;
position = "{283, 0}";
},
{
name = top;
position = "{419, 697}";
}
);
layerId = "957254E3-B7AD-4837-9092-D4428001DE8E";
paths = (
{
closed = 1;
nodes = (
"151 0 LINE",
"372 268 LINE",
"325 274 LINE",
"447 0 LINE",
"619 0 LINE",
"458 346 LINE",
"755 697 LINE",
"552 697 LINE",
"328 420 LINE",
"373 414 LINE",
"254 697 LINE",
"82 697 LINE",
"241 346 LINE",
"-53 0 LINE"
);
}
);
width = 661;
}
);
leftKerningGroup = X;
note = X;
rightKerningGroup = X;
unicode = 0058;
},
{
color = 1;
glyphname = Y;
lastChange = "2020-06-16 10:26:24 +0000";
layers = (
{
anchors = (
{
name = bottom;
position = "{279, 0}";
},
{
name = top;
position = "{415, 697}";
},
{
name = topleft;
position = "{108, 697}";
}
);
layerId = "F91D9E91-C1BC-4259-B0D8-112C0CBA2B8E";
paths = (
{
closed = 1;
nodes = (
"283 0 LINE",
"334 261 LINE",
"689 697 LINE",
"676 697 LINE",
"331 273 LINE",
"152 697 LINE",
"141 697 LINE",
"324 261 LINE",
"273 0 LINE"
);
}
);
width = 654;
},
{
anchors = (
{
name = bottom;
position = "{273, 0}";
},
{
name = top;
position = "{409, 697}";
},
{
name = topleft;
position = "{106, 697}";
}
);
layerId = "957254E3-B7AD-4837-9092-D4428001DE8E";
paths = (
{
closed = 1;
nodes = (
"352 0 LINE",
"406 275 LINE",
"749 697 LINE",
"553 697 LINE",
"342 426 LINE",
"241 697 LINE",
"67 697 LINE",
"249 275 LINE",
"195 0 LINE"
);
}
);
width = 641;
}
);
leftKerningGroup = Y;
note = Y;
rightKerningGroup = Y;
unicode = 0059;
},
{
color = 1;
glyphname = Z;
lastChange = "2020-06-16 10:26:24 +0000";
layers = (
{
anchors = (
{
name = bottom;
position = "{249, 0}";
},
{
name = center;
position = "{317, 349}";
},
{
name = top;
position = "{385, 697}";
}
);
layerId = "F91D9E91-C1BC-4259-B0D8-112C0CBA2B8E";
paths = (
{
closed = 1;
nodes = (
"482 0 LINE",
"484 10 LINE",
"22 10 LINE",
"22 12 LINE",
"618 682 LINE",
"621 697 LINE",
"169 697 LINE",
"167 687 LINE",
"608 687 LINE",
"608 686 LINE",
"12 16 LINE",
"9 0 LINE"
);
}
);
width = 594;
},
{
anchors = (
{
name = bottom;
position = "{256, 0}";
},
{
name = center;
position = "{324, 349}";
},
{
name = top;
position = "{392, 697}";
}
);
layerId = "957254E3-B7AD-4837-9092-D4428001DE8E";
paths = (
{
closed = 1;
nodes = (
"537 0 LINE",
"565 144 LINE",
"146 144 LINE",
"155 88 LINE",
"650 585 LINE",
"672 697 LINE",
"126 697 LINE",
"98 553 LINE",
"496 553 LINE",
"486 607 LINE",
"-12 107 LINE",
"-33 0 LINE"
);
}
);
width = 609;
}
);
leftKerningGroup = Z;
note = Z;
rightKerningGroup = Z;
unicode = 005A;
},
{
color = 1;
glyphname = a;
lastChange = "2020-06-16 10:26:24 +0000";
layers = (
{
anchors = (
{
name = bottom;
position = "{259.085, 0}";
},
{
name = ogonek;
position = "{463, 0}";
},
{
name = top;
position = "{354.915, 493}";
}
);
layerId = "F91D9E91-C1BC-4259-B0D8-112C0CBA2B8E";
paths = (
{
closed = 1;
nodes = (
"344 -5 OFFCURVE",
"441 67 OFFCURVE",
"488 172 CURVE",
"487 173 LINE",
"453 0 LINE",
"463 0 LINE",
"559 493 LINE",
"549 493 LINE",
"516 321 LINE",
"517 322 LINE",
"511 426 OFFCURVE",
"442 498 OFFCURVE",
"336 498 CURVE SMOOTH",
"209 498 OFFCURVE",
"90 390 OFFCURVE",
"62 248 CURVE SMOOTH",
"34 104 OFFCURVE",
"111 -5 OFFCURVE",
"240 -5 CURVE SMOOTH"
);
},
{
closed = 1;
nodes = (
"118 5 OFFCURVE",
"45 110 OFFCURVE",
"72 246 CURVE SMOOTH",
"99 384 OFFCURVE",
"212 488 OFFCURVE",
"336 488 CURVE SMOOTH",
"457 488 OFFCURVE",
"528 385 OFFCURVE",
"501 248 CURVE SMOOTH",
"474 109 OFFCURVE",
"363 5 OFFCURVE",
"240 5 CURVE SMOOTH"
);
}
);
width = 614;
},
{
anchors = (
{
name = bottom;
position = "{230.085, 0}";
},
{
name = ogonek;
position = "{452, 0}";
},
{
name = top;
position = "{325.915, 493}";
}
);
layerId = "957254E3-B7AD-4837-9092-D4428001DE8E";
paths = (
{
closed = 1;
nodes = (
"230 -11 OFFCURVE",
"311 13 OFFCURVE",
"350 88 CURVE",
"326 122 LINE",
"332 0 LINE",
"452 0 LINE",
"548 493 LINE",
"428 493 LINE",
"374 369 LINE",
"408 411 LINE",
"403 464 OFFCURVE",
"339 504 OFFCURVE",
"270 504 CURVE SMOOTH",
"159 504 OFFCURVE",
"51 412 OFFCURVE",
"19 247 CURVE SMOOTH",
"-10 99 OFFCURVE",
"42 -11 OFFCURVE",
"170 -11 CURVE SMOOTH"
);
},
{
closed = 1;
nodes = (
"180 130 OFFCURVE",
"155 170 OFFCURVE",
"170 245 CURVE SMOOTH",
"185 322 OFFCURVE",
"229 366 OFFCURVE",
"290 366 CURVE SMOOTH",
"351 366 OFFCURVE",
"378 321 OFFCURVE",
"364 245 CURVE SMOOTH",
"349 171 OFFCURVE",
"306 130 OFFCURVE",
"243 130 CURVE SMOOTH"
);
}
);
width = 556;
}
);
leftKerningGroup = a;
note = a;
rightKerningGroup = a;
unicode = 0061;
},
{
color = 1;
glyphname = ae;
lastChange = "2020-06-16 10:26:24 +0000";
layers = (
{
anchors = (
{
name = bottom;
position = "{390, 0}";
},
{
name = top;
position = "{486, 493}";
}
);
components = (
{
name = e;
transform = "{1, 0, 0, 1, 364, 0}";
}
);
layerId = "F91D9E91-C1BC-4259-B0D8-112C0CBA2B8E";
paths = (
{
closed = 1;
nodes = (
"266 -5 OFFCURVE",
"364 40 OFFCURVE",
"429 225 CURVE",
"451 301 LINE",
"472 433 OFFCURVE",
"422 498 OFFCURVE",
"307 498 CURVE SMOOTH",
"230 498 OFFCURVE",
"172 471 OFFCURVE",
"111 403 CURVE",
"119 397 LINE",
"177 462 OFFCURVE",
"231 488 OFFCURVE",
"307 488 CURVE SMOOTH",
"418 488 OFFCURVE",
"464 425 OFFCURVE",
"439 303 CURVE SMOOTH",
"433 274 LINE",
"284 274 LINE SMOOTH",
"139 274 OFFCURVE",
"58 227 OFFCURVE",
"40 135 CURVE SMOOTH",
"23 48 OFFCURVE",
"75 -5 OFFCURVE",
"175 -5 CURVE SMOOTH"
);
},
{
closed = 1;
nodes = (
"82 5 OFFCURVE",
"35 55 OFFCURVE",
"50 133 CURVE SMOOTH",
"67 221 OFFCURVE",
"143 264 OFFCURVE",
"283 264 CURVE SMOOTH",
"431 264 LINE",
"381 93 OFFCURVE",
"302 5 OFFCURVE",
"175 5 CURVE SMOOTH"
);
}
);
width = 882;
},
{
anchors = (
{
name = bottom;
position = "{381, 0}";
},
{
name = top;
position = "{477, 493}";
}
);
components = (
{
name = e;
transform = "{1, 0, 0, 1, 367, 0}";
}
);
layerId = "957254E3-B7AD-4837-9092-D4428001DE8E";
paths = (
{
closed = 1;
nodes = (
"244 -11 OFFCURVE",
"336 10 OFFCURVE",
"403 104 CURVE",
"483 409 LINE",
"461 480 OFFCURVE",
"391 504 OFFCURVE",
"324 504 CURVE SMOOTH",
"229 504 OFFCURVE",
"146 478 OFFCURVE",
"63 411 CURVE",
"154 320 LINE",
"201 363 OFFCURVE",
"251 373 OFFCURVE",
"283 373 CURVE SMOOTH",
"333 373 OFFCURVE",
"360 350 OFFCURVE",
"353 313 CURVE SMOOTH",
"350 299 LINE",
"259 299 LINE SMOOTH",
"220 299 OFFCURVE",
"32 314 OFFCURVE",
"1 154 CURVE SMOOTH",
"-17 60 OFFCURVE",
"35 -11 OFFCURVE",
"161 -11 CURVE SMOOTH"
);
},
{
closed = 1;
nodes = (
"167 117 OFFCURVE",
"152 132 OFFCURVE",
"155 151 CURVE SMOOTH",
"159 167 OFFCURVE",
"177 191 OFFCURVE",
"247 191 CURVE SMOOTH",
"329 191 LINE",
"320 157 OFFCURVE",
"275 117 OFFCURVE",
"205 117 CURVE SMOOTH"
);
}
);
width = 859;
}
);
leftKerningGroup = a;
leftMetricsKey = a;
note = ae;
rightKerningGroup = e;
rightMetricsKey = e;
unicode = 00E6;
},
{
color = 1;
glyphname = b;
lastChange = "2020-06-16 10:26:24 +0000";
layers = (
{
anchors = (
{
name = bottom;
position = "{251, 0}";
},
{
name = top;
position = "{196, 697}";
}
);
layerId = "F91D9E91-C1BC-4259-B0D8-112C0CBA2B8E";
paths = (
{
closed = 1;
nodes = (
"406 -5 OFFCURVE",
"504 104 OFFCURVE",
"532 246 CURVE SMOOTH",
"560 390 OFFCURVE",
"504 498 OFFCURVE",
"374 498 CURVE SMOOTH",
"270 498 OFFCURVE",
"173 426 OFFCURVE",
"127 322 CURVE",
"128 321 LINE",
"201 697 LINE",
"191 697 LINE",
"55 0 LINE",
"65 0 LINE",
"99 173 LINE",
"98 172 LINE",
"103 67 OFFCURVE",
"172 -5 OFFCURVE",
"278 -5 CURVE SMOOTH"
);
},
{
closed = 1;
nodes = (
"157 5 OFFCURVE",
"86 109 OFFCURVE",
"113 246 CURVE SMOOTH",
"140 385 OFFCURVE",
"251 488 OFFCURVE",
"374 488 CURVE SMOOTH",
"497 488 OFFCURVE",
"549 384 OFFCURVE",
"522 248 CURVE SMOOTH",
"496 110 OFFCURVE",
"403 5 OFFCURVE",
"278 5 CURVE SMOOTH"
);
}
);
width = 598;
},
{
anchors = (
{
name = bottom;
position = "{227, 0}";
},
{
name = top;
position = "{220, 697}";
}
);
layerId = "957254E3-B7AD-4837-9092-D4428001DE8E";
paths = (
{
closed = 1;
nodes = (
"414 -11 OFFCURVE",
"508 99 OFFCURVE",
"537 247 CURVE SMOOTH",
"569 412 OFFCURVE",
"497 504 OFFCURVE",
"389 504 CURVE SMOOTH",
"317 504 OFFCURVE",
"237 464 OFFCURVE",
"213 411 CURVE",
"231 369 LINE",
"295 697 LINE",
"144 697 LINE",
"8 0 LINE",
"129 0 LINE",
"183 122 LINE",
"145 88 LINE",
"156 13 OFFCURVE",
"226 -11 OFFCURVE",
"286 -11 CURVE SMOOTH"
);
},
{
closed = 1;
nodes = (
"205 130 OFFCURVE",
"178 171 OFFCURVE",
"193 245 CURVE SMOOTH",
"207 321 OFFCURVE",
"252 366 OFFCURVE",
"313 366 CURVE SMOOTH",
"374 366 OFFCURVE",
"402 322 OFFCURVE",
"387 245 CURVE SMOOTH",
"372 170 OFFCURVE",
"331 130 OFFCURVE",
"268 130 CURVE SMOOTH"
);
}
);
width = 556;
}
);
leftKerningGroup = b;
note = b;
rightKerningGroup = b;
unicode = 0062;
},
{
color = 1;
glyphname = c;
lastChange = "2020-06-16 10:26:24 +0000";
layers = (
{
anchors = (
{
name = bottom;
position = "{204, 0}";
},
{
name = top;
position = "{300, 493}";
}
);
layerId = "F91D9E91-C1BC-4259-B0D8-112C0CBA2B8E";
paths = (
{
closed = 1;
nodes = (
"306 -5 OFFCURVE",
"380 40 OFFCURVE",
"424 120 CURVE",
"414 124 LINE",
"373 48 OFFCURVE",
"304 5 OFFCURVE",
"223 5 CURVE SMOOTH",
"94 5 OFFCURVE",
"51 117 OFFCURVE",
"76 244 CURVE SMOOTH",
"101 373 OFFCURVE",
"187 488 OFFCURVE",
"318 488 CURVE SMOOTH",
"393 488 OFFCURVE",
"449 444 OFFCURVE",
"467 369 CURVE",
"478 373 LINE",
"458 452 OFFCURVE",
"401 498 OFFCURVE",
"318 498 CURVE SMOOTH",
"183 498 OFFCURVE",
"91 375 OFFCURVE",
"66 246 CURVE SMOOTH",
"37 97 OFFCURVE",
"100 -5 OFFCURVE",
"223 -5 CURVE SMOOTH"
);
}
);
width = 503;
},
{
anchors = (
{
name = bottom;
position = "{195, 0}";
},
{
name = top;
position = "{291, 493}";
}
);
layerId = "957254E3-B7AD-4837-9092-D4428001DE8E";
paths = (
{
closed = 1;
nodes = (
"315 -11 OFFCURVE",
"404 47 OFFCURVE",
"455 140 CURVE",
"330 193 LINE",
"312 149 OFFCURVE",
"274 120 OFFCURVE",
"235 120 CURVE SMOOTH",
"164 120 OFFCURVE",
"155 182 OFFCURVE",
"168 245 CURVE SMOOTH",
"180 309 OFFCURVE",
"216 373 OFFCURVE",
"286 373 CURVE SMOOTH",
"326 373 OFFCURVE",
"351 343 OFFCURVE",
"349 297 CURVE",
"502 354 LINE",
"485 455 OFFCURVE",
"415 504 OFFCURVE",
"311 504 CURVE SMOOTH",
"143 504 OFFCURVE",
"38 375 OFFCURVE",
"13 245 CURVE SMOOTH",
"-12 119 OFFCURVE",
"40 -11 OFFCURVE",
"212 -11 CURVE SMOOTH"
);
}
);
width = 483;
}
);
leftKerningGroup = c;
note = c;
rightKerningGroup = c;
unicode = 0063;
},
{
color = 1;
glyphname = d;
lastChange = "2020-06-16 10:26:24 +0000";
layers = (
{
anchors = (
{
name = bottom;
position = "{259, 0}";
},
{
name = center;
position = "{529, 608}";
},
{
name = top;
position = "{594, 697}";
},
{
name = topright;
position = "{665, 493}";
}
);
layerId = "F91D9E91-C1BC-4259-B0D8-112C0CBA2B8E";
paths = (
{
closed = 1;
nodes = (
"344 -5 OFFCURVE",
"441 67 OFFCURVE",
"488 172 CURVE",
"487 173 LINE",
"453 0 LINE",
"463 0 LINE",
"599 697 LINE",
"589 697 LINE",
"516 321 LINE",
"517 322 LINE",
"511 426 OFFCURVE",
"442 498 OFFCURVE",
"336 498 CURVE SMOOTH",
"209 498 OFFCURVE",
"90 390 OFFCURVE",
"62 248 CURVE SMOOTH",
"34 104 OFFCURVE",
"111 -5 OFFCURVE",
"240 -5 CURVE SMOOTH"
);
},
{
closed = 1;
nodes = (
"118 5 OFFCURVE",
"45 110 OFFCURVE",
"72 246 CURVE SMOOTH",
"99 384 OFFCURVE",
"212 488 OFFCURVE",
"336 488 CURVE SMOOTH",
"457 488 OFFCURVE",
"528 385 OFFCURVE",
"501 248 CURVE SMOOTH",
"474 109 OFFCURVE",
"363 5 OFFCURVE",
"240 5 CURVE SMOOTH"
);
}
);
width = 613;
},
{
anchors = (
{
name = bottom;
position = "{231, 0}";
},
{
name = center;
position = "{477, 589}";
},
{
name = top;
position = "{513, 697}";
},
{
name = topright;
position = "{665, 493}";
}
);
layerId = "957254E3-B7AD-4837-9092-D4428001DE8E";
paths = (
{
closed = 1;
nodes = (
"230 -11 OFFCURVE",
"311 13 OFFCURVE",
"350 88 CURVE",
"326 122 LINE",
"332 0 LINE",
"452 0 LINE",
"588 697 LINE",
"438 697 LINE",
"374 369 LINE",
"408 411 LINE",
"403 464 OFFCURVE",
"339 504 OFFCURVE",
"270 504 CURVE SMOOTH",
"159 504 OFFCURVE",
"51 412 OFFCURVE",
"19 247 CURVE SMOOTH",
"-10 99 OFFCURVE",
"42 -11 OFFCURVE",
"170 -11 CURVE SMOOTH"
);
},
{
closed = 1;
nodes = (
"180 130 OFFCURVE",
"155 170 OFFCURVE",
"170 245 CURVE SMOOTH",
"185 322 OFFCURVE",
"229 366 OFFCURVE",
"290 366 CURVE SMOOTH",
"351 366 OFFCURVE",
"378 321 OFFCURVE",
"364 245 CURVE SMOOTH",
"349 171 OFFCURVE",
"306 130 OFFCURVE",
"243 130 CURVE SMOOTH"
);
}
);
width = 555;
}
);
leftKerningGroup = c;
note = d;
rightKerningGroup = d;
unicode = 0064;
},
{
color = 1;
glyphname = eth;
lastChange = "2020-06-16 10:26:24 +0000";
layers = (
{
layerId = "F91D9E91-C1BC-4259-B0D8-112C0CBA2B8E";
paths = (
{
closed = 1;
nodes = (
"415 -5 OFFCURVE",
"531 180 OFFCURVE",
"566 359 CURVE SMOOTH",
"610 588 OFFCURVE",
"557 702 OFFCURVE",
"240 707 CURVE",
"239 697 LINE",
"534 692 OFFCURVE",
"626 594 OFFCURVE",
"538 290 CURVE",
"554 391 OFFCURVE",
"526 510 OFFCURVE",
"392 510 CURVE SMOOTH",
"228 510 OFFCURVE",
"92 388 OFFCURVE",
"57 211 CURVE SMOOTH",
"32 82 OFFCURVE",
"96 -5 OFFCURVE",
"217 -5 CURVE SMOOTH"
);
},
{
closed = 1;
nodes = (
"104 5 OFFCURVE",
"43 87 OFFCURVE",
"67 209 CURVE SMOOTH",
"100 383 OFFCURVE",
"232 500 OFFCURVE",
"392 500 CURVE SMOOTH",
"543 500 OFFCURVE",
"556 335 OFFCURVE",
"515 232 CURVE SMOOTH",
"464 105 OFFCURVE",
"362 5 OFFCURVE",
"217 5 CURVE SMOOTH"
);
},
{
closed = 1;
nodes = (
"681 672 LINE",
"679 680 LINE",
"359 571 LINE",
"361 563 LINE"
);
}
);
width = 617;
},
{
layerId = "957254E3-B7AD-4837-9092-D4428001DE8E";
paths = (
{
closed = 1;
nodes = (
"378 -6 OFFCURVE",
"521 132 OFFCURVE",
"569 380 CURVE SMOOTH",
"609 587 OFFCURVE",
"554 721 OFFCURVE",
"319 743 CURVE",
"287 643 LINE",
"435 637 OFFCURVE",
"472 532 OFFCURVE",
"453 431 CURVE",
"431 478 OFFCURVE",
"373 492 OFFCURVE",
"323 492 CURVE SMOOTH",
"186 492 OFFCURVE",
"36 384 OFFCURVE",
"4 223 CURVE SMOOTH",
"-21 92 OFFCURVE",
"46 -6 OFFCURVE",
"198 -6 CURVE SMOOTH"
);
},
{
closed = 1;
nodes = (
"176 123 OFFCURVE",
"132 155 OFFCURVE",
"146 225 CURVE SMOOTH",
"157 283 OFFCURVE",
"209 369 OFFCURVE",
"315 369 CURVE SMOOTH",
"382 369 OFFCURVE",
"411 335 OFFCURVE",
"406 285 CURVE SMOOTH",
"400 211 OFFCURVE",
"324 123 OFFCURVE",
"232 123 CURVE SMOOTH"
);
},
{
closed = 1;
nodes = (
"618 612 LINE",
"616 672 LINE",
"234 586 LINE",
"237 526 LINE"
);
}
);
width = 564;
}
);
leftKerningGroup = c;
note = eth;
rightKerningGroup = d;
unicode = 00F0;
},
{
color = 1;
glyphname = e;
lastChange = "2020-06-16 10:26:24 +0000";
layers = (
{
anchors = (
{
name = bottom;
position = "{211, 0}";
},
{
name = ogonek;
position = "{286, 0}";
},
{
name = top;
position = "{307, 493}";
}
);
layerId = "F91D9E91-C1BC-4259-B0D8-112C0CBA2B8E";
paths = (
{
closed = 1;
nodes = (
"306 -5 OFFCURVE",
"354 14 OFFCURVE",
"422 70 CURVE",
"414 78 LINE",
"350 23 OFFCURVE",
"305 5 OFFCURVE",
"231 5 CURVE SMOOTH",
"129 5 OFFCURVE",
"68 69 OFFCURVE",
"68 182 CURVE SMOOTH",
"68 204 OFFCURVE",
"71 228 OFFCURVE",
"76 254 CURVE",
"71 251 LINE",
"463 251 LINE",
"470 268 OFFCURVE",
"477 308 OFFCURVE",
"477 331 CURVE SMOOTH",
"477 410 OFFCURVE",
"437 498 OFFCURVE",
"310 498 CURVE SMOOTH",
"147 498 OFFCURVE",
"58 321 OFFCURVE",
"58 180 CURVE SMOOTH",
"58 66 OFFCURVE",
"122 -5 OFFCURVE",
"230 -5 CURVE SMOOTH"
);
},
{
closed = 1;
nodes = (
"460 260 LINE",
"72 260 LINE",
"76 257 LINE",
"105 393 OFFCURVE",
"199 488 OFFCURVE",
"309 488 CURVE SMOOTH",
"429 488 OFFCURVE",
"467 407 OFFCURVE",
"467 333 CURVE SMOOTH",
"467 312 OFFCURVE",
"461 274 OFFCURVE",
"455 256 CURVE"
);
}
);
width = 518;
},
{
anchors = (
{
name = bottom;
position = "{198, 0}";
},
{
name = ogonek;
position = "{295, 0}";
},
{
name = top;
position = "{294, 493}";
}
);
layerId = "957254E3-B7AD-4837-9092-D4428001DE8E";
paths = (
{
closed = 1;
nodes = (
"303 -11 OFFCURVE",
"378 22 OFFCURVE",
"441 81 CURVE",
"353 173 LINE",
"319 139 OFFCURVE",
"278 125 OFFCURVE",
"241 125 CURVE SMOOTH",
"178 125 OFFCURVE",
"152 154 OFFCURVE",
"152 192 CURVE SMOOTH",
"152 202 OFFCURVE",
"154 212 OFFCURVE",
"157 223 CURVE",
"107 194 LINE",
"476 194 LINE",
"485 227 OFFCURVE",
"493 268 OFFCURVE",
"493 308 CURVE SMOOTH",
"493 425 OFFCURVE",
"429 504 OFFCURVE",
"298 504 CURVE SMOOTH",
"87 504 OFFCURVE",
"5 310 OFFCURVE",
"5 186 CURVE SMOOTH",
"5 81 OFFCURVE",
"62 -11 OFFCURVE",
"216 -11 CURVE SMOOTH"
);
},
{
closed = 1;
nodes = (
"366 305 LINE",
"165 305 LINE",
"164 287 LINE",
"170 318 OFFCURVE",
"201 379 OFFCURVE",
"277 379 CURVE SMOOTH",
"323 379 OFFCURVE",
"355 356 OFFCURVE",
"355 316 CURVE SMOOTH",
"355 307 OFFCURVE",
"350 283 OFFCURVE",
"349 286 CURVE"
);
}
);
width = 492;
}
);
leftKerningGroup = c;
leftMetricsKey = o;
note = e;
rightKerningGroup = e;
unicode = 0065;
},
{
color = 1;
glyphname = f;
lastChange = "2020-06-16 10:26:24 +0000";
layers = (
{
anchors = (
{
name = bottom;
position = "{101, 0}";
},
{
name = top;
position = "{266, 697}";
}
);
layerId = "F91D9E91-C1BC-4259-B0D8-112C0CBA2B8E";
paths = (
{
closed = 1;
nodes = (
"106 0 LINE",
"200 483 LINE",
"373 483 LINE",
"375 493 LINE",
"202 493 LINE",
"219 580 LINE SMOOTH",
"234 656 OFFCURVE",
"277 692 OFFCURVE",
"340 692 CURVE SMOOTH",
"366 692 OFFCURVE",
"385 687 OFFCURVE",
"403 677 CURVE",
"408 685 LINE",
"391 696 OFFCURVE",
"369 702 OFFCURVE",
"341 702 CURVE SMOOTH",
"272 702 OFFCURVE",
"225 662 OFFCURVE",
"209 580 CURVE SMOOTH",
"192 493 LINE",
"76 493 LINE",
"74 483 LINE",
"190 483 LINE",
"96 0 LINE"
);
}
);
width = 355;
},
{
anchors = (
{
name = bottom;
position = "{113, 0}";
},
{
name = top;
position = "{247, 697}";
}
);
layerId = "957254E3-B7AD-4837-9092-D4428001DE8E";
paths = (
{
closed = 1;
nodes = (
"189 0 LINE",
"262 376 LINE",
"360 376 LINE",
"383 493 LINE",
"285 493 LINE",
"293 536 LINE SMOOTH",
"298 562 OFFCURVE",
"308 583 OFFCURVE",
"333 583 CURVE SMOOTH",
"346 583 OFFCURVE",
"358 577 OFFCURVE",
"369 571 CURVE",
"439 686 LINE",
"412 699 OFFCURVE",
"385 708 OFFCURVE",
"341 708 CURVE SMOOTH",
"254 708 OFFCURVE",
"170 674 OFFCURVE",
"143 537 CURVE SMOOTH",
"135 493 LINE",
"46 493 LINE",
"23 376 LINE",
"111 376 LINE",
"38 0 LINE"
);
}
);
width = 327;
}
);
leftKerningGroup = f;
note = f;
rightKerningGroup = f;
unicode = 0066;
},
{
color = 1;
glyphname = g;
lastChange = "2020-06-16 10:26:24 +0000";
layers = (
{
anchors = (
{
name = bottom;
position = "{210, -254}";
},
{
name = top;
position = "{354, 493}";
}
);
layerId = "F91D9E91-C1BC-4259-B0D8-112C0CBA2B8E";
paths = (
{
closed = 1;
nodes = (
"324 -209 OFFCURVE",
"442 -103 OFFCURVE",
"470 40 CURVE SMOOTH",
"558 493 LINE",
"548 493 LINE",
"515 321 LINE",
"516 322 LINE",
"510 426 OFFCURVE",
"441 498 OFFCURVE",
"335 498 CURVE SMOOTH",
"208 498 OFFCURVE",
"89 390 OFFCURVE",
"62 253 CURVE SMOOTH",
"35 114 OFFCURVE",
"112 5 OFFCURVE",
"241 5 CURVE SMOOTH",
"345 5 OFFCURVE",
"442 77 OFFCURVE",
"488 182 CURVE",
"488 183 LINE",
"460 40 LINE SMOOTH",
"433 -97 OFFCURVE",
"320 -199 OFFCURVE",
"197 -199 CURVE SMOOTH",
"107 -199 OFFCURVE",
"43 -147 OFFCURVE",
"26 -64 CURVE",
"18 -70 LINE",
"36 -156 OFFCURVE",
"103 -209 OFFCURVE",
"196 -209 CURVE SMOOTH"
);
},
{
closed = 1;
nodes = (
"119 15 OFFCURVE",
"46 120 OFFCURVE",
"72 251 CURVE SMOOTH",
"98 384 OFFCURVE",
"211 488 OFFCURVE",
"335 488 CURVE SMOOTH",
"456 488 OFFCURVE",
"527 385 OFFCURVE",
"501 253 CURVE SMOOTH",
"475 119 OFFCURVE",
"364 15 OFFCURVE",
"241 15 CURVE SMOOTH"
);
}
);
width = 613;
},
{
anchors = (
{
name = bottom;
position = "{184, -254}";
},
{
name = top;
position = "{329, 493}";
}
);
layerId = "957254E3-B7AD-4837-9092-D4428001DE8E";
paths = (
{
closed = 1;
nodes = (
"313 -218 OFFCURVE",
"425 -144 OFFCURVE",
"456 15 CURVE SMOOTH",
"549 493 LINE",
"427 493 LINE",
"373 369 LINE",
"411 401 LINE",
"398 480 OFFCURVE",
"331 504 OFFCURVE",
"268 504 CURVE SMOOTH",
"138 504 OFFCURVE",
"45 403 OFFCURVE",
"17 259 CURVE SMOOTH",
"-11 112 OFFCURVE",
"46 17 OFFCURVE",
"177 17 CURVE SMOOTH",
"241 17 OFFCURVE",
"309 40 OFFCURVE",
"357 122 CURVE",
"331 152 LINE",
"304 15 LINE SMOOTH",
"287 -72 OFFCURVE",
"233 -86 OFFCURVE",
"192 -86 CURVE SMOOTH",
"124 -86 OFFCURVE",
"103 -48 OFFCURVE",
"88 -18 CURVE",
"-47 -110 LINE",
"-16 -163 OFFCURVE",
"37 -218 OFFCURVE",
"165 -218 CURVE SMOOTH"
);
},
{
closed = 1;
nodes = (
"178 148 OFFCURVE",
"159 193 OFFCURVE",
"171 259 CURVE SMOOTH",
"184 322 OFFCURVE",
"219 376 OFFCURVE",
"292 376 CURVE SMOOTH",
"364 376 OFFCURVE",
"376 323 OFFCURVE",
"364 260 CURVE SMOOTH",
"351 195 OFFCURVE",
"318 148 OFFCURVE",
"248 148 CURVE SMOOTH"
);
}
);
width = 558;
}
);
leftKerningGroup = c;
note = g;
rightKerningGroup = g;
unicode = 0067;
},
{
color = 1;
glyphname = h;
lastChange = "2020-06-16 10:26:24 +0000";
layers = (
{
anchors = (
{
name = bottom;
position = "{223, 0}";
},
{
name = center;
position = "{247, 608}";
},
{
name = top;
position = "{196, 697}";
}
);
layerId = "F91D9E91-C1BC-4259-B0D8-112C0CBA2B8E";
paths = (
{
closed = 1;
nodes = (
"65 0 LINE",
"116 263 LINE SMOOTH",
"145 410 OFFCURVE",
"218 488 OFFCURVE",
"328 488 CURVE SMOOTH",
"427 488 OFFCURVE",
"463 423 OFFCURVE",
"438 293 CURVE SMOOTH",
"381 0 LINE",
"391 0 LINE",
"448 295 LINE SMOOTH",
"474 429 OFFCURVE",
"433 498 OFFCURVE",
"325 498 CURVE SMOOTH",
"237 498 OFFCURVE",
"172 450 OFFCURVE",
"133 355 CURVE",
"134 355 LINE",
"201 697 LINE",
"191 697 LINE",
"55 0 LINE"
);
}
);
width = 530;
},
{
anchors = (
{
name = bottom;
position = "{251, 0}";
},
{
name = center;
position = "{255, 589}";
},
{
name = top;
position = "{222, 697}";
}
);
layerId = "957254E3-B7AD-4837-9092-D4428001DE8E";
paths = (
{
closed = 1;
nodes = (
"160 0 LINE",
"195 179 LINE SMOOTH",
"219 304 OFFCURVE",
"245 373 OFFCURVE",
"324 373 CURVE SMOOTH",
"378 373 OFFCURVE",
"398 346 OFFCURVE",
"387 290 CURVE SMOOTH",
"331 0 LINE",
"482 0 LINE",
"546 328 LINE SMOOTH",
"567 438 OFFCURVE",
"511 504 OFFCURVE",
"398 504 CURVE SMOOTH",
"322 504 OFFCURVE",
"266 477 OFFCURVE",
"221 417 CURVE",
"235 385 LINE",
"296 697 LINE",
"145 697 LINE",
"9 0 LINE"
);
}
);
width = 575;
}
);
leftKerningGroup = b;
note = h;
rightKerningGroup = h;
unicode = 0068;
},
{
color = 1;
glyphname = idotless;
lastChange = "2020-06-16 10:26:24 +0000";
layers = (
{
anchors = (
{
name = bottom;
position = "{60, 0}";
},
{
name = ogonek;
position = "{65, 0}";
},
{
name = top;
position = "{156, 493}";
}
);
layerId = "F91D9E91-C1BC-4259-B0D8-112C0CBA2B8E";
paths = (
{
closed = 1;
nodes = (
"65 0 LINE",
"161 493 LINE",
"151 493 LINE",
"55 0 LINE"
);
}
);
width = 216;
},
{
anchors = (
{
name = bottom;
position = "{84, 0}";
},
{
name = ogonek;
position = "{159, 0}";
},
{
name = top;
position = "{180, 493}";
}
);
layerId = "957254E3-B7AD-4837-9092-D4428001DE8E";
paths = (
{
closed = 1;
nodes = (
"159 0 LINE",
"255 493 LINE",
"104 493 LINE",
"8 0 LINE"
);
}
);
width = 263;
}
);
leftKerningGroup = i;
note = dotlessi;
rightKerningGroup = i;
unicode = 0131;
},
{
color = 1;
glyphname = jdotless;
lastChange = "2020-06-16 10:26:24 +0000";
layers = (
{
anchors = (
{
name = bottom;
position = "{11, -254}";
},
{
name = top;
position = "{156, 493}";
}
);
guideLines = (
{
position = "{206, -204}";
}
);
layerId = "F91D9E91-C1BC-4259-B0D8-112C0CBA2B8E";
paths = (
{
closed = 1;
nodes = (
"2 -209 OFFCURVE",
"30 -180 OFFCURVE",
"43 -114 CURVE SMOOTH",
"161 493 LINE",
"151 493 LINE",
"33 -114 LINE SMOOTH",
"21 -174 OFFCURVE",
"-4 -200 OFFCURVE",
"-45 -200 CURVE SMOOTH",
"-59 -200 OFFCURVE",
"-77 -196 OFFCURVE",
"-97 -188 CURVE",
"-100 -198 LINE",
"-79 -205 OFFCURVE",
"-60 -209 OFFCURVE",
"-44 -209 CURVE SMOOTH"
);
}
);
width = 216;
},
{
anchors = (
{
name = bottom;
position = "{36, -254}";
},
{
name = top;
position = "{181, 493}";
}
);
guideLines = (
{
position = "{204, -204}";
}
);
layerId = "957254E3-B7AD-4837-9092-D4428001DE8E";
paths = (
{
closed = 1;
nodes = (
"63 -215 OFFCURVE",
"127 -172 OFFCURVE",
"145 -78 CURVE SMOOTH",
"256 493 LINE",
"105 493 LINE",
"0 -46 LINE SMOOTH",
"-6 -80 OFFCURVE",
"-21 -84 OFFCURVE",
"-45 -84 CURVE SMOOTH",
"-56 -84 OFFCURVE",
"-70 -82 OFFCURVE",
"-84 -79 CURVE",
"-107 -199 LINE",
"-79 -209 OFFCURVE",
"-44 -215 OFFCURVE",
"-15 -215 CURVE SMOOTH"
);
}
);
width = 265;
}
);
note = uni0237;
unicode = 0237;
},
{
color = 1;
glyphname = k;
lastChange = "2020-06-16 10:26:24 +0000";
layers = (
{
anchors = (
{
name = bottom;
position = "{246, 0}";
},
{
name = top;
position = "{196, 697}";
}
);
layerId = "F91D9E91-C1BC-4259-B0D8-112C0CBA2B8E";
paths = (
{
closed = 1;
nodes = (
"65 0 LINE",
"94 147 LINE",
"281 307 LINE",
"426 0 LINE",
"438 0 LINE",
"289 315 LINE",
"497 493 LINE",
"482 493 LINE",
"96 162 LINE",
"201 697 LINE",
"191 697 LINE",
"55 0 LINE"
);
}
);
width = 520;
},
{
anchors = (
{
name = bottom;
position = "{250, 0}";
},
{
name = top;
position = "{405, 710}";
}
);
layerId = "957254E3-B7AD-4837-9092-D4428001DE8E";
paths = (
{
closed = 1;
nodes = (
"160 0 LINE",
"188 143 LINE",
"253 206 LINE",
"341 0 LINE",
"520 0 LINE",
"383 307 LINE",
"599 493 LINE",
"398 493 LINE",
"224 330 LINE",
"296 697 LINE",
"145 697 LINE",
"9 0 LINE"
);
}
);
width = 550;
}
);
leftKerningGroup = b;
note = k;
rightKerningGroup = k;
unicode = 006B;
},
{
color = 1;
glyphname = kgreenlandic;
lastChange = "2020-06-16 10:26:24 +0000";
layers = (
{
anchors = (
{
name = bottom;
position = "{212, 0}";
},
{
name = top;
position = "{308, 493}";
}
);
layerId = "F91D9E91-C1BC-4259-B0D8-112C0CBA2B8E";
paths = (
{
closed = 1;
nodes = (
"65 0 LINE",
"94 147 LINE",
"281 307 LINE",
"426 0 LINE",
"438 0 LINE",
"289 315 LINE",
"497 493 LINE",
"482 493 LINE",
"96 162 LINE",
"161 493 LINE",
"151 493 LINE",
"55 0 LINE"
);
}
);
width = 520;
},
{
anchors = (
{
name = bottom;
position = "{225, 0}";
},
{
name = top;
position = "{321, 493}";
}
);
layerId = "957254E3-B7AD-4837-9092-D4428001DE8E";
paths = (
{
closed = 1;
nodes = (
"159 0 LINE",
"187 143 LINE",
"252 206 LINE",
"340 0 LINE",
"519 0 LINE",
"385 308 LINE",
"598 493 LINE",
"403 493 LINE",
"222 323 LINE",
"255 493 LINE",
"104 493 LINE",
"8 0 LINE"
);
}
);
width = 549;
}
);
leftKerningGroup = m;
note = kgreenlandic;
rightKerningGroup = k;
unicode = 0138;
},
{
color = 1;
glyphname = l;
lastChange = "2020-06-16 10:26:24 +0000";
layers = (
{
anchors = (
{
name = bottom;
position = "{100, 0}";
},
{
name = center;
position = "{161, 417}";
},
{
name = top;
position = "{194, 697}";
},
{
name = topright;
position = "{272, 493}";
}
);
layerId = "F91D9E91-C1BC-4259-B0D8-112C0CBA2B8E";
paths = (
{
closed = 1;
nodes = (
"137 -5 OFFCURVE",
"158 -1 OFFCURVE",
"182 6 CURVE",
"181 16 LINE",
"158 8 OFFCURVE",
"138 4 OFFCURVE",
"123 4 CURVE SMOOTH",
"83 4 OFFCURVE",
"69 30 OFFCURVE",
"81 90 CURVE SMOOTH",
"199 697 LINE",
"189 697 LINE",
"71 90 LINE SMOOTH",
"58 24 OFFCURVE",
"75 -5 OFFCURVE",
"122 -5 CURVE SMOOTH"
);
}
);
width = 257;
},
{
anchors = (
{
name = bottom;
position = "{91, 0}";
},
{
name = center;
position = "{152, 364}";
},
{
name = top;
position = "{214, 697}";
},
{
name = topright;
position = "{372, 493}";
}
);
layerId = "957254E3-B7AD-4837-9092-D4428001DE8E";
paths = (
{
closed = 1;
nodes = (
"151 -11 OFFCURVE",
"182 -7 OFFCURVE",
"215 5 CURVE",
"238 123 LINE",
"225 120 OFFCURVE",
"213 119 OFFCURVE",
"205 119 CURVE SMOOTH",
"186 119 OFFCURVE",
"177 122 OFFCURVE",
"181 145 CURVE SMOOTH",
"289 697 LINE",
"138 697 LINE",
"26 125 LINE SMOOTH",
"8 30 OFFCURVE",
"57 -11 OFFCURVE",
"129 -11 CURVE SMOOTH"
);
}
);
width = 277;
}
);
leftKerningGroup = b;
note = l;
rightKerningGroup = d;
unicode = 006C;
},
{
color = 1;
glyphname = m;
lastChange = "2020-06-16 10:26:24 +0000";
layers = (
{
anchors = (
{
name = bottom;
position = "{361, 0}";
},
{
name = top;
position = "{457, 493}";
}
);
layerId = "F91D9E91-C1BC-4259-B0D8-112C0CBA2B8E";
paths = (
{
closed = 1;
nodes = (
"66 0 LINE",
"123 293 LINE SMOOTH",
"147 419 OFFCURVE",
"222 488 OFFCURVE",
"315 488 CURVE SMOOTH",
"408 488 OFFCURVE",
"444 427 OFFCURVE",
"418 293 CURVE SMOOTH",
"361 0 LINE",
"372 0 LINE",
"429 293 LINE SMOOTH",
"453 419 OFFCURVE",
"528 488 OFFCURVE",
"621 488 CURVE SMOOTH",
"731 488 OFFCURVE",
"746 403 OFFCURVE",
"723 280 CURVE SMOOTH",
"668 0 LINE",
"679 0 LINE",
"733 280 LINE SMOOTH",
"759 413 OFFCURVE",
"737 498 OFFCURVE",
"622 498 CURVE SMOOTH",
"540 498 OFFCURVE",
"472 446 OFFCURVE",
"434 350 CURVE",
"436 350 LINE",
"442 453 OFFCURVE",
"400 498 OFFCURVE",
"315 498 CURVE SMOOTH",
"239 498 OFFCURVE",
"172 454 OFFCURVE",
"135 367 CURVE",
"136 367 LINE",
"161 493 LINE",
"151 493 LINE",
"55 0 LINE"
);
}
);
width = 818;
},
{
anchors = (
{
name = bottom;
position = "{377, 0}";
},
{
name = top;
position = "{473, 493}";
}
);
layerId = "957254E3-B7AD-4837-9092-D4428001DE8E";
paths = (
{
closed = 1;
nodes = (
"160 0 LINE",
"191 159 LINE SMOOTH",
"226 339 OFFCURVE",
"246 373 OFFCURVE",
"316 373 CURVE SMOOTH",
"357 373 OFFCURVE",
"376 331 OFFCURVE",
"362 274 CURVE SMOOTH",
"309 0 LINE",
"459 0 LINE",
"490 159 LINE SMOOTH",
"525 341 OFFCURVE",
"543 373 OFFCURVE",
"611 373 CURVE SMOOTH",
"655 373 OFFCURVE",
"673 335 OFFCURVE",
"661 271 CURVE SMOOTH",
"608 0 LINE",
"759 0 LINE",
"821 318 LINE SMOOTH",
"842 426 OFFCURVE",
"783 504 OFFCURVE",
"682 504 CURVE SMOOTH",
"593 504 OFFCURVE",
"525 454 OFFCURVE",
"471 349 CURVE",
"510 341 LINE",
"514 445 OFFCURVE",
"467 504 OFFCURVE",
"381 504 CURVE SMOOTH",
"307 504 OFFCURVE",
"245 459 OFFCURVE",
"207 379 CURVE",
"224 364 LINE",
"219 493 LINE",
"104 493 LINE",
"9 0 LINE"
);
}
);
width = 850;
}
);
leftKerningGroup = m;
note = m;
rightKerningGroup = h;
unicode = 006D;
},
{
color = 1;
glyphname = n;
lastChange = "2020-06-16 10:26:24 +0000";
layers = (
{
anchors = (
{
name = bottom;
position = "{223, 0}";
},
{
name = top;
position = "{314, 493}";
}
);
layerId = "F91D9E91-C1BC-4259-B0D8-112C0CBA2B8E";
paths = (
{
closed = 1;
nodes = (
"65 0 LINE",
"116 263 LINE SMOOTH",
"146 419 OFFCURVE",
"224 488 OFFCURVE",
"328 488 CURVE SMOOTH",
"424 488 OFFCURVE",
"464 427 OFFCURVE",
"438 293 CURVE SMOOTH",
"381 0 LINE",
"391 0 LINE",
"448 295 LINE SMOOTH",
"476 438 OFFCURVE",
"427 498 OFFCURVE",
"325 498 CURVE SMOOTH",
"243 498 OFFCURVE",
"173 454 OFFCURVE",
"133 355 CURVE",
"134 355 LINE",
"161 493 LINE",
"151 493 LINE",
"55 0 LINE"
);
}
);
width = 530;
},
{
anchors = (
{
name = bottom;
position = "{234, 0}";
},
{
name = top;
position = "{330, 493}";
}
);
layerId = "957254E3-B7AD-4837-9092-D4428001DE8E";
paths = (
{
closed = 1;
nodes = (
"159 0 LINE",
"204 230 LINE SMOOTH",
"214 284 OFFCURVE",
"232 373 OFFCURVE",
"325 373 CURVE SMOOTH",
"403 373 OFFCURVE",
"390 310 OFFCURVE",
"383 272 CURVE SMOOTH",
"330 0 LINE",
"481 0 LINE",
"545 328 LINE SMOOTH",
"566 436 OFFCURVE",
"511 504 OFFCURVE",
"397 504 CURVE SMOOTH",
"335 504 OFFCURVE",
"272 487 OFFCURVE",
"220 417 CURVE",
"240 417 LINE",
"225 493 LINE",
"104 493 LINE",
"8 0 LINE"
);
}
);
width = 574;
}
);
leftKerningGroup = m;
note = n;
rightKerningGroup = h;
unicode = 006E;
},
{
color = 1;
glyphname = eng;
lastChange = "2020-06-16 10:26:24 +0000";
layers = (
{
guideLines = (
{
position = "{206, -204}";
}
);
layerId = "F91D9E91-C1BC-4259-B0D8-112C0CBA2B8E";
paths = (
{
closed = 1;
nodes = (
"328 -209 OFFCURVE",
"356 -180 OFFCURVE",
"369 -114 CURVE SMOOTH",
"455 328 LINE SMOOTH",
"476 438 OFFCURVE",
"427 498 OFFCURVE",
"325 498 CURVE SMOOTH",
"243 498 OFFCURVE",
"173 454 OFFCURVE",
"138 380 CURVE",
"139 379 LINE",
"161 493 LINE",
"151 493 LINE",
"55 0 LINE",
"65 0 LINE",
"126 313 LINE SMOOTH",
"146 419 OFFCURVE",
"225 488 OFFCURVE",
"325 488 CURVE SMOOTH",
"424 488 OFFCURVE",
"464 428 OFFCURVE",
"442 313 CURVE SMOOTH",
"359 -114 LINE SMOOTH",
"347 -174 OFFCURVE",
"322 -200 OFFCURVE",
"281 -200 CURVE SMOOTH",
"267 -200 OFFCURVE",
"249 -196 OFFCURVE",
"229 -188 CURVE",
"226 -198 LINE",
"247 -205 OFFCURVE",
"266 -209 OFFCURVE",
"282 -209 CURVE SMOOTH"
);
}
);
width = 532;
},
{
guideLines = (
{
position = "{205, -204}";
}
);
layerId = "957254E3-B7AD-4837-9092-D4428001DE8E";
paths = (
{
closed = 1;
nodes = (
"392 -215 OFFCURVE",
"450 -164 OFFCURVE",
"466 -78 CURVE SMOOTH",
"545 328 LINE SMOOTH",
"566 438 OFFCURVE",
"511 504 OFFCURVE",
"397 504 CURVE SMOOTH",
"311 504 OFFCURVE",
"246 466 OFFCURVE",
"204 392 CURVE",
"229 360 LINE",
"225 493 LINE",
"104 493 LINE",
"8 0 LINE",
"159 0 LINE",
"194 179 LINE SMOOTH",
"224 338 OFFCURVE",
"248 373 OFFCURVE",
"323 373 CURVE SMOOTH",
"370 373 OFFCURVE",
"395 341 OFFCURVE",
"386 290 CURVE SMOOTH",
"319 -57 LINE SMOOTH",
"316 -77 OFFCURVE",
"307 -84 OFFCURVE",
"286 -84 CURVE SMOOTH",
"277 -84 OFFCURVE",
"267 -83 OFFCURVE",
"254 -79 CURVE",
"230 -199 LINE",
"257 -210 OFFCURVE",
"284 -215 OFFCURVE",
"312 -215 CURVE SMOOTH"
);
}
);
width = 574;
}
);
leftKerningGroup = m;
note = eng;
rightKerningGroup = h;
unicode = 014B;
},
{
glyphname = nhookleft;
lastChange = "2020-06-16 10:26:24 +0000";
layers = (
{
layerId = "F91D9E91-C1BC-4259-B0D8-112C0CBA2B8E";
paths = (
{
closed = 1;
nodes = (
"70 0 LINE",
"125 313 LINE SMOOTH",
"143 419 OFFCURVE",
"221 488 OFFCURVE",
"320 488 CURVE SMOOTH",
"420 488 OFFCURVE",
"461 428 OFFCURVE",
"441 313 CURVE SMOOTH",
"386 0 LINE",
"396 0 LINE",
"453 328 LINE SMOOTH",
"473 438 OFFCURVE",
"422 498 OFFCURVE",
"321 498 CURVE SMOOTH",
"238 498 OFFCURVE",
"170 454 OFFCURVE",
"136 380 CURVE",
"136 379 LINE",
"156 493 LINE",
"146 493 LINE",
"60 0 LINE"
);
},
{
closed = 1;
nodes = (
"10 -209 OFFCURVE",
"38 -180 OFFCURVE",
"49 -114 CURVE SMOOTH",
"70 0 LINE",
"60 0 LINE",
"39 -114 LINE SMOOTH",
"29 -174 OFFCURVE",
"4 -200 OFFCURVE",
"-36 -200 CURVE SMOOTH",
"-51 -200 OFFCURVE",
"-69 -196 OFFCURVE",
"-89 -188 CURVE",
"-92 -198 LINE",
"-71 -205 OFFCURVE",
"-52 -209 OFFCURVE",
"-36 -209 CURVE SMOOTH"
);
}
);
width = 535;
},
{
layerId = "957254E3-B7AD-4837-9092-D4428001DE8E";
paths = (
{
closed = 1;
nodes = (
"164 0 LINE",
"195 179 LINE SMOOTH",
"206 242 OFFCURVE",
"199 373 OFFCURVE",
"320 373 CURVE SMOOTH",
"409 373 OFFCURVE",
"387 296 OFFCURVE",
"386 290 CURVE SMOOTH",
"335 0 LINE",
"486 0 LINE",
"543 328 LINE SMOOTH",
"563 441 OFFCURVE",
"503 504 OFFCURVE",
"392 504 CURVE SMOOTH",
"315 504 OFFCURVE",
"246 474 OFFCURVE",
"202 392 CURVE",
"227 360 LINE",
"250 493 LINE",
"99 493 LINE",
"13 0 LINE"
);
},
{
closed = 1;
nodes = (
"72 -215 OFFCURVE",
"133 -172 OFFCURVE",
"150 -78 CURVE SMOOTH",
"164 0 LINE",
"13 0 LINE",
"2 -57 LINE SMOOTH",
"-2 -80 OFFCURVE",
"-12 -84 OFFCURVE",
"-30 -84 CURVE SMOOTH",
"-38 -84 OFFCURVE",
"-47 -83 OFFCURVE",
"-62 -79 CURVE",
"-84 -199 LINE",
"-55 -210 OFFCURVE",
"-28 -215 OFFCURVE",
"-1 -215 CURVE SMOOTH"
);
}
);
width = 579;
}
);
leftKerningGroup = m;
rightKerningGroup = h;
rightMetricsKey = h;
unicode = 0272;
},
{
color = 1;
glyphname = o;
lastChange = "2020-06-16 10:26:24 +0000";
layers = (
{
anchors = (
{
name = bottom;
position = "{240, 0}";
},
{
name = center;
position = "{288, 247}";
},
{
name = ogonek;
position = "{285, 0}";
},
{
name = top;
position = "{336, 493}";
},
{
name = topright;
position = "{545, 390}";
}
);
layerId = "F91D9E91-C1BC-4259-B0D8-112C0CBA2B8E";
paths = (
{
closed = 1;
nodes = (
"366 -5 OFFCURVE",
"483 94 OFFCURVE",
"513 246 CURVE SMOOTH",
"543 400 OFFCURVE",
"464 498 OFFCURVE",
"335 498 CURVE SMOOTH",
"208 498 OFFCURVE",
"94 400 OFFCURVE",
"64 248 CURVE SMOOTH",
"34 93 OFFCURVE",
"110 -5 OFFCURVE",
"239 -5 CURVE SMOOTH"
);
},
{
closed = 1;
nodes = (
"118 5 OFFCURVE",
"45 99 OFFCURVE",
"74 246 CURVE SMOOTH",
"103 395 OFFCURVE",
"212 488 OFFCURVE",
"335 488 CURVE SMOOTH",
"457 488 OFFCURVE",
"532 394 OFFCURVE",
"503 248 CURVE SMOOTH",
"475 100 OFFCURVE",
"363 5 OFFCURVE",
"239 5 CURVE SMOOTH"
);
}
);
width = 577;
},
{
anchors = (
{
name = bottom;
position = "{217, 0}";
},
{
name = center;
position = "{265, 247}";
},
{
name = ogonek;
position = "{295, 0}";
},
{
name = top;
position = "{313, 493}";
},
{
name = topright;
position = "{544, 326}";
}
);
layerId = "957254E3-B7AD-4837-9092-D4428001DE8E";
paths = (
{
closed = 1;
nodes = (
"360 -11 OFFCURVE",
"490 99 OFFCURVE",
"518 247 CURVE SMOOTH",
"547 395 OFFCURVE",
"462 504 OFFCURVE",
"315 504 CURVE SMOOTH",
"168 504 OFFCURVE",
"40 396 OFFCURVE",
"11 247 CURVE SMOOTH",
"-18 98 OFFCURVE",
"69 -11 OFFCURVE",
"215 -11 CURVE SMOOTH"
);
},
{
closed = 1;
nodes = (
"178 120 OFFCURVE",
"144 175 OFFCURVE",
"160 248 CURVE SMOOTH",
"175 321 OFFCURVE",
"229 373 OFFCURVE",
"290 373 CURVE SMOOTH",
"353 373 OFFCURVE",
"385 319 OFFCURVE",
"369 244 CURVE SMOOTH",
"353 171 OFFCURVE",
"299 120 OFFCURVE",
"240 120 CURVE SMOOTH"
);
}
);
width = 529;
}
);
leftKerningGroup = c;
note = o;
rightKerningGroup = b;
unicode = 006F;
},
{
color = 1;
glyphname = oe;
lastChange = "2020-06-16 10:26:24 +0000";
layers = (
{
anchors = (
{
name = bottom;
position = "{436.085, 0}";
},
{
name = top;
position = "{531.915, 493}";
}
);
components = (
{
name = e;
transform = "{1, 0, 0, 1, 439, 0}";
}
);
layerId = "F91D9E91-C1BC-4259-B0D8-112C0CBA2B8E";
paths = (
{
closed = 1;
nodes = (
"366 -5 OFFCURVE",
"483 94 OFFCURVE",
"513 246 CURVE SMOOTH",
"543 400 OFFCURVE",
"464 498 OFFCURVE",
"335 498 CURVE SMOOTH",
"208 498 OFFCURVE",
"94 400 OFFCURVE",
"64 248 CURVE SMOOTH",
"34 93 OFFCURVE",
"110 -5 OFFCURVE",
"239 -5 CURVE SMOOTH"
);
},
{
closed = 1;
nodes = (
"118 5 OFFCURVE",
"45 99 OFFCURVE",
"74 246 CURVE SMOOTH",
"103 395 OFFCURVE",
"212 488 OFFCURVE",
"335 488 CURVE SMOOTH",
"457 488 OFFCURVE",
"532 394 OFFCURVE",
"503 248 CURVE SMOOTH",
"475 100 OFFCURVE",
"363 5 OFFCURVE",
"239 5 CURVE SMOOTH"
);
}
);
width = 957;
},
{
anchors = (
{
name = bottom;
position = "{372.085, 0}";
},
{
name = top;
position = "{467.915, 493}";
}
);
components = (
{
name = e;
transform = "{1, 0, 0, 1, 356, 0}";
}
);
layerId = "957254E3-B7AD-4837-9092-D4428001DE8E";
paths = (
{
closed = 1;
nodes = (
"373 -11 OFFCURVE",
"492 112 OFFCURVE",
"518 247 CURVE SMOOTH",
"545 383 OFFCURVE",
"474 504 OFFCURVE",
"315 504 CURVE SMOOTH",
"154 504 OFFCURVE",
"37 382 OFFCURVE",
"11 247 CURVE SMOOTH",
"-15 112 OFFCURVE",
"55 -11 OFFCURVE",
"215 -11 CURVE SMOOTH"
);
},
{
closed = 1;
nodes = (
"157 120 OFFCURVE",
"150 187 OFFCURVE",
"162 247 CURVE SMOOTH",
"174 310 OFFCURVE",
"208 373 OFFCURVE",
"290 373 CURVE SMOOTH",
"372 373 OFFCURVE",
"379 309 OFFCURVE",
"367 247 CURVE SMOOTH",
"355 185 OFFCURVE",
"321 120 OFFCURVE",
"240 120 CURVE SMOOTH"
);
}
);
width = 848;
}
);
leftKerningGroup = c;
leftMetricsKey = o;
note = oe;
rightKerningGroup = e;
rightMetricsKey = e;
unicode = 0153;
},
{
color = 1;
glyphname = p;
lastChange = "2020-06-16 10:26:24 +0000";
layers = (
{
anchors = (
{
name = bottom;
position = "{250, 0}";
},
{
name = top;
position = "{346, 493}";
}
);
guideLines = (
{
position = "{205, -204}";
}
);
layerId = "F91D9E91-C1BC-4259-B0D8-112C0CBA2B8E";
paths = (
{
closed = 1;
nodes = (
"24 -204 LINE",
"97 172 LINE",
"96 171 LINE",
"102 67 OFFCURVE",
"171 -5 OFFCURVE",
"277 -5 CURVE SMOOTH",
"405 -5 OFFCURVE",
"503 103 OFFCURVE",
"531 244 CURVE SMOOTH",
"559 389 OFFCURVE",
"503 498 OFFCURVE",
"373 498 CURVE SMOOTH",
"269 498 OFFCURVE",
"172 426 OFFCURVE",
"125 321 CURVE",
"126 320 LINE",
"160 493 LINE",
"150 493 LINE",
"14 -204 LINE"
);
},
{
closed = 1;
nodes = (
"156 5 OFFCURVE",
"85 108 OFFCURVE",
"112 244 CURVE SMOOTH",
"139 384 OFFCURVE",
"250 488 OFFCURVE",
"373 488 CURVE SMOOTH",
"496 488 OFFCURVE",
"548 383 OFFCURVE",
"521 246 CURVE SMOOTH",
"494 109 OFFCURVE",
"402 5 OFFCURVE",
"277 5 CURVE SMOOTH"
);
}
);
width = 596;
},
{
anchors = (
{
name = bottom;
position = "{228, 0}";
},
{
name = top;
position = "{324, 493}";
}
);
guideLines = (
{
position = "{94, -204}";
}
);
layerId = "957254E3-B7AD-4837-9092-D4428001DE8E";
paths = (
{
closed = 1;
nodes = (
"117 -204 LINE",
"181 124 LINE",
"148 82 LINE",
"152 27 OFFCURVE",
"219 -11 OFFCURVE",
"285 -11 CURVE SMOOTH",
"392 -11 OFFCURVE",
"503 76 OFFCURVE",
"536 245 CURVE SMOOTH",
"564 390 OFFCURVE",
"517 504 OFFCURVE",
"385 504 CURVE SMOOTH",
"325 504 OFFCURVE",
"244 479 OFFCURVE",
"206 405 CURVE",
"230 371 LINE",
"224 493 LINE",
"103 493 LINE",
"-33 -204 LINE"
);
},
{
closed = 1;
nodes = (
"204 130 OFFCURVE",
"177 171 OFFCURVE",
"192 245 CURVE SMOOTH",
"206 321 OFFCURVE",
"251 366 OFFCURVE",
"312 366 CURVE SMOOTH",
"373 366 OFFCURVE",
"401 322 OFFCURVE",
"386 245 CURVE SMOOTH",
"371 170 OFFCURVE",
"330 130 OFFCURVE",
"267 130 CURVE SMOOTH"
);
}
);
width = 554;
}
);
leftKerningGroup = m;
note = p;
rightKerningGroup = b;
unicode = 0070;
},
{
color = 1;
glyphname = thorn;
lastChange = "2020-06-16 10:26:24 +0000";
layers = (
{
anchors = (
{
name = bottom;
position = "{251, 0}";
},
{
name = top;
position = "{347, 493}";
}
);
guideLines = (
{
position = "{205, -204}";
}
);
layerId = "F91D9E91-C1BC-4259-B0D8-112C0CBA2B8E";
paths = (
{
closed = 1;
nodes = (
"25 -204 LINE",
"98 172 LINE",
"97 171 LINE",
"103 67 OFFCURVE",
"172 -5 OFFCURVE",
"278 -5 CURVE SMOOTH",
"406 -5 OFFCURVE",
"504 103 OFFCURVE",
"532 244 CURVE SMOOTH",
"560 389 OFFCURVE",
"504 498 OFFCURVE",
"374 498 CURVE SMOOTH",
"270 498 OFFCURVE",
"173 426 OFFCURVE",
"126 321 CURVE",
"127 320 LINE",
"201 697 LINE",
"191 697 LINE",
"15 -204 LINE"
);
},
{
closed = 1;
nodes = (
"157 5 OFFCURVE",
"86 108 OFFCURVE",
"113 244 CURVE SMOOTH",
"140 384 OFFCURVE",
"251 488 OFFCURVE",
"374 488 CURVE SMOOTH",
"497 488 OFFCURVE",
"549 383 OFFCURVE",
"522 246 CURVE SMOOTH",
"495 109 OFFCURVE",
"403 5 OFFCURVE",
"278 5 CURVE SMOOTH"
);
}
);
width = 597;
},
{
anchors = (
{
name = bottom;
position = "{227, 0}";
},
{
name = top;
position = "{323, 493}";
}
);
guideLines = (
{
position = "{204, -204}";
}
);
layerId = "957254E3-B7AD-4837-9092-D4428001DE8E";
paths = (
{
closed = 1;
nodes = (
"119 -204 LINE",
"183 124 LINE",
"149 82 LINE",
"153 27 OFFCURVE",
"220 -11 OFFCURVE",
"286 -11 CURVE SMOOTH",
"393 -11 OFFCURVE",
"504 76 OFFCURVE",
"537 245 CURVE SMOOTH",
"565 390 OFFCURVE",
"518 504 OFFCURVE",
"386 504 CURVE SMOOTH",
"326 504 OFFCURVE",
"245 479 OFFCURVE",
"207 405 CURVE",
"231 371 LINE",
"295 697 LINE",
"144 697 LINE",
"-32 -204 LINE"
);
},
{
closed = 1;
nodes = (
"194 120 OFFCURVE",
"179 177 OFFCURVE",
"193 247 CURVE SMOOTH",
"207 317 OFFCURVE",
"240 372 OFFCURVE",
"320 372 CURVE SMOOTH",
"387 372 OFFCURVE",
"404 332 OFFCURVE",
"387 247 CURVE SMOOTH",
"370 161 OFFCURVE",
"334 120 OFFCURVE",
"269 120 CURVE SMOOTH"
);
}
);
width = 555;
}
);
leftKerningGroup = b;
note = thorn;
rightKerningGroup = b;
unicode = 00FE;
},
{
color = 1;
glyphname = q;
lastChange = "2020-06-16 10:26:24 +0000";
layers = (
{
anchors = (
{
name = bottom;
position = "{251, 0}";
},
{
name = top;
position = "{347, 493}";
}
);
guideLines = (
{
position = "{206, -204}";
}
);
layerId = "F91D9E91-C1BC-4259-B0D8-112C0CBA2B8E";
paths = (
{
closed = 1;
nodes = (
"407 -204 LINE",
"543 493 LINE",
"533 493 LINE",
"499 320 LINE",
"500 321 LINE",
"495 426 OFFCURVE",
"426 498 OFFCURVE",
"320 498 CURVE SMOOTH",
"192 498 OFFCURVE",
"94 389 OFFCURVE",
"66 246 CURVE SMOOTH",
"38 103 OFFCURVE",
"94 -5 OFFCURVE",
"224 -5 CURVE SMOOTH",
"328 -5 OFFCURVE",
"425 67 OFFCURVE",
"471 171 CURVE",
"470 172 LINE",
"397 -204 LINE"
);
},
{
closed = 1;
nodes = (
"101 5 OFFCURVE",
"49 109 OFFCURVE",
"76 244 CURVE SMOOTH",
"102 383 OFFCURVE",
"195 488 OFFCURVE",
"320 488 CURVE SMOOTH",
"441 488 OFFCURVE",
"512 384 OFFCURVE",
"485 246 CURVE SMOOTH",
"458 108 OFFCURVE",
"347 5 OFFCURVE",
"224 5 CURVE SMOOTH"
);
}
);
width = 598;
},
{
anchors = (
{
name = bottom;
position = "{230, 0}";
},
{
name = top;
position = "{326, 493}";
}
);
guideLines = (
{
position = "{98, -204}";
}
);
layerId = "957254E3-B7AD-4837-9092-D4428001DE8E";
paths = (
{
closed = 1;
nodes = (
"411 -204 LINE",
"547 493 LINE",
"426 493 LINE",
"372 371 LINE",
"410 405 LINE",
"400 479 OFFCURVE",
"329 504 OFFCURVE",
"269 504 CURVE SMOOTH",
"137 504 OFFCURVE",
"46 390 OFFCURVE",
"18 245 CURVE SMOOTH",
"-15 76 OFFCURVE",
"62 -11 OFFCURVE",
"169 -11 CURVE SMOOTH",
"235 -11 OFFCURVE",
"316 27 OFFCURVE",
"342 82 CURVE",
"325 124 LINE",
"261 -204 LINE"
);
},
{
closed = 1;
nodes = (
"178 130 OFFCURVE",
"153 170 OFFCURVE",
"168 245 CURVE SMOOTH",
"183 322 OFFCURVE",
"227 366 OFFCURVE",
"288 366 CURVE SMOOTH",
"349 366 OFFCURVE",
"376 321 OFFCURVE",
"362 245 CURVE SMOOTH",
"347 171 OFFCURVE",
"304 130 OFFCURVE",
"241 130 CURVE SMOOTH"
);
}
);
width = 555;
}
);
leftKerningGroup = c;
note = q;
rightKerningGroup = i;
unicode = 0071;
},
{
color = 1;
glyphname = r;
lastChange = "2020-06-16 10:26:24 +0000";
layers = (
{
anchors = (
{
name = bottom;
position = "{60, 0}";
},
{
name = top;
position = "{237, 493}";
}
);
layerId = "F91D9E91-C1BC-4259-B0D8-112C0CBA2B8E";
paths = (
{
closed = 1;
nodes = (
"65 0 LINE",
"122 295 LINE SMOOTH",
"150 437 OFFCURVE",
"257 488 OFFCURVE",
"333 488 CURVE SMOOTH",
"352 488 OFFCURVE",
"372 484 OFFCURVE",
"388 477 CURVE",
"395 486 LINE",
"377 494 OFFCURVE",
"356 498 OFFCURVE",
"333 498 CURVE SMOOTH",
"270 498 OFFCURVE",
"181 461 OFFCURVE",
"135 365 CURVE",
"136 365 LINE",
"161 493 LINE",
"151 493 LINE",
"55 0 LINE"
);
}
);
width = 376;
},
{
anchors = (
{
name = bottom;
position = "{84, 0}";
},
{
name = top;
position = "{250, 493}";
}
);
layerId = "957254E3-B7AD-4837-9092-D4428001DE8E";
paths = (
{
closed = 1;
nodes = (
"159 0 LINE",
"204 229 LINE SMOOTH",
"221 316 OFFCURVE",
"263 354 OFFCURVE",
"316 354 CURVE SMOOTH",
"340 354 OFFCURVE",
"364 345 OFFCURVE",
"376 336 CURVE",
"475 472 LINE",
"444 495 OFFCURVE",
"416 504 OFFCURVE",
"382 504 CURVE SMOOTH",
"311 504 OFFCURVE",
"235 442 OFFCURVE",
"217 358 CURVE",
"230 358 LINE",
"256 493 LINE",
"104 493 LINE",
"8 0 LINE"
);
}
);
width = 407;
}
);
leftKerningGroup = m;
note = r;
rightKerningGroup = r;
unicode = 0072;
},
{
color = 1;
glyphname = s;
lastChange = "2020-06-16 10:26:24 +0000";
layers = (
{
anchors = (
{
name = bottom;
position = "{183, 0}";
},
{
name = top;
position = "{279, 493}";
}
);
layerId = "F91D9E91-C1BC-4259-B0D8-112C0CBA2B8E";
paths = (
{
closed = 1;
nodes = (
"295 -5 OFFCURVE",
"366 46 OFFCURVE",
"382 126 CURVE SMOOTH",
"402 229 OFFCURVE",
"316 249 OFFCURVE",
"235 269 CURVE SMOOTH",
"161 287 OFFCURVE",
"91 304 OFFCURVE",
"106 380 CURVE SMOOTH",
"120 453 OFFCURVE",
"193 488 OFFCURVE",
"272 488 CURVE SMOOTH",
"348 488 OFFCURVE",
"386 454 OFFCURVE",
"405 395 CURVE",
"413 399 LINE",
"395 463 OFFCURVE",
"353 498 OFFCURVE",
"272 498 CURVE SMOOTH",
"189 498 OFFCURVE",
"111 459 OFFCURVE",
"96 382 CURVE SMOOTH",
"80 297 OFFCURVE",
"155 279 OFFCURVE",
"231 260 CURVE SMOOTH",
"310 240 OFFCURVE",
"390 221 OFFCURVE",
"372 128 CURVE SMOOTH",
"357 50 OFFCURVE",
"288 5 OFFCURVE",
"198 5 CURVE SMOOTH",
"109 5 OFFCURVE",
"50 51 OFFCURVE",
"39 120 CURVE",
"29 116 LINE",
"40 42 OFFCURVE",
"104 -5 OFFCURVE",
"198 -5 CURVE SMOOTH"
);
}
);
width = 461;
},
{
anchors = (
{
name = bottom;
position = "{177, 0}";
},
{
name = top;
position = "{273, 493}";
}
);
layerId = "957254E3-B7AD-4837-9092-D4428001DE8E";
paths = (
{
closed = 1;
nodes = (
"294 -11 OFFCURVE",
"393 59 OFFCURVE",
"413 162 CURVE SMOOTH",
"436 280 OFFCURVE",
"332 307 OFFCURVE",
"257 326 CURVE SMOOTH",
"217 337 OFFCURVE",
"185 345 OFFCURVE",
"189 365 CURVE SMOOTH",
"192 380 OFFCURVE",
"212 393 OFFCURVE",
"244 393 CURVE SMOOTH",
"282 393 OFFCURVE",
"309 374 OFFCURVE",
"331 338 CURVE",
"442 415 LINE",
"415 460 OFFCURVE",
"366 504 OFFCURVE",
"270 504 CURVE SMOOTH",
"176 504 OFFCURVE",
"67 461 OFFCURVE",
"45 351 CURVE SMOOTH",
"24 242 OFFCURVE",
"118 213 OFFCURVE",
"189 192 CURVE SMOOTH",
"232 179 OFFCURVE",
"266 169 OFFCURVE",
"261 145 CURVE SMOOTH",
"258 127 OFFCURVE",
"232 109 OFFCURVE",
"192 109 CURVE SMOOTH",
"134 109 OFFCURVE",
"108 148 OFFCURVE",
"90 176 CURVE",
"-29 86 LINE",
"-1 50 OFFCURVE",
"52 -11 OFFCURVE",
"168 -11 CURVE SMOOTH"
);
}
);
width = 439;
}
);
leftKerningGroup = s;
note = s;
rightKerningGroup = s;
unicode = 0073;
},
{
color = 1;
glyphname = germandbls;
lastChange = "2020-06-16 10:26:24 +0000";
layers = (
{
layerId = "F91D9E91-C1BC-4259-B0D8-112C0CBA2B8E";
paths = (
{
closed = 1;
nodes = (
"459 -5 OFFCURVE",
"541 57 OFFCURVE",
"541 154 CURVE SMOOTH",
"541 232 OFFCURVE",
"466 249 OFFCURVE",
"393 266 CURVE SMOOTH",
"325 281 OFFCURVE",
"260 296 OFFCURVE",
"260 359 CURVE SMOOTH",
"260 451 OFFCURVE",
"327 477 OFFCURVE",
"411 497 CURVE SMOOTH",
"475 510 OFFCURVE",
"535 528 OFFCURVE",
"535 599 CURVE SMOOTH",
"535 659 OFFCURVE",
"473 707 OFFCURVE",
"380 707 CURVE SMOOTH",
"214 707 OFFCURVE",
"168 583 OFFCURVE",
"146 466 CURVE SMOOTH",
"55 0 LINE",
"65 0 LINE",
"156 466 LINE SMOOTH",
"178 579 OFFCURVE",
"220 697 OFFCURVE",
"379 697 CURVE SMOOTH",
"465 697 OFFCURVE",
"525 654 OFFCURVE",
"525 600 CURVE SMOOTH",
"525 534 OFFCURVE",
"470 519 OFFCURVE",
"406 504 CURVE SMOOTH",
"321 486 OFFCURVE",
"250 457 OFFCURVE",
"250 359 CURVE SMOOTH",
"250 289 OFFCURVE",
"320 273 OFFCURVE",
"390 256 CURVE SMOOTH",
"461 240 OFFCURVE",
"531 224 OFFCURVE",
"531 153 CURVE SMOOTH",
"531 65 OFFCURVE",
"456 5 OFFCURVE",
"354 5 CURVE SMOOTH",
"269 5 OFFCURVE",
"206 51 OFFCURVE",
"195 120 CURVE",
"185 116 LINE",
"196 42 OFFCURVE",
"263 -5 OFFCURVE",
"354 -5 CURVE SMOOTH"
);
}
);
width = 608;
},
{
layerId = "957254E3-B7AD-4837-9092-D4428001DE8E";
paths = (
{
closed = 1;
nodes = (
"507 -11 OFFCURVE",
"624 70 OFFCURVE",
"624 197 CURVE SMOOTH",
"624 294 OFFCURVE",
"531 314 OFFCURVE",
"474 326 CURVE SMOOTH",
"449 331 OFFCURVE",
"430 335 OFFCURVE",
"430 344 CURVE SMOOTH",
"430 352 OFFCURVE",
"450 360 OFFCURVE",
"478 371 CURVE SMOOTH",
"543 397 OFFCURVE",
"651 440 OFFCURVE",
"651 538 CURVE SMOOTH",
"651 655 OFFCURVE",
"554 707 OFFCURVE",
"425 707 CURVE SMOOTH",
"199 707 OFFCURVE",
"118 571 OFFCURVE",
"75 350 CURVE SMOOTH",
"7 0 LINE",
"164 0 LINE",
"237 373 LINE SMOOTH",
"269 539 OFFCURVE",
"356 576 OFFCURVE",
"422 576 CURVE SMOOTH",
"467 576 OFFCURVE",
"502 563 OFFCURVE",
"502 533 CURVE SMOOTH",
"502 512 OFFCURVE",
"470 497 OFFCURVE",
"431 480 CURVE SMOOTH",
"366 450 OFFCURVE",
"279 411 OFFCURVE",
"279 314 CURVE SMOOTH",
"279 236 OFFCURVE",
"350 212 OFFCURVE",
"406 194 CURVE SMOOTH",
"441 182 OFFCURVE",
"470 172 OFFCURVE",
"470 152 CURVE SMOOTH",
"470 135 OFFCURVE",
"452 114 OFFCURVE",
"408 114 CURVE SMOOTH",
"344 114 OFFCURVE",
"338 158 OFFCURVE",
"333 185 CURVE",
"203 132 LINE",
"211 56 OFFCURVE",
"278 -11 OFFCURVE",
"386 -11 CURVE SMOOTH"
);
}
);
width = 643;
}
);
leftKerningGroup = germandbls;
rightKerningGroup = germandbls;
unicode = 00DF;
},
{
color = 1;
glyphname = t;
lastChange = "2020-06-16 10:26:24 +0000";
layers = (
{
anchors = (
{
name = bottom;
position = "{112, 0}";
},
{
name = center;
position = "{134, 247}";
},
{
name = top;
position = "{188, 493}";
},
{
name = topright;
position = "{326, 579}";
}
);
layerId = "F91D9E91-C1BC-4259-B0D8-112C0CBA2B8E";
paths = (
{
closed = 1;
nodes = (
"150 -5 OFFCURVE",
"171 -1 OFFCURVE",
"195 6 CURVE",
"194 16 LINE",
"171 8 OFFCURVE",
"151 4 OFFCURVE",
"136 4 CURVE SMOOTH",
"96 4 OFFCURVE",
"82 30 OFFCURVE",
"94 90 CURVE SMOOTH",
"206 667 LINE",
"194 657 LINE",
"84 90 LINE SMOOTH",
"71 24 OFFCURVE",
"88 -5 OFFCURVE",
"135 -5 CURVE SMOOTH"
);
},
{
closed = 1;
nodes = (
"285 483 LINE",
"287 493 LINE",
"78 493 LINE",
"76 483 LINE"
);
}
);
width = 282;
},
{
anchors = (
{
name = bottom;
position = "{182, 0}";
},
{
name = center;
position = "{177, 248}";
},
{
name = top;
position = "{238, 493}";
},
{
name = topright;
position = "{429, 582}";
}
);
layerId = "957254E3-B7AD-4837-9092-D4428001DE8E";
paths = (
{
closed = 1;
nodes = (
"238 -11 OFFCURVE",
"271 -6 OFFCURVE",
"305 5 CURVE",
"329 122 LINE",
"305 115 OFFCURVE",
"283 111 OFFCURVE",
"263 111 CURVE SMOOTH",
"201 111 OFFCURVE",
"208 152 OFFCURVE",
"212 171 CURVE SMOOTH",
"315 697 LINE",
"149 615 LINE",
"60 157 LINE SMOOTH",
"36 31 OFFCURVE",
"110 -11 OFFCURVE",
"203 -11 CURVE SMOOTH"
);
},
{
closed = 1;
nodes = (
"378 376 LINE",
"401 493 LINE",
"46 493 LINE",
"23 376 LINE"
);
}
);
width = 378;
}
);
leftKerningGroup = t;
note = t;
rightKerningGroup = t;
unicode = 0074;
},
{
color = 1;
glyphname = u;
lastChange = "2020-06-16 10:26:24 +0000";
layers = (
{
anchors = (
{
name = bottom;
position = "{217, 0}";
},
{
name = ogonek;
position = "{379, 0}";
},
{
name = top;
position = "{307, 493}";
},
{
name = topright;
position = "{521, 475}";
}
);
layerId = "F91D9E91-C1BC-4259-B0D8-112C0CBA2B8E";
paths = (
{
closed = 1;
nodes = (
"287 -5 OFFCURVE",
"357 39 OFFCURVE",
"397 138 CURVE",
"396 138 LINE",
"369 0 LINE",
"379 0 LINE",
"475 493 LINE",
"465 493 LINE",
"414 230 LINE SMOOTH",
"384 74 OFFCURVE",
"306 5 OFFCURVE",
"202 5 CURVE SMOOTH",
"106 5 OFFCURVE",
"66 66 OFFCURVE",
"92 200 CURVE SMOOTH",
"149 493 LINE",
"139 493 LINE",
"82 198 LINE SMOOTH",
"54 55 OFFCURVE",
"103 -5 OFFCURVE",
"205 -5 CURVE SMOOTH"
);
}
);
width = 530;
},
{
anchors = (
{
name = bottom;
position = "{237, 0}";
},
{
name = ogonek;
position = "{468, 0}";
},
{
name = top;
position = "{327, 493}";
},
{
name = topright;
position = "{529, 396}";
}
);
layerId = "957254E3-B7AD-4837-9092-D4428001DE8E";
paths = (
{
closed = 1;
nodes = (
"241 -11 OFFCURVE",
"303 13 OFFCURVE",
"352 76 CURVE",
"338 108 LINE",
"347 0 LINE",
"468 0 LINE",
"564 493 LINE",
"413 493 LINE",
"381 330 LINE SMOOTH",
"358 213 OFFCURVE",
"340 120 OFFCURVE",
"249 120 CURVE SMOOTH",
"176 120 OFFCURVE",
"179 171 OFFCURVE",
"189 219 CURVE SMOOTH",
"242 493 LINE",
"91 493 LINE",
"32 188 LINE SMOOTH",
"9 72 OFFCURVE",
"47 -11 OFFCURVE",
"178 -11 CURVE SMOOTH"
);
}
);
width = 572;
}
);
leftKerningGroup = u;
note = u;
rightKerningGroup = u;
unicode = 0075;
},
{
color = 1;
glyphname = v;
lastChange = "2020-06-16 10:26:24 +0000";
layers = (
{
anchors = (
{
name = bottom;
position = "{198, 0}";
},
{
name = top;
position = "{294, 493}";
}
);
layerId = "F91D9E91-C1BC-4259-B0D8-112C0CBA2B8E";
paths = (
{
closed = 1;
nodes = (
"204 0 LINE",
"502 493 LINE",
"489 493 LINE",
"199 10 LINE",
"97 493 LINE",
"85 493 LINE",
"191 0 LINE"
);
}
);
width = 491;
},
{
anchors = (
{
name = bottom;
position = "{196, 0}";
},
{
name = top;
position = "{292, 493}";
}
);
layerId = "957254E3-B7AD-4837-9092-D4428001DE8E";
paths = (
{
closed = 1;
nodes = (
"257 0 LINE",
"553 493 LINE",
"391 493 LINE",
"233 197 LINE",
"194 493 LINE",
"29 493 LINE",
"134 0 LINE"
);
}
);
width = 486;
}
);
leftKerningGroup = v;
note = v;
rightKerningGroup = v;
unicode = 0076;
},
{
color = 1;
glyphname = w;
lastChange = "2020-06-16 10:26:24 +0000";
layers = (
{
anchors = (
{
name = bottom;
position = "{321, 0}";
},
{
name = top;
position = "{417, 493}";
}
);
layerId = "F91D9E91-C1BC-4259-B0D8-112C0CBA2B8E";
paths = (
{
closed = 1;
nodes = (
"149 0 LINE",
"416 483 LINE",
"493 0 LINE",
"509 0 LINE",
"740 493 LINE",
"729 493 LINE",
"503 12 LINE",
"426 493 LINE",
"410 493 LINE",
"144 12 LINE",
"106 493 LINE",
"94 493 LINE",
"134 0 LINE"
);
}
);
width = 738;
},
{
anchors = (
{
name = bottom;
position = "{308, 0}";
},
{
name = top;
position = "{404, 493}";
}
);
layerId = "957254E3-B7AD-4837-9092-D4428001DE8E";
paths = (
{
closed = 1;
nodes = (
"232 0 LINE",
"361 278 LINE",
"384 0 LINE",
"517 0 LINE",
"770 493 LINE",
"609 493 LINE",
"487 234 LINE",
"466 493 LINE",
"339 493 LINE",
"217 232 LINE",
"197 493 LINE",
"37 493 LINE",
"97 0 LINE"
);
}
);
width = 710;
}
);
leftKerningGroup = w;
note = w;
rightKerningGroup = w;
unicode = 0077;
},
{
color = 1;
glyphname = x;
lastChange = "2020-06-16 10:26:24 +0000";
layers = (
{
anchors = (
{
name = bottom;
position = "{192, 0}";
},
{
name = top;
position = "{288, 493}";
}
);
layerId = "F91D9E91-C1BC-4259-B0D8-112C0CBA2B8E";
paths = (
{
closed = 1;
nodes = (
"7 0 LINE",
"239 238 LINE",
"379 0 LINE",
"392 0 LINE",
"246 246 LINE",
"487 493 LINE",
"474 493 LINE",
"241 255 LINE",
"102 493 LINE",
"89 493 LINE",
"234 246 LINE",
"-7 0 LINE"
);
}
);
width = 480;
},
{
anchors = (
{
name = bottom;
position = "{206, 0}";
},
{
name = top;
position = "{302, 493}";
}
);
layerId = "957254E3-B7AD-4837-9092-D4428001DE8E";
paths = (
{
closed = 1;
nodes = (
"127 0 LINE",
"234 146 LINE",
"284 0 LINE",
"469 0 LINE",
"353 249 LINE",
"565 493 LINE",
"380 493 LINE",
"274 351 LINE",
"224 493 LINE",
"39 493 LINE",
"153 249 LINE",
"-57 0 LINE"
);
}
);
width = 507;
}
);
leftKerningGroup = x;
note = x;
rightKerningGroup = x;
unicode = 0078;
},
{
color = 1;
glyphname = y;
lastChange = "2020-06-16 10:26:24 +0000";
layers = (
{
anchors = (
{
name = bottom;
position = "{342, -30}";
},
{
name = top;
position = "{295, 493}";
}
);
guideLines = (
{
position = "{206, -204}";
}
);
layerId = "F91D9E91-C1BC-4259-B0D8-112C0CBA2B8E";
paths = (
{
closed = 1;
nodes = (
"111 -204 LINE",
"503 493 LINE",
"492 493 LINE",
"223 14 LINE",
"94 493 LINE",
"83 493 LINE",
"214 -1 LINE",
"99 -204 LINE"
);
}
);
width = 494;
},
{
anchors = (
{
name = bottom;
position = "{358, -31}";
},
{
name = top;
position = "{301, 493}";
}
);
guideLines = (
{
position = "{99, -204}";
}
);
layerId = "957254E3-B7AD-4837-9092-D4428001DE8E";
paths = (
{
closed = 1;
nodes = (
"149 -204 LINE",
"571 493 LINE",
"406 493 LINE",
"235 189 LINE",
"196 493 LINE",
"30 493 LINE",
"120 17 LINE",
"-14 -204 LINE"
);
}
);
width = 503;
}
);
leftKerningGroup = y;
note = y;
rightKerningGroup = y;
unicode = 0079;
},
{
color = 1;
glyphname = z;
lastChange = "2020-06-16 10:26:24 +0000";
layers = (
{
anchors = (
{
name = bottom;
position = "{185, 0}";
},
{
name = center;
position = "{233, 247}";
},
{
name = top;
position = "{281, 493}";
}
);
layerId = "F91D9E91-C1BC-4259-B0D8-112C0CBA2B8E";
paths = (
{
closed = 1;
nodes = (
"371 0 LINE",
"373 10 LINE",
"3 10 LINE",
"4 12 LINE",
"468 474 LINE",
"472 493 LINE",
"106 493 LINE",
"104 483 LINE",
"460 483 LINE",
"459 478 LINE",
"-7 16 LINE",
"-10 0 LINE"
);
}
);
width = 466;
},
{
anchors = (
{
name = bottom;
position = "{182, 0}";
},
{
name = center;
position = "{230, 247}";
},
{
name = top;
position = "{278, 493}";
}
);
layerId = "957254E3-B7AD-4837-9092-D4428001DE8E";
paths = (
{
closed = 1;
nodes = (
"385 0 LINE",
"410 126 LINE",
"140 126 LINE",
"150 76 LINE",
"460 388 LINE",
"480 493 LINE",
"79 493 LINE",
"54 367 LINE",
"318 367 LINE",
"308 409 LINE",
"-8 98 LINE",
"-27 0 LINE"
);
}
);
width = 460;
}
);
leftKerningGroup = z;
note = z;
rightKerningGroup = z;
unicode = 007A;
},
{
color = 1;
glyphname = g.ss02;
lastChange = "2020-06-16 10:26:24 +0000";
layers = (
{
anchors = (
{
name = bottom;
position = "{160, -254}";
},
{
name = top;
position = "{305, 493}";
}
);
guideLines = (
{
position = "{208, -204}";
}
);
layerId = "F91D9E91-C1BC-4259-B0D8-112C0CBA2B8E";
paths = (
{
closed = 1;
nodes = (
"307 -209 OFFCURVE",
"391 -158 OFFCURVE",
"409 -69 CURVE SMOOTH",
"421 -5 OFFCURVE",
"403 55 OFFCURVE",
"295 55 CURVE SMOOTH",
"179 55 LINE SMOOTH",
"93 55 OFFCURVE",
"64 85 OFFCURVE",
"70 128 CURVE SMOOTH",
"75 164 OFFCURVE",
"94 189 OFFCURVE",
"135 222 CURVE",
"130 230 LINE",
"87 196 OFFCURVE",
"66 167 OFFCURVE",
"60 130 CURVE SMOOTH",
"53 77 OFFCURVE",
"87 46 OFFCURVE",
"175 46 CURVE SMOOTH",
"293 46 LINE SMOOTH",
"398 46 OFFCURVE",
"410 -12 OFFCURVE",
"399 -67 CURVE SMOOTH",
"380 -164 OFFCURVE",
"288 -199 OFFCURVE",
"192 -199 CURVE SMOOTH",
"52 -199 OFFCURVE",
"-6 -142 OFFCURVE",
"12 -49 CURVE SMOOTH",
"16 -32 LINE",
"119 55 LINE",
"111 61 LINE",
"8 -28 LINE",
"5 -36 OFFCURVE",
"4 -44 OFFCURVE",
"3 -48 CURVE SMOOTH",
"-17 -148 OFFCURVE",
"46 -209 OFFCURVE",
"191 -209 CURVE SMOOTH"
);
},
{
closed = 1;
nodes = (
"336 184 OFFCURVE",
"416 246 OFFCURVE",
"434 337 CURVE SMOOTH",
"452 432 OFFCURVE",
"397 498 OFFCURVE",
"300 498 CURVE SMOOTH",
"203 498 OFFCURVE",
"120 432 OFFCURVE",
"102 340 CURVE SMOOTH",
"84 247 OFFCURVE",
"141 184 OFFCURVE",
"240 184 CURVE SMOOTH"
);
},
{
closed = 1;
nodes = (
"147 194 OFFCURVE",
"95 254 OFFCURVE",
"112 338 CURVE SMOOTH",
"129 426 OFFCURVE",
"207 488 OFFCURVE",
"300 488 CURVE SMOOTH",
"390 488 OFFCURVE",
"441 427 OFFCURVE",
"424 339 CURVE SMOOTH",
"407 253 OFFCURVE",
"332 194 OFFCURVE",
"240 194 CURVE SMOOTH"
);
},
{
closed = 1;
nodes = (
"519 501 LINE",
"515 509 LINE",
"416 431 LINE",
"422 424 LINE"
);
}
);
width = 512;
},
{
anchors = (
{
name = bottom;
position = "{165, -254}";
},
{
name = top;
position = "{310, 493}";
}
);
guideLines = (
{
position = "{205, -204}";
}
);
layerId = "957254E3-B7AD-4837-9092-D4428001DE8E";
paths = (
{
closed = 1;
nodes = (
"343 -215 OFFCURVE",
"425 -148 OFFCURVE",
"445 -46 CURVE SMOOTH",
"472 93 OFFCURVE",
"343 93 OFFCURVE",
"296 93 CURVE SMOOTH",
"208 93 LINE SMOOTH",
"177 93 OFFCURVE",
"124 93 OFFCURVE",
"130 122 CURVE SMOOTH",
"133 139 OFFCURVE",
"154 157 OFFCURVE",
"172 158 CURVE",
"106 236 LINE",
"42 203 OFFCURVE",
"-3 162 OFFCURVE",
"-15 103 CURVE SMOOTH",
"-35 1 OFFCURVE",
"81 -33 OFFCURVE",
"83 -33 CURVE SMOOTH",
"236 -33 LINE SMOOTH",
"264 -33 OFFCURVE",
"303 -31 OFFCURVE",
"297 -63 CURVE SMOOTH",
"292 -90 OFFCURVE",
"258 -100 OFFCURVE",
"190 -100 CURVE SMOOTH",
"81 -100 OFFCURVE",
"85 -78 OFFCURVE",
"88 -63 CURVE SMOOTH",
"89 -59 LINE",
"140 -24 LINE",
"71 6 LINE",
"-34 -18 LINE",
"-43 -31 OFFCURVE",
"-50 -48 OFFCURVE",
"-54 -68 CURVE SMOOTH",
"-77 -186 OFFCURVE",
"50 -215 OFFCURVE",
"166 -215 CURVE SMOOTH"
);
},
{
closed = 1;
nodes = (
"357 136 OFFCURVE",
"466 199 OFFCURVE",
"488 313 CURVE SMOOTH",
"508 416 OFFCURVE",
"443 504 OFFCURVE",
"314 504 CURVE SMOOTH",
"197 504 OFFCURVE",
"89 428 OFFCURVE",
"68 317 CURVE SMOOTH",
"46 207 OFFCURVE",
"122 136 OFFCURVE",
"243 136 CURVE SMOOTH"
);
},
{
closed = 1;
nodes = (
"224 246 OFFCURVE",
"211 277 OFFCURVE",
"218 315 CURVE SMOOTH",
"226 352 OFFCURVE",
"250 386 OFFCURVE",
"294 386 CURVE SMOOTH",
"335 386 OFFCURVE",
"349 353 OFFCURVE",
"341 315 CURVE SMOOTH",
"334 278 OFFCURVE",
"308 246 OFFCURVE",
"267 246 CURVE SMOOTH"
);
},
{
closed = 1;
nodes = (
"564 450 LINE",
"506 545 LINE",
"380 454 LINE",
"467 385 LINE"
);
}
);
width = 522;
}
);
leftKerningGroup = c;
note = g.ss02;
},
{
glyphname = T_h;
lastChange = "2020-06-16 10:26:24 +0000";
layers = (
{
layerId = "F91D9E91-C1BC-4259-B0D8-112C0CBA2B8E";
paths = (
{
closed = 1;
nodes = (
"280 0 LINE",
"414 687 LINE",
"676 687 LINE",
"542 0 LINE",
"552 0 LINE",
"613 313 LINE SMOOTH",
"633 419 OFFCURVE",
"712 488 OFFCURVE",
"812 488 CURVE SMOOTH",
"911 488 OFFCURVE",
"951 428 OFFCURVE",
"929 313 CURVE SMOOTH",
"868 0 LINE",
"878 0 LINE",
"942 328 LINE",
"959 438 OFFCURVE",
"914 498 OFFCURVE",
"812 498 CURVE SMOOTH",
"731 498 OFFCURVE",
"662 455 OFFCURVE",
"626 383 CURVE",
"688 697 LINE",
"138 697 LINE",
"136 687 LINE",
"404 687 LINE",
"270 0 LINE"
);
}
);
width = 1017;
},
{
layerId = "957254E3-B7AD-4837-9092-D4428001DE8E";
paths = (
{
closed = 1;
nodes = (
"310 0 LINE",
"418 553 LINE",
"588 553 LINE",
"480 0 LINE",
"635 0 LINE",
"686 262 LINE SMOOTH",
"697 316 OFFCURVE",
"734 366 OFFCURVE",
"799 366 CURVE SMOOTH",
"859 366 OFFCURVE",
"868 326 OFFCURVE",
"859 279 CURVE SMOOTH",
"805 0 LINE",
"959 0 LINE",
"1016 292 LINE SMOOTH",
"1034 384 OFFCURVE",
"1001 504 OFFCURVE",
"862 504 CURVE SMOOTH",
"823 504 OFFCURVE",
"770 488 OFFCURVE",
"721 443 CURVE",
"771 697 LINE",
"83 697 LINE",
"55 553 LINE",
"259 553 LINE",
"151 0 LINE"
);
}
);
width = 1052;
}
);
leftMetricsKey = T;
note = T_h;
rightMetricsKey = h;
},
{
glyphname = f_f;
lastChange = "2020-06-16 10:26:24 +0000";
layers = (
{
layerId = "F91D9E91-C1BC-4259-B0D8-112C0CBA2B8E";
paths = (
{
closed = 1;
nodes = (
"80 0 LINE",
"174 483 LINE",
"402 483 LINE",
"308 0 LINE",
"318 0 LINE",
"412 483 LINE",
"604 483 LINE",
"606 493 LINE",
"414 493 LINE",
"431 580 LINE SMOOTH",
"446 656 OFFCURVE",
"492 692 OFFCURVE",
"577 692 CURVE SMOOTH",
"596 692 OFFCURVE",
"612 687 OFFCURVE",
"632 677 CURVE",
"638 685 LINE",
"618 696 OFFCURVE",
"599 702 OFFCURVE",
"578 702 CURVE SMOOTH",
"533 702 OFFCURVE",
"498 692 OFFCURVE",
"472 672 CURVE",
"444 692 OFFCURVE",
"412 702 OFFCURVE",
"371 702 CURVE SMOOTH",
"274 702 OFFCURVE",
"195 640 OFFCURVE",
"177 549 CURVE SMOOTH",
"166 493 LINE",
"76 493 LINE",
"74 483 LINE",
"164 483 LINE",
"70 0 LINE"
);
},
{
closed = 1;
nodes = (
"187 549 LINE SMOOTH",
"203 635 OFFCURVE",
"277 692 OFFCURVE",
"370 692 CURVE SMOOTH",
"406 692 OFFCURVE",
"438 684 OFFCURVE",
"465 666 CURVE",
"442 645 OFFCURVE",
"428 616 OFFCURVE",
"421 580 CURVE SMOOTH",
"404 493 LINE",
"176 493 LINE"
);
}
);
width = 586;
},
{
layerId = "957254E3-B7AD-4837-9092-D4428001DE8E";
paths = (
{
closed = 1;
nodes = (
"179 0 LINE",
"252 376 LINE",
"401 376 LINE",
"328 0 LINE",
"479 0 LINE",
"552 376 LINE",
"650 376 LINE",
"673 493 LINE",
"575 493 LINE",
"584 541 LINE SMOOTH",
"589 565 OFFCURVE",
"604 574 OFFCURVE",
"619 574 CURVE SMOOTH",
"635 574 OFFCURVE",
"644 569 OFFCURVE",
"651 563 CURVE",
"723 688 LINE",
"698 700 OFFCURVE",
"664 708 OFFCURVE",
"630 708 CURVE SMOOTH",
"593 708 OFFCURVE",
"554 696 OFFCURVE",
"517 673 CURVE",
"481 698 OFFCURVE",
"434 708 OFFCURVE",
"387 708 CURVE SMOOTH",
"272 708 OFFCURVE",
"154 642 OFFCURVE",
"131 522 CURVE SMOOTH",
"125 493 LINE",
"46 493 LINE",
"23 376 LINE",
"102 376 LINE",
"29 0 LINE"
);
},
{
closed = 1;
nodes = (
"280 519 LINE SMOOTH",
"288 559 OFFCURVE",
"313 587 OFFCURVE",
"370 587 CURVE SMOOTH",
"401 587 OFFCURVE",
"421 580 OFFCURVE",
"440 569 CURVE",
"439 565 OFFCURVE",
"437 557 OFFCURVE",
"437 553 CURVE SMOOTH",
"425 493 LINE",
"275 493 LINE"
);
}
);
width = 610;
}
);
leftKerningGroup = f;
leftMetricsKey = f;
note = f_f;
rightKerningGroup = i;
rightMetricsKey = f;
},
{
glyphname = f_f_i;
lastChange = "2020-06-16 10:26:24 +0000";
layers = (
{
layerId = "F91D9E91-C1BC-4259-B0D8-112C0CBA2B8E";
paths = (
{
closed = 1;
nodes = (
"80 0 LINE",
"174 483 LINE",
"402 483 LINE",
"308 0 LINE",
"318 0 LINE",
"412 483 LINE",
"640 483 LINE",
"546 0 LINE",
"556 0 LINE",
"652 493 LINE",
"414 493 LINE",
"423 539 LINE SMOOTH",
"446 656 OFFCURVE",
"502 692 OFFCURVE",
"581 692 CURVE SMOOTH",
"620 692 OFFCURVE",
"652 678 OFFCURVE",
"675 654 CURVE",
"682 660 LINE",
"657 686 OFFCURVE",
"623 702 OFFCURVE",
"582 702 CURVE SMOOTH",
"542 702 OFFCURVE",
"507 692 OFFCURVE",
"477 668 CURVE",
"449 691 OFFCURVE",
"414 702 OFFCURVE",
"371 702 CURVE SMOOTH",
"274 702 OFFCURVE",
"195 640 OFFCURVE",
"177 549 CURVE SMOOTH",
"166 493 LINE",
"76 493 LINE",
"74 483 LINE",
"164 483 LINE",
"70 0 LINE"
);
},
{
closed = 1;
nodes = (
"187 549 LINE SMOOTH",
"203 635 OFFCURVE",
"277 692 OFFCURVE",
"370 692 CURVE SMOOTH",
"410 692 OFFCURVE",
"443 682 OFFCURVE",
"471 661 CURVE",
"444 636 OFFCURVE",
"424 596 OFFCURVE",
"413 539 CURVE SMOOTH",
"404 493 LINE",
"176 493 LINE"
);
}
);
width = 707;
},
{
layerId = "957254E3-B7AD-4837-9092-D4428001DE8E";
paths = (
{
closed = 1;
nodes = (
"179 0 LINE",
"252 376 LINE",
"401 376 LINE",
"328 0 LINE",
"479 0 LINE",
"552 376 LINE",
"701 376 LINE",
"628 0 LINE",
"778 0 LINE",
"874 493 LINE",
"575 493 LINE",
"581 522 LINE SMOOTH",
"587 553 OFFCURVE",
"616 587 OFFCURVE",
"677 587 CURVE SMOOTH",
"733 587 OFFCURVE",
"774 572 OFFCURVE",
"807 548 CURVE",
"897 655 LINE",
"842 691 OFFCURVE",
"786 708 OFFCURVE",
"694 708 CURVE SMOOTH",
"637 708 OFFCURVE",
"579 692 OFFCURVE",
"533 663 CURVE",
"493 695 OFFCURVE",
"438 708 OFFCURVE",
"387 708 CURVE SMOOTH",
"272 708 OFFCURVE",
"154 642 OFFCURVE",
"131 522 CURVE SMOOTH",
"125 493 LINE",
"46 493 LINE",
"23 376 LINE",
"102 376 LINE",
"29 0 LINE"
);
},
{
closed = 1;
nodes = (
"280 519 LINE SMOOTH",
"288 559 OFFCURVE",
"313 587 OFFCURVE",
"370 587 CURVE SMOOTH",
"403 587 OFFCURVE",
"427 578 OFFCURVE",
"443 569 CURVE",
"442 567 OFFCURVE",
"433 538 OFFCURVE",
"430 525 CURVE SMOOTH",
"424 493 LINE",
"275 493 LINE"
);
}
);
width = 880;
}
);
leftKerningGroup = f;
leftMetricsKey = f;
note = f_f_i;
rightKerningGroup = i;
rightMetricsKey = i;
},
{
glyphname = f_f_l;
lastChange = "2020-06-16 10:26:24 +0000";
layers = (
{
layerId = "F91D9E91-C1BC-4259-B0D8-112C0CBA2B8E";
paths = (
{
closed = 1;
nodes = (
"630 -5 OFFCURVE",
"651 -1 OFFCURVE",
"675 6 CURVE",
"674 16 LINE",
"651 8 OFFCURVE",
"631 4 OFFCURVE",
"616 4 CURVE SMOOTH",
"576 4 OFFCURVE",
"562 30 OFFCURVE",
"574 90 CURVE SMOOTH",
"684 660 LINE",
"657 686 OFFCURVE",
"623 702 OFFCURVE",
"582 702 CURVE SMOOTH",
"542 702 OFFCURVE",
"506 692 OFFCURVE",
"479 669 CURVE",
"450 691 OFFCURVE",
"415 702 OFFCURVE",
"371 702 CURVE SMOOTH",
"274 702 OFFCURVE",
"195 640 OFFCURVE",
"177 549 CURVE SMOOTH",
"166 493 LINE",
"76 493 LINE",
"74 483 LINE",
"164 483 LINE",
"70 0 LINE",
"80 0 LINE",
"174 483 LINE",
"402 483 LINE",
"308 0 LINE",
"318 0 LINE",
"412 483 LINE",
"543 483 LINE",
"545 493 LINE",
"414 493 LINE",
"423 539 LINE SMOOTH",
"446 656 OFFCURVE",
"502 692 OFFCURVE",
"581 692 CURVE SMOOTH",
"620 692 OFFCURVE",
"652 678 OFFCURVE",
"674 657 CURVE",
"564 90 LINE SMOOTH",
"551 24 OFFCURVE",
"568 -5 OFFCURVE",
"615 -5 CURVE SMOOTH"
);
},
{
closed = 1;
nodes = (
"187 549 LINE SMOOTH",
"203 635 OFFCURVE",
"277 692 OFFCURVE",
"370 692 CURVE SMOOTH",
"410 692 OFFCURVE",
"444 682 OFFCURVE",
"472 662 CURVE",
"444 635 OFFCURVE",
"424 596 OFFCURVE",
"413 539 CURVE SMOOTH",
"404 493 LINE",
"176 493 LINE"
);
}
);
width = 750;
},
{
layerId = "957254E3-B7AD-4837-9092-D4428001DE8E";
paths = (
{
closed = 1;
nodes = (
"772 -11 OFFCURVE",
"807 -7 OFFCURVE",
"840 5 CURVE",
"863 123 LINE",
"849 119 OFFCURVE",
"839 117 OFFCURVE",
"830 117 CURVE SMOOTH",
"811 117 OFFCURVE",
"804 126 OFFCURVE",
"807 142 CURVE SMOOTH",
"906 651 LINE",
"845 689 OFFCURVE",
"791 708 OFFCURVE",
"694 708 CURVE SMOOTH",
"638 708 OFFCURVE",
"579 692 OFFCURVE",
"531 664 CURVE",
"494 694 OFFCURVE",
"439 708 OFFCURVE",
"387 708 CURVE SMOOTH",
"272 708 OFFCURVE",
"154 642 OFFCURVE",
"131 522 CURVE SMOOTH",
"125 493 LINE",
"46 493 LINE",
"23 376 LINE",
"102 376 LINE",
"29 0 LINE",
"179 0 LINE",
"252 376 LINE",
"401 376 LINE",
"328 0 LINE",
"479 0 LINE",
"552 376 LINE",
"635 376 LINE",
"658 493 LINE",
"575 493 LINE",
"581 522 LINE SMOOTH",
"587 553 OFFCURVE",
"616 587 OFFCURVE",
"677 587 CURVE SMOOTH",
"698 587 OFFCURVE",
"716 586 OFFCURVE",
"740 583 CURVE",
"651 125 LINE SMOOTH",
"633 30 OFFCURVE",
"682 -11 OFFCURVE",
"751 -11 CURVE SMOOTH"
);
},
{
closed = 1;
nodes = (
"280 519 LINE SMOOTH",
"288 559 OFFCURVE",
"313 587 OFFCURVE",
"370 587 CURVE SMOOTH",
"403 587 OFFCURVE",
"426 578 OFFCURVE",
"442 569 CURVE",
"436 549 OFFCURVE",
"432 537 OFFCURVE",
"430 525 CURVE SMOOTH",
"424 493 LINE",
"275 493 LINE"
);
}
);
width = 902;
}
);
leftMetricsKey = f;
note = f_f_l;
rightMetricsKey = l;
},
{
glyphname = fi;
lastChange = "2020-06-16 10:26:24 +0000";
layers = (
{
layerId = "F91D9E91-C1BC-4259-B0D8-112C0CBA2B8E";
paths = (
{
closed = 1;
nodes = (
"80 0 LINE",
"174 483 LINE",
"405 483 LINE",
"407 493 LINE",
"176 493 LINE",
"185 539 LINE SMOOTH",
"208 656 OFFCURVE",
"266 692 OFFCURVE",
"344 692 CURVE SMOOTH",
"384 692 OFFCURVE",
"415 678 OFFCURVE",
"439 654 CURVE",
"446 660 LINE",
"419 686 OFFCURVE",
"386 702 OFFCURVE",
"345 702 CURVE SMOOTH",
"264 702 OFFCURVE",
"199 661 OFFCURVE",
"175 539 CURVE SMOOTH",
"166 493 LINE",
"76 493 LINE",
"74 483 LINE",
"164 483 LINE",
"70 0 LINE"
);
},
{
closed = 1;
nodes = (
"320 0 LINE",
"416 493 LINE",
"406 493 LINE",
"310 0 LINE"
);
}
);
width = 471;
},
{
layerId = "957254E3-B7AD-4837-9092-D4428001DE8E";
paths = (
{
closed = 1;
nodes = (
"179 0 LINE",
"252 376 LINE",
"444 376 LINE",
"468 493 LINE",
"275 493 LINE",
"281 522 LINE SMOOTH",
"287 553 OFFCURVE",
"316 587 OFFCURVE",
"378 587 CURVE SMOOTH",
"432 587 OFFCURVE",
"473 573 OFFCURVE",
"507 548 CURVE",
"597 655 LINE",
"546 689 OFFCURVE",
"490 708 OFFCURVE",
"394 708 CURVE SMOOTH",
"275 708 OFFCURVE",
"153 636 OFFCURVE",
"131 525 CURVE SMOOTH",
"125 493 LINE",
"46 493 LINE",
"23 376 LINE",
"102 376 LINE",
"29 0 LINE"
);
},
{
closed = 1;
nodes = (
"466 0 LINE",
"562 493 LINE",
"412 493 LINE",
"316 0 LINE"
);
}
);
width = 572;
}
);
leftKerningGroup = f;
leftMetricsKey = f;
note = fi;
rightKerningGroup = i;
rightMetricsKey = i;
unicode = FB01;
},
{
glyphname = fl;
lastChange = "2020-06-16 10:26:24 +0000";
layers = (
{
layerId = "F91D9E91-C1BC-4259-B0D8-112C0CBA2B8E";
paths = (
{
closed = 1;
nodes = (
"365 -5 OFFCURVE",
"386 -1 OFFCURVE",
"411 6 CURVE",
"410 16 LINE",
"386 8 OFFCURVE",
"366 4 OFFCURVE",
"351 4 CURVE SMOOTH",
"312 4 OFFCURVE",
"297 30 OFFCURVE",
"309 90 CURVE SMOOTH",
"419 659 LINE",
"395 686 OFFCURVE",
"365 702 OFFCURVE",
"325 702 CURVE SMOOTH",
"251 702 OFFCURVE",
"192 661 OFFCURVE",
"168 539 CURVE SMOOTH",
"159 493 LINE",
"76 493 LINE",
"74 483 LINE",
"157 483 LINE",
"63 0 LINE",
"73 0 LINE",
"167 483 LINE",
"287 483 LINE",
"289 493 LINE",
"169 493 LINE",
"178 539 LINE SMOOTH",
"201 656 OFFCURVE",
"254 692 OFFCURVE",
"324 692 CURVE SMOOTH",
"360 692 OFFCURVE",
"388 679 OFFCURVE",
"409 655 CURVE",
"299 90 LINE SMOOTH",
"286 24 OFFCURVE",
"304 -5 OFFCURVE",
"350 -5 CURVE SMOOTH"
);
}
);
width = 486;
},
{
layerId = "957254E3-B7AD-4837-9092-D4428001DE8E";
paths = (
{
closed = 1;
nodes = (
"503 -11 OFFCURVE",
"538 -7 OFFCURVE",
"571 5 CURVE",
"594 123 LINE",
"580 119 OFFCURVE",
"570 117 OFFCURVE",
"561 117 CURVE SMOOTH",
"542 117 OFFCURVE",
"535 126 OFFCURVE",
"538 142 CURVE SMOOTH",
"637 654 LINE",
"539 703 OFFCURVE",
"492 708 OFFCURVE",
"399 708 CURVE SMOOTH",
"278 708 OFFCURVE",
"154 635 OFFCURVE",
"132 525 CURVE SMOOTH",
"126 493 LINE",
"46 493 LINE",
"23 376 LINE",
"103 376 LINE",
"30 0 LINE",
"181 0 LINE",
"254 376 LINE",
"348 376 LINE",
"372 493 LINE",
"277 493 LINE",
"283 522 LINE SMOOTH",
"289 553 OFFCURVE",
"319 587 OFFCURVE",
"383 587 CURVE SMOOTH",
"416 587 OFFCURVE",
"445 583 OFFCURVE",
"470 576 CURVE",
"382 125 LINE SMOOTH",
"364 30 OFFCURVE",
"413 -11 OFFCURVE",
"482 -11 CURVE SMOOTH"
);
}
);
width = 633;
}
);
leftKerningGroup = f;
leftMetricsKey = f;
note = fl;
rightKerningGroup = d;
rightMetricsKey = l;
unicode = FB02;
},
{
glyphname = H_d_c_o.liga;
lastChange = "2020-06-16 10:26:24 +0000";
layers = (
{
layerId = "F91D9E91-C1BC-4259-B0D8-112C0CBA2B8E";
paths = (
{
closed = 1;
nodes = (
"704 -10 OFFCURVE",
"873 160 OFFCURVE",
"873 368 CURVE SMOOTH",
"873 576 OFFCURVE",
"704 746 OFFCURVE",
"495 746 CURVE SMOOTH",
"286 746 OFFCURVE",
"117 576 OFFCURVE",
"117 368 CURVE SMOOTH",
"117 160 OFFCURVE",
"286 -10 OFFCURVE",
"495 -10 CURVE SMOOTH"
);
},
{
closed = 1;
nodes = (
"289 217 OFFCURVE",
"297 225 OFFCURVE",
"297 235 CURVE SMOOTH",
"297 500 LINE SMOOTH",
"297 510 OFFCURVE",
"289 518 OFFCURVE",
"279 518 CURVE SMOOTH",
"269 518 OFFCURVE",
"261 510 OFFCURVE",
"261 500 CURVE SMOOTH",
"261 235 LINE SMOOTH",
"261 225 OFFCURVE",
"269 217 OFFCURVE",
"279 217 CURVE SMOOTH"
);
},
{
closed = 1;
nodes = (
"423 350 LINE SMOOTH",
"433 350 OFFCURVE",
"441 358 OFFCURVE",
"441 368 CURVE SMOOTH",
"441 378 OFFCURVE",
"433 386 OFFCURVE",
"423 386 CURVE SMOOTH",
"351 386 LINE SMOOTH",
"341 386 OFFCURVE",
"333 378 OFFCURVE",
"333 368 CURVE SMOOTH",
"333 358 OFFCURVE",
"341 350 OFFCURVE",
"351 350 CURVE SMOOTH"
);
},
{
closed = 1;
nodes = (
"306 26 OFFCURVE",
"153 180 OFFCURVE",
"153 368 CURVE SMOOTH",
"153 556 OFFCURVE",
"306 710 OFFCURVE",
"495 710 CURVE SMOOTH",
"684 710 OFFCURVE",
"837 556 OFFCURVE",
"837 368 CURVE SMOOTH",
"837 180 OFFCURVE",
"684 26 OFFCURVE",
"495 26 CURVE SMOOTH"
);
},
{
closed = 1;
nodes = (
"505 217 OFFCURVE",
"513 225 OFFCURVE",
"513 235 CURVE SMOOTH",
"513 500 LINE SMOOTH",
"513 510 OFFCURVE",
"505 518 OFFCURVE",
"495 518 CURVE SMOOTH",
"485 518 OFFCURVE",
"477 510 OFFCURVE",
"477 500 CURVE SMOOTH",
"477 235 LINE SMOOTH",
"477 225 OFFCURVE",
"485 217 OFFCURVE",
"495 217 CURVE SMOOTH"
);
},
{
closed = 1;
nodes = (
"722 217 OFFCURVE",
"729 226 OFFCURVE",
"729 234 CURVE SMOOTH",
"729 239 OFFCURVE",
"727 243 OFFCURVE",
"724 246 CURVE SMOOTH",
"592 368 LINE",
"724 489 LINE SMOOTH",
"728 493 OFFCURVE",
"729 497 OFFCURVE",
"729 501 CURVE SMOOTH",
"729 513 OFFCURVE",
"718 518 OFFCURVE",
"712 518 CURVE SMOOTH",
"707 518 OFFCURVE",
"703 516 OFFCURVE",
"698 511 CURVE SMOOTH",
"555 380 LINE SMOOTH",
"552 377 OFFCURVE",
"550 372 OFFCURVE",
"550 368 CURVE SMOOTH",
"550 364 OFFCURVE",
"551 359 OFFCURVE",
"555 356 CURVE SMOOTH",
"700 222 LINE SMOOTH",
"703 219 OFFCURVE",
"708 217 OFFCURVE",
"713 217 CURVE SMOOTH"
);
}
);
width = 941;
},
{
layerId = "957254E3-B7AD-4837-9092-D4428001DE8E";
paths = (
{
closed = 1;
nodes = (
"639 -10 OFFCURVE",
"808 160 OFFCURVE",
"808 368 CURVE SMOOTH",
"808 576 OFFCURVE",
"639 746 OFFCURVE",
"430 746 CURVE SMOOTH",
"221 746 OFFCURVE",
"52 576 OFFCURVE",
"52 368 CURVE SMOOTH",
"52 160 OFFCURVE",
"221 -10 OFFCURVE",
"430 -10 CURVE SMOOTH"
);
},
{
closed = 1;
nodes = (
"224 217 OFFCURVE",
"232 225 OFFCURVE",
"232 235 CURVE SMOOTH",
"232 500 LINE SMOOTH",
"232 510 OFFCURVE",
"224 518 OFFCURVE",
"214 518 CURVE SMOOTH",
"204 518 OFFCURVE",
"196 510 OFFCURVE",
"196 500 CURVE SMOOTH",
"196 235 LINE SMOOTH",
"196 225 OFFCURVE",
"204 217 OFFCURVE",
"214 217 CURVE SMOOTH"
);
},
{
closed = 1;
nodes = (
"358 350 LINE SMOOTH",
"368 350 OFFCURVE",
"376 358 OFFCURVE",
"376 368 CURVE SMOOTH",
"376 378 OFFCURVE",
"368 386 OFFCURVE",
"358 386 CURVE SMOOTH",
"286 386 LINE SMOOTH",
"276 386 OFFCURVE",
"268 378 OFFCURVE",
"268 368 CURVE SMOOTH",
"268 358 OFFCURVE",
"276 350 OFFCURVE",
"286 350 CURVE SMOOTH"
);
},
{
closed = 1;
nodes = (
"241 26 OFFCURVE",
"88 180 OFFCURVE",
"88 368 CURVE SMOOTH",
"88 556 OFFCURVE",
"241 710 OFFCURVE",
"430 710 CURVE SMOOTH",
"619 710 OFFCURVE",
"772 556 OFFCURVE",
"772 368 CURVE SMOOTH",
"772 180 OFFCURVE",
"619 26 OFFCURVE",
"430 26 CURVE SMOOTH"
);
},
{
closed = 1;
nodes = (
"440 217 OFFCURVE",
"448 225 OFFCURVE",
"448 235 CURVE SMOOTH",
"448 500 LINE SMOOTH",
"448 510 OFFCURVE",
"440 518 OFFCURVE",
"430 518 CURVE SMOOTH",
"420 518 OFFCURVE",
"412 510 OFFCURVE",
"412 500 CURVE SMOOTH",
"412 235 LINE SMOOTH",
"412 225 OFFCURVE",
"420 217 OFFCURVE",
"430 217 CURVE SMOOTH"
);
},
{
closed = 1;
nodes = (
"657 217 OFFCURVE",
"664 226 OFFCURVE",
"664 234 CURVE SMOOTH",
"664 239 OFFCURVE",
"662 243 OFFCURVE",
"659 246 CURVE SMOOTH",
"527 368 LINE",
"659 489 LINE SMOOTH",
"663 493 OFFCURVE",
"664 497 OFFCURVE",
"664 501 CURVE SMOOTH",
"664 513 OFFCURVE",
"653 518 OFFCURVE",
"647 518 CURVE SMOOTH",
"642 518 OFFCURVE",
"638 516 OFFCURVE",
"633 511 CURVE SMOOTH",
"490 380 LINE SMOOTH",
"487 377 OFFCURVE",
"485 372 OFFCURVE",
"485 368 CURVE SMOOTH",
"485 364 OFFCURVE",
"486 359 OFFCURVE",
"490 356 CURVE SMOOTH",
"635 222 LINE SMOOTH",
"638 219 OFFCURVE",
"643 217 OFFCURVE",
"648 217 CURVE SMOOTH"
);
}
);
width = 812;
}
);
leftMetricsKey = O;
note = h_d_c_o.liga;
rightMetricsKey = O;
},
{
glyphname = h_d_c_o.liga;
lastChange = "2020-06-16 10:26:24 +0000";
layers = (
{
layerId = "F91D9E91-C1BC-4259-B0D8-112C0CBA2B8E";
paths = (
{
closed = 1;
nodes = (
"704 -10 OFFCURVE",
"873 160 OFFCURVE",
"873 368 CURVE SMOOTH",
"873 576 OFFCURVE",
"704 746 OFFCURVE",
"495 746 CURVE SMOOTH",
"286 746 OFFCURVE",
"117 576 OFFCURVE",
"117 368 CURVE SMOOTH",
"117 160 OFFCURVE",
"286 -10 OFFCURVE",
"495 -10 CURVE SMOOTH"
);
},
{
closed = 1;
nodes = (
"289 217 OFFCURVE",
"297 225 OFFCURVE",
"297 235 CURVE SMOOTH",
"297 500 LINE SMOOTH",
"297 510 OFFCURVE",
"289 518 OFFCURVE",
"279 518 CURVE SMOOTH",
"269 518 OFFCURVE",
"261 510 OFFCURVE",
"261 500 CURVE SMOOTH",
"261 235 LINE SMOOTH",
"261 225 OFFCURVE",
"269 217 OFFCURVE",
"279 217 CURVE SMOOTH"
);
},
{
closed = 1;
nodes = (
"423 350 LINE SMOOTH",
"433 350 OFFCURVE",
"441 358 OFFCURVE",
"441 368 CURVE SMOOTH",
"441 378 OFFCURVE",
"433 386 OFFCURVE",
"423 386 CURVE SMOOTH",
"351 386 LINE SMOOTH",
"341 386 OFFCURVE",
"333 378 OFFCURVE",
"333 368 CURVE SMOOTH",
"333 358 OFFCURVE",
"341 350 OFFCURVE",
"351 350 CURVE SMOOTH"
);
},
{
closed = 1;
nodes = (
"306 26 OFFCURVE",
"153 180 OFFCURVE",
"153 368 CURVE SMOOTH",
"153 556 OFFCURVE",
"306 710 OFFCURVE",
"495 710 CURVE SMOOTH",
"684 710 OFFCURVE",
"837 556 OFFCURVE",
"837 368 CURVE SMOOTH",
"837 180 OFFCURVE",
"684 26 OFFCURVE",
"495 26 CURVE SMOOTH"
);
},
{
closed = 1;
nodes = (
"505 217 OFFCURVE",
"513 225 OFFCURVE",
"513 235 CURVE SMOOTH",
"513 500 LINE SMOOTH",
"513 510 OFFCURVE",
"505 518 OFFCURVE",
"495 518 CURVE SMOOTH",
"485 518 OFFCURVE",
"477 510 OFFCURVE",
"477 500 CURVE SMOOTH",
"477 235 LINE SMOOTH",
"477 225 OFFCURVE",
"485 217 OFFCURVE",
"495 217 CURVE SMOOTH"
);
},
{
closed = 1;
nodes = (
"722 217 OFFCURVE",
"729 226 OFFCURVE",
"729 234 CURVE SMOOTH",
"729 239 OFFCURVE",
"727 243 OFFCURVE",
"724 246 CURVE SMOOTH",
"592 368 LINE",
"724 489 LINE SMOOTH",
"728 493 OFFCURVE",
"729 497 OFFCURVE",
"729 501 CURVE SMOOTH",
"729 513 OFFCURVE",
"718 518 OFFCURVE",
"712 518 CURVE SMOOTH",
"707 518 OFFCURVE",
"703 516 OFFCURVE",
"698 511 CURVE SMOOTH",
"555 380 LINE SMOOTH",
"552 377 OFFCURVE",
"550 372 OFFCURVE",
"550 368 CURVE SMOOTH",
"550 364 OFFCURVE",
"551 359 OFFCURVE",
"555 356 CURVE SMOOTH",
"700 222 LINE SMOOTH",
"703 219 OFFCURVE",
"708 217 OFFCURVE",
"713 217 CURVE SMOOTH"
);
}
);
width = 941;
},
{
layerId = "957254E3-B7AD-4837-9092-D4428001DE8E";
paths = (
{
closed = 1;
nodes = (
"639 -10 OFFCURVE",
"808 160 OFFCURVE",
"808 368 CURVE SMOOTH",
"808 576 OFFCURVE",
"639 746 OFFCURVE",
"430 746 CURVE SMOOTH",
"221 746 OFFCURVE",
"52 576 OFFCURVE",
"52 368 CURVE SMOOTH",
"52 160 OFFCURVE",
"221 -10 OFFCURVE",
"430 -10 CURVE SMOOTH"
);
},
{
closed = 1;
nodes = (
"224 217 OFFCURVE",
"232 225 OFFCURVE",
"232 235 CURVE SMOOTH",
"232 500 LINE SMOOTH",
"232 510 OFFCURVE",
"224 518 OFFCURVE",
"214 518 CURVE SMOOTH",
"204 518 OFFCURVE",
"196 510 OFFCURVE",
"196 500 CURVE SMOOTH",
"196 235 LINE SMOOTH",
"196 225 OFFCURVE",
"204 217 OFFCURVE",
"214 217 CURVE SMOOTH"
);
},
{
closed = 1;
nodes = (
"358 350 LINE SMOOTH",
"368 350 OFFCURVE",
"376 358 OFFCURVE",
"376 368 CURVE SMOOTH",
"376 378 OFFCURVE",
"368 386 OFFCURVE",
"358 386 CURVE SMOOTH",
"286 386 LINE SMOOTH",
"276 386 OFFCURVE",
"268 378 OFFCURVE",
"268 368 CURVE SMOOTH",
"268 358 OFFCURVE",
"276 350 OFFCURVE",
"286 350 CURVE SMOOTH"
);
},
{
closed = 1;
nodes = (
"241 26 OFFCURVE",
"88 180 OFFCURVE",
"88 368 CURVE SMOOTH",
"88 556 OFFCURVE",
"241 710 OFFCURVE",
"430 710 CURVE SMOOTH",
"619 710 OFFCURVE",
"772 556 OFFCURVE",
"772 368 CURVE SMOOTH",
"772 180 OFFCURVE",
"619 26 OFFCURVE",
"430 26 CURVE SMOOTH"
);
},
{
closed = 1;
nodes = (
"440 217 OFFCURVE",
"448 225 OFFCURVE",
"448 235 CURVE SMOOTH",
"448 500 LINE SMOOTH",
"448 510 OFFCURVE",
"440 518 OFFCURVE",
"430 518 CURVE SMOOTH",
"420 518 OFFCURVE",
"412 510 OFFCURVE",
"412 500 CURVE SMOOTH",
"412 235 LINE SMOOTH",
"412 225 OFFCURVE",
"420 217 OFFCURVE",
"430 217 CURVE SMOOTH"
);
},
{
closed = 1;
nodes = (
"657 217 OFFCURVE",
"664 226 OFFCURVE",
"664 234 CURVE SMOOTH",
"664 239 OFFCURVE",
"662 243 OFFCURVE",
"659 246 CURVE SMOOTH",
"527 368 LINE",
"659 489 LINE SMOOTH",
"663 493 OFFCURVE",
"664 497 OFFCURVE",
"664 501 CURVE SMOOTH",
"664 513 OFFCURVE",
"653 518 OFFCURVE",
"647 518 CURVE SMOOTH",
"642 518 OFFCURVE",
"638 516 OFFCURVE",
"633 511 CURVE SMOOTH",
"490 380 LINE SMOOTH",
"487 377 OFFCURVE",
"485 372 OFFCURVE",
"485 368 CURVE SMOOTH",
"485 364 OFFCURVE",
"486 359 OFFCURVE",
"490 356 CURVE SMOOTH",
"635 222 LINE SMOOTH",
"638 219 OFFCURVE",
"643 217 OFFCURVE",
"648 217 CURVE SMOOTH"
);
}
);
width = 812;
}
);
leftMetricsKey = O;
note = h_d_c_o.liga;
rightMetricsKey = O;
},
{
glyphname = ordfeminine;
lastChange = "2020-06-16 10:26:24 +0000";
layers = (
{
layerId = "F91D9E91-C1BC-4259-B0D8-112C0CBA2B8E";
paths = (
{
closed = 1;
nodes = (
"290 345 OFFCURVE",
"345 378 OFFCURVE",
"390 441 CURVE",
"372 349 LINE",
"379 349 LINE",
"421 565 LINE SMOOTH",
"438 655 OFFCURVE",
"404 702 OFFCURVE",
"320 702 CURVE SMOOTH",
"264 702 OFFCURVE",
"225 683 OFFCURVE",
"180 635 CURVE",
"187 630 LINE",
"229 677 OFFCURVE",
"267 695 OFFCURVE",
"320 695 CURVE SMOOTH",
"400 695 OFFCURVE",
"431 651 OFFCURVE",
"414 566 CURVE SMOOTH",
"413 558 OFFCURVE",
"411 551 OFFCURVE",
"410 543 CURVE",
"303 543 LINE SMOOTH",
"201 543 OFFCURVE",
"143 510 OFFCURVE",
"131 445 CURVE SMOOTH",
"119 384 OFFCURVE",
"157 345 OFFCURVE",
"226 345 CURVE SMOOTH"
);
},
{
closed = 1;
nodes = (
"161 354 OFFCURVE",
"126 388 OFFCURVE",
"137 443 CURVE SMOOTH",
"149 506 OFFCURVE",
"204 536 OFFCURVE",
"303 536 CURVE SMOOTH",
"408 536 LINE",
"403 511 OFFCURVE",
"398 485 OFFCURVE",
"393 461 CURVE",
"348 388 OFFCURVE",
"293 354 OFFCURVE",
"226 354 CURVE SMOOTH"
);
}
);
width = 477;
},
{
layerId = "957254E3-B7AD-4837-9092-D4428001DE8E";
paths = (
{
closed = 1;
nodes = (
"222 350 OFFCURVE",
"259 363 OFFCURVE",
"294 390 CURVE",
"290 359 LINE",
"367 359 LINE",
"407 567 LINE SMOOTH",
"423 650 OFFCURVE",
"379 708 OFFCURVE",
"285 708 CURVE SMOOTH",
"222 708 OFFCURVE",
"171 685 OFFCURVE",
"118 625 CURVE",
"176 580 LINE",
"196 602 OFFCURVE",
"226 630 OFFCURVE",
"273 630 CURVE SMOOTH",
"305 630 OFFCURVE",
"321 617 OFFCURVE",
"326 596 CURVE SMOOTH",
"328 589 OFFCURVE",
"327 581 OFFCURVE",
"325 570 CURVE",
"231 570 LINE SMOOTH",
"158 570 OFFCURVE",
"90 537 OFFCURVE",
"76 463 CURVE SMOOTH",
"62 393 OFFCURVE",
"110 350 OFFCURVE",
"182 350 CURVE SMOOTH"
);
},
{
closed = 1;
nodes = (
"178 429 OFFCURVE",
"165 444 OFFCURVE",
"169 461 CURVE SMOOTH",
"172 480 OFFCURVE",
"191 493 OFFCURVE",
"222 493 CURVE SMOOTH",
"310 493 LINE",
"304 477 OFFCURVE",
"296 464 OFFCURVE",
"286 454 CURVE SMOOTH",
"269 437 OFFCURVE",
"246 429 OFFCURVE",
"217 429 CURVE SMOOTH"
);
}
);
width = 401;
}
);
leftKerningGroup = ordfeminine;
note = ordfeminine;
unicode = 00AA;
},
{
glyphname = ordmasculine;
lastChange = "2020-06-16 10:26:24 +0000";
layers = (
{
layerId = "F91D9E91-C1BC-4259-B0D8-112C0CBA2B8E";
paths = (
{
closed = 1;
nodes = (
"367 356 OFFCURVE",
"450 430 OFFCURVE",
"469 528 CURVE SMOOTH",
"488 627 OFFCURVE",
"432 702 OFFCURVE",
"342 702 CURVE SMOOTH",
"250 702 OFFCURVE",
"166 627 OFFCURVE",
"147 530 CURVE SMOOTH",
"128 430 OFFCURVE",
"184 356 OFFCURVE",
"276 356 CURVE SMOOTH"
);
},
{
closed = 1;
nodes = (
"190 366 OFFCURVE",
"139 435 OFFCURVE",
"157 528 CURVE SMOOTH",
"175 622 OFFCURVE",
"254 692 OFFCURVE",
"341 692 CURVE SMOOTH",
"426 692 OFFCURVE",
"477 622 OFFCURVE",
"459 530 CURVE SMOOTH",
"441 435 OFFCURVE",
"362 366 OFFCURVE",
"276 366 CURVE SMOOTH"
);
}
);
width = 507;
},
{
layerId = "957254E3-B7AD-4837-9092-D4428001DE8E";
paths = (
{
closed = 1;
nodes = (
"335 350 OFFCURVE",
"424 431 OFFCURVE",
"443 529 CURVE SMOOTH",
"462 626 OFFCURVE",
"405 708 OFFCURVE",
"299 708 CURVE SMOOTH",
"192 708 OFFCURVE",
"104 626 OFFCURVE",
"85 529 CURVE SMOOTH",
"66 432 OFFCURVE",
"121 350 OFFCURVE",
"229 350 CURVE SMOOTH"
);
},
{
closed = 1;
nodes = (
"181 432 OFFCURVE",
"172 477 OFFCURVE",
"182 529 CURVE SMOOTH",
"192 583 OFFCURVE",
"220 626 OFFCURVE",
"283 626 CURVE SMOOTH",
"346 626 OFFCURVE",
"356 583 OFFCURVE",
"346 529 CURVE SMOOTH",
"336 477 OFFCURVE",
"308 432 OFFCURVE",
"245 432 CURVE SMOOTH"
);
}
);
width = 418;
}
);
leftKerningGroup = ordmasculine;
note = ordmasculine;
rightKerningGroup = ordmasculine;
unicode = 00BA;
},
{
color = 1;
glyphname = Delta;
lastChange = "2020-06-16 10:26:24 +0000";
layers = (
{
hints = (
{
horizontal = 1;
place = "{-48, 21}";
target = up;
type = BottomGhost;
},
{
horizontal = 1;
place = "{602, -20}";
target = down;
type = TopGhost;
},
{
place = "{-58, 544}";
type = Stem;
},
{
horizontal = 1;
place = "{442, 112}";
type = Stem;
}
);
layerId = "F91D9E91-C1BC-4259-B0D8-112C0CBA2B8E";
paths = (
{
closed = 1;
nodes = (
"509 0 LINE",
"404 697 LINE",
"385 697 LINE",
"11 0 LINE"
);
},
{
closed = 1;
nodes = (
"395 691 LINE",
"496 10 LINE",
"28 10 LINE"
);
}
);
width = 616;
},
{
layerId = "957254E3-B7AD-4837-9092-D4428001DE8E";
paths = (
{
closed = 1;
nodes = (
"631 0 LINE",
"478 697 LINE",
"363 697 LINE",
"-63 0 LINE"
);
},
{
closed = 1;
nodes = (
"385 463 LINE",
"444 144 LINE",
"201 144 LINE"
);
}
);
width = 664;
}
);
leftKerningGroup = A;
rightKerningGroup = A;
unicode = 0394;
},
{
color = 1;
glyphname = Omega;
lastChange = "2020-06-16 10:26:24 +0000";
layers = (
{
layerId = "F91D9E91-C1BC-4259-B0D8-112C0CBA2B8E";
paths = (
{
closed = 1;
nodes = (
"260 0 LINE",
"273 68 LINE",
"149 153 OFFCURVE",
"101 253 OFFCURVE",
"129 397 CURVE SMOOTH",
"164 578 OFFCURVE",
"291 692 OFFCURVE",
"469 692 CURVE SMOOTH",
"647 692 OFFCURVE",
"729 578 OFFCURVE",
"694 399 CURVE SMOOTH",
"665 253 OFFCURVE",
"578 153 OFFCURVE",
"421 68 CURVE",
"408 0 LINE",
"625 0 LINE",
"627 10 LINE",
"420 10 LINE",
"430 62 LINE",
"590 152 OFFCURVE",
"676 251 OFFCURVE",
"704 396 CURVE SMOOTH",
"740 583 OFFCURVE",
"654 702 OFFCURVE",
"470 702 CURVE SMOOTH",
"286 702 OFFCURVE",
"154 583 OFFCURVE",
"118 398 CURVE SMOOTH",
"90 251 OFFCURVE",
"138 152 OFFCURVE",
"263 62 CURVE",
"252 10 LINE",
"45 10 LINE",
"43 0 LINE"
);
}
);
width = 764;
},
{
layerId = "957254E3-B7AD-4837-9092-D4428001DE8E";
paths = (
{
closed = 1;
nodes = (
"301 0 LINE",
"322 108 LINE",
"237 143 OFFCURVE",
"197 236 OFFCURVE",
"220 352 CURVE SMOOTH",
"244 479 OFFCURVE",
"329 565 OFFCURVE",
"449 565 CURVE SMOOTH",
"567 565 OFFCURVE",
"620 482 OFFCURVE",
"595 354 CURVE SMOOTH",
"573 242 OFFCURVE",
"501 151 OFFCURVE",
"398 108 CURVE",
"377 0 LINE",
"674 0 LINE",
"703 148 LINE",
"572 148 LINE",
"529 96 LINE",
"642 140 OFFCURVE",
"739 246 OFFCURVE",
"765 380 CURVE SMOOTH",
"801 567 OFFCURVE",
"676 715 OFFCURVE",
"477 715 CURVE SMOOTH",
"277 715 OFFCURVE",
"98 567 OFFCURVE",
"62 379 CURVE SMOOTH",
"36 249 OFFCURVE",
"86 136 OFFCURVE",
"188 96 CURVE",
"164 148 LINE",
"34 148 LINE",
"5 0 LINE"
);
}
);
width = 774;
}
);
unicode = 03A9;
},
{
color = 1;
glyphname = pi;
lastChange = "2020-06-16 10:26:24 +0000";
layers = (
{
layerId = "F91D9E91-C1BC-4259-B0D8-112C0CBA2B8E";
paths = (
{
closed = 1;
nodes = (
"447 -5 OFFCURVE",
"466 -2 OFFCURVE",
"488 4 CURVE",
"487 14 LINE",
"468 8 OFFCURVE",
"450 5 OFFCURVE",
"435 5 CURVE SMOOTH",
"365 5 OFFCURVE",
"345 47 OFFCURVE",
"366 155 CURVE SMOOTH",
"430 483 LINE",
"517 483 LINE",
"519 493 LINE",
"96 493 LINE",
"94 483 LINE",
"157 483 LINE",
"63 0 LINE",
"73 0 LINE",
"167 483 LINE",
"420 483 LINE",
"356 155 LINE SMOOTH",
"334 40 OFFCURVE",
"356 -5 OFFCURVE",
"435 -5 CURVE SMOOTH"
);
}
);
width = 564;
},
{
layerId = "957254E3-B7AD-4837-9092-D4428001DE8E";
paths = (
{
closed = 1;
nodes = (
"459 -11 OFFCURVE",
"487 -3 OFFCURVE",
"524 18 CURVE",
"502 110 LINE",
"493 102 OFFCURVE",
"479 96 OFFCURVE",
"470 96 CURVE SMOOTH",
"460 96 OFFCURVE",
"456 103 OFFCURVE",
"458 115 CURVE SMOOTH",
"507 367 LINE",
"567 367 LINE",
"592 493 LINE",
"62 493 LINE",
"37 367 LINE",
"100 367 LINE",
"29 0 LINE",
"179 0 LINE",
"250 367 LINE",
"357 367 LINE",
"307 107 LINE SMOOTH",
"292 31 OFFCURVE",
"333 -11 OFFCURVE",
"421 -11 CURVE SMOOTH"
);
}
);
width = 578;
}
);
note = pi;
unicode = 03C0;
},
{
color = 1;
glyphname = zero;
lastChange = "2020-06-16 10:26:24 +0000";
layers = (
{
layerId = "F91D9E91-C1BC-4259-B0D8-112C0CBA2B8E";
paths = (
{
closed = 1;
nodes = (
"356 -5 OFFCURVE",
"449 138 OFFCURVE",
"490 345 CURVE SMOOTH",
"531 557 OFFCURVE",
"492 703 OFFCURVE",
"359 703 CURVE SMOOTH",
"212 703 OFFCURVE",
"132 534 OFFCURVE",
"95 349 CURVE SMOOTH",
"60 165 OFFCURVE",
"76 -5 OFFCURVE",
"228 -5 CURVE SMOOTH"
);
},
{
closed = 1;
nodes = (
"86 5 OFFCURVE",
"72 166 OFFCURVE",
"107 347 CURVE SMOOTH",
"143 532 OFFCURVE",
"220 693 OFFCURVE",
"358 693 CURVE SMOOTH",
"484 693 OFFCURVE",
"519 555 OFFCURVE",
"478 347 CURVE SMOOTH",
"438 141 OFFCURVE",
"350 5 OFFCURVE",
"229 5 CURVE SMOOTH"
);
}
);
width = 545;
},
{
layerId = "957254E3-B7AD-4837-9092-D4428001DE8E";
paths = (
{
closed = 1;
nodes = (
"483 -10 OFFCURVE",
"546 212 OFFCURVE",
"573 353 CURVE SMOOTH",
"599 484 OFFCURVE",
"625 709 OFFCURVE",
"389 709 CURVE SMOOTH",
"154 709 OFFCURVE",
"93 486 OFFCURVE",
"67 353 CURVE SMOOTH",
"40 212 OFFCURVE",
"17 -10 OFFCURVE",
"250 -10 CURVE SMOOTH"
);
},
{
closed = 1;
nodes = (
"190 134 OFFCURVE",
"198 235 OFFCURVE",
"220 348 CURVE SMOOTH",
"243 466 OFFCURVE",
"273 564 OFFCURVE",
"361 564 CURVE SMOOTH",
"449 564 OFFCURVE",
"441 466 OFFCURVE",
"418 348 CURVE SMOOTH",
"396 235 OFFCURVE",
"366 134 OFFCURVE",
"278 134 CURVE SMOOTH"
);
}
);
width = 598;
}
);
leftKerningGroup = zero;
note = zero;
rightKerningGroup = zero;
unicode = 0030;
},
{
color = 1;
glyphname = one;
lastChange = "2020-06-16 10:26:24 +0000";
layers = (
{
layerId = "F91D9E91-C1BC-4259-B0D8-112C0CBA2B8E";
paths = (
{
closed = 1;
nodes = (
"285 0 LINE",
"420 697 LINE",
"410 697 LINE",
"395 619 LINE SMOOTH",
"390 591 OFFCURVE",
"373 581 OFFCURVE",
"344 581 CURVE SMOOTH",
"200 581 LINE",
"198 571 LINE",
"393 571 LINE",
"388 581 LINE",
"275 0 LINE"
);
}
);
width = 545;
},
{
layerId = "957254E3-B7AD-4837-9092-D4428001DE8E";
paths = (
{
closed = 1;
nodes = (
"373 0 LINE",
"508 697 LINE",
"357 697 LINE",
"351 665 LINE SMOOTH",
"340 609 OFFCURVE",
"310 590 OFFCURVE",
"260 590 CURVE SMOOTH",
"181 590 LINE",
"158 471 LINE",
"357 471 LINE",
"328 544 LINE",
"222 0 LINE"
);
}
);
width = 598;
}
);
leftKerningGroup = one;
note = one;
rightKerningGroup = one;
unicode = 0031;
},
{
color = 1;
glyphname = two;
lastChange = "2020-06-16 10:26:24 +0000";
layers = (
{
layerId = "F91D9E91-C1BC-4259-B0D8-112C0CBA2B8E";
paths = (
{
closed = 1;
nodes = (
"461 0 LINE",
"463 10 LINE",
"-2 10 LINE",
"0 18 LINE",
"232 152 OFFCURVE",
"480 297 OFFCURVE",
"521 508 CURVE SMOOTH",
"544 628 OFFCURVE",
"484 702 OFFCURVE",
"363 702 CURVE SMOOTH",
"233 702 OFFCURVE",
"145 622 OFFCURVE",
"118 482 CURVE",
"128 482 LINE",
"154 616 OFFCURVE",
"239 692 OFFCURVE",
"363 692 CURVE SMOOTH",
"477 692 OFFCURVE",
"533 623 OFFCURVE",
"511 510 CURVE SMOOTH",
"471 301 OFFCURVE",
"225 158 OFFCURVE",
"-9 24 CURVE",
"-14 0 LINE"
);
}
);
width = 545;
},
{
layerId = "957254E3-B7AD-4837-9092-D4428001DE8E";
paths = (
{
closed = 1;
nodes = (
"500 0 LINE",
"528 142 LINE",
"196 142 LINE",
"189 106 LINE",
"374 163 OFFCURVE",
"538 334 OFFCURVE",
"566 476 CURVE SMOOTH",
"593 614 OFFCURVE",
"515 705 OFFCURVE",
"385 705 CURVE SMOOTH",
"223 705 OFFCURVE",
"109 566 OFFCURVE",
"86 444 CURVE",
"231 432 LINE",
"246 486 OFFCURVE",
"277 559 OFFCURVE",
"353 559 CURVE SMOOTH",
"410 559 OFFCURVE",
"424 519 OFFCURVE",
"415 471 CURVE SMOOTH",
"386 322 OFFCURVE",
"142 179 OFFCURVE",
"32 120 CURVE",
"8 0 LINE"
);
}
);
width = 598;
}
);
leftKerningGroup = two;
note = two;
rightKerningGroup = two;
unicode = 0032;
},
{
color = 1;
glyphname = three;
lastChange = "2020-06-16 10:26:24 +0000";
layers = (
{
layerId = "F91D9E91-C1BC-4259-B0D8-112C0CBA2B8E";
paths = (
{
closed = 1;
nodes = (
"355 -5 OFFCURVE",
"462 73 OFFCURVE",
"484 189 CURVE SMOOTH",
"510 322 OFFCURVE",
"396 362 OFFCURVE",
"298 370 CURVE",
"384 377 OFFCURVE",
"492 414 OFFCURVE",
"515 533 CURVE SMOOTH",
"534 631 OFFCURVE",
"466 702 OFFCURVE",
"354 702 CURVE SMOOTH",
"240 702 OFFCURVE",
"147 631 OFFCURVE",
"127 525 CURVE",
"136 525 LINE",
"156 625 OFFCURVE",
"243 692 OFFCURVE",
"354 692 CURVE SMOOTH",
"459 692 OFFCURVE",
"522 625 OFFCURVE",
"504 535 CURVE SMOOTH",
"479 401 OFFCURVE",
"341 377 OFFCURVE",
"257 378 CURVE",
"254 361 LINE",
"359 362 OFFCURVE",
"502 332 OFFCURVE",
"475 191 CURVE SMOOTH",
"453 79 OFFCURVE",
"351 5 OFFCURVE",
"221 5 CURVE SMOOTH",
"87 5 OFFCURVE",
"17 78 OFFCURVE",
"39 195 CURVE",
"29 195 LINE",
"6 73 OFFCURVE",
"80 -5 OFFCURVE",
"220 -5 CURVE SMOOTH"
);
}
);
width = 545;
},
{
layerId = "957254E3-B7AD-4837-9092-D4428001DE8E";
paths = (
{
closed = 1;
nodes = (
"379 -10 OFFCURVE",
"524 63 OFFCURVE",
"554 219 CURVE SMOOTH",
"568 288 OFFCURVE",
"551 349 OFFCURVE",
"482 382 CURVE",
"531 407 OFFCURVE",
"563 454 OFFCURVE",
"574 512 CURVE SMOOTH",
"598 636 OFFCURVE",
"507 707 OFFCURVE",
"386 707 CURVE SMOOTH",
"260 707 OFFCURVE",
"134 629 OFFCURVE",
"108 493 CURVE",
"255 483 LINE",
"265 532 OFFCURVE",
"302 563 OFFCURVE",
"352 563 CURVE SMOOTH",
"397 563 OFFCURVE",
"429 539 OFFCURVE",
"419 489 CURVE SMOOTH",
"412 455 OFFCURVE",
"393 422 OFFCURVE",
"298 422 CURVE",
"275 304 LINE",
"342 304 OFFCURVE",
"421 309 OFFCURVE",
"405 226 CURVE SMOOTH",
"391 156 OFFCURVE",
"330 134 OFFCURVE",
"276 134 CURVE SMOOTH",
"208 134 OFFCURVE",
"161 169 OFFCURVE",
"174 236 CURVE",
"22 227 LINE",
"-10 65 OFFCURVE",
"105 -10 OFFCURVE",
"243 -10 CURVE SMOOTH"
);
}
);
width = 598;
}
);
leftKerningGroup = three;
note = three;
rightKerningGroup = three;
unicode = 0033;
},
{
color = 1;
glyphname = four;
lastChange = "2020-06-16 10:26:24 +0000";
layers = (
{
layerId = "F91D9E91-C1BC-4259-B0D8-112C0CBA2B8E";
paths = (
{
closed = 1;
nodes = (
"361 0 LINE",
"394 169 LINE",
"510 169 LINE",
"512 179 LINE",
"396 179 LINE",
"497 697 LINE",
"478 697 LINE",
"11 183 LINE",
"8 169 LINE",
"384 169 LINE",
"351 0 LINE"
);
},
{
closed = 1;
nodes = (
"483 687 LINE",
"485 687 LINE",
"386 179 LINE",
"16 179 LINE",
"16 175 LINE"
);
}
);
width = 545;
},
{
layerId = "957254E3-B7AD-4837-9092-D4428001DE8E";
paths = (
{
closed = 1;
nodes = (
"425 0 LINE",
"457 163 LINE",
"567 163 LINE",
"595 307 LINE",
"485 307 LINE",
"561 697 LINE",
"431 697 LINE",
"11 251 LINE",
"-6 163 LINE",
"306 163 LINE",
"274 0 LINE"
);
},
{
closed = 1;
nodes = (
"394 511 LINE",
"376 525 LINE",
"334 307 LINE",
"157 307 LINE",
"159 251 LINE"
);
}
);
width = 598;
}
);
leftKerningGroup = four;
note = four;
rightKerningGroup = four;
unicode = 0034;
},
{
color = 1;
glyphname = five;
lastChange = "2020-06-16 10:26:24 +0000";
layers = (
{
layerId = "F91D9E91-C1BC-4259-B0D8-112C0CBA2B8E";
paths = (
{
closed = 1;
nodes = (
"351 -5 OFFCURVE",
"468 97 OFFCURVE",
"494 227 CURVE SMOOTH",
"519 357 OFFCURVE",
"447 452 OFFCURVE",
"325 452 CURVE SMOOTH",
"250 452 OFFCURVE",
"174 415 OFFCURVE",
"111 349 CURVE",
"107 353 LINE",
"229 691 LINE",
"223 687 LINE",
"548 687 LINE",
"550 697 LINE",
"221 697 LINE",
"94 346 LINE",
"113 337 LINE",
"175 405 OFFCURVE",
"250 441 OFFCURVE",
"324 441 CURVE SMOOTH",
"440 441 OFFCURVE",
"508 352 OFFCURVE",
"484 229 CURVE SMOOTH",
"460 102 OFFCURVE",
"346 5 OFFCURVE",
"224 5 CURVE SMOOTH",
"120 5 OFFCURVE",
"52 75 OFFCURVE",
"50 185 CURVE",
"39 183 LINE",
"43 68 OFFCURVE",
"114 -5 OFFCURVE",
"223 -5 CURVE SMOOTH"
);
}
);
width = 545;
},
{
layerId = "957254E3-B7AD-4837-9092-D4428001DE8E";
paths = (
{
closed = 1;
nodes = (
"399 -11 OFFCURVE",
"531 114 OFFCURVE",
"557 247 CURVE SMOOTH",
"581 373 OFFCURVE",
"505 487 OFFCURVE",
"359 487 CURVE SMOOTH",
"320 487 OFFCURVE",
"265 481 OFFCURVE",
"202 425 CURVE",
"250 411 LINE",
"331 620 LINE",
"238 553 LINE",
"586 553 LINE",
"614 697 LINE",
"210 697 LINE",
"68 326 LINE",
"200 292 LINE",
"222 319 OFFCURVE",
"257 346 OFFCURVE",
"311 346 CURVE SMOOTH",
"391 346 OFFCURVE",
"406 296 OFFCURVE",
"397 247 CURVE SMOOTH",
"387 195 OFFCURVE",
"349 133 OFFCURVE",
"270 133 CURVE SMOOTH",
"193 133 OFFCURVE",
"172 190 OFFCURVE",
"178 231 CURVE",
"25 206 LINE",
"16 86 OFFCURVE",
"106 -11 OFFCURVE",
"244 -11 CURVE SMOOTH"
);
}
);
width = 598;
}
);
leftKerningGroup = five;
note = five;
rightKerningGroup = five;
unicode = 0035;
},
{
color = 1;
glyphname = six;
lastChange = "2020-06-16 10:26:24 +0000";
layers = (
{
layerId = "F91D9E91-C1BC-4259-B0D8-112C0CBA2B8E";
paths = (
{
closed = 1;
nodes = (
"346 -5 OFFCURVE",
"462 94 OFFCURVE",
"485 212 CURVE SMOOTH",
"509 333 OFFCURVE",
"429 432 OFFCURVE",
"309 432 CURVE SMOOTH",
"252 432 OFFCURVE",
"195 409 OFFCURVE",
"148 373 CURVE",
"148 371 LINE",
"399 697 LINE",
"388 697 LINE",
"106 331 LINE SMOOTH",
"79 296 OFFCURVE",
"58 259 OFFCURVE",
"49 213 CURVE SMOOTH",
"26 93 OFFCURVE",
"105 -5 OFFCURVE",
"226 -5 CURVE SMOOTH"
);
},
{
closed = 1;
nodes = (
"112 5 OFFCURVE",
"37 98 OFFCURVE",
"59 212 CURVE SMOOTH",
"82 329 OFFCURVE",
"195 422 OFFCURVE",
"309 422 CURVE SMOOTH",
"422 422 OFFCURVE",
"498 328 OFFCURVE",
"476 215 CURVE SMOOTH",
"453 99 OFFCURVE",
"341 5 OFFCURVE",
"226 5 CURVE SMOOTH"
);
}
);
width = 545;
},
{
layerId = "957254E3-B7AD-4837-9092-D4428001DE8E";
paths = (
{
closed = 1;
nodes = (
"394 -11 OFFCURVE",
"533 90 OFFCURVE",
"562 238 CURVE SMOOTH",
"589 374 OFFCURVE",
"505 477 OFFCURVE",
"367 477 CURVE SMOOTH",
"350 477 OFFCURVE",
"331 475 OFFCURVE",
"313 472 CURVE",
"327 448 LINE",
"544 697 LINE",
"370 697 LINE",
"100 371 LINE SMOOTH",
"65 329 OFFCURVE",
"43 282 OFFCURVE",
"34 237 CURVE SMOOTH",
"6 91 OFFCURVE",
"106 -11 OFFCURVE",
"251 -11 CURVE SMOOTH"
);
},
{
closed = 1;
nodes = (
"217 133 OFFCURVE",
"175 171 OFFCURVE",
"188 238 CURVE SMOOTH",
"201 306 OFFCURVE",
"258 344 OFFCURVE",
"320 344 CURVE SMOOTH",
"382 344 OFFCURVE",
"422 305 OFFCURVE",
"409 238 CURVE SMOOTH",
"396 171 OFFCURVE",
"340 133 OFFCURVE",
"279 133 CURVE SMOOTH"
);
}
);
width = 598;
}
);
leftKerningGroup = zero;
note = six;
rightKerningGroup = six;
unicode = 0036;
},
{
color = 1;
glyphname = seven;
lastChange = "2020-06-16 10:26:24 +0000";
layers = (
{
layerId = "F91D9E91-C1BC-4259-B0D8-112C0CBA2B8E";
paths = (
{
closed = 1;
nodes = (
"95 0 LINE",
"601 679 LINE",
"604 697 LINE",
"110 697 LINE",
"108 687 LINE",
"592 687 LINE",
"591 681 LINE",
"83 0 LINE"
);
}
);
width = 545;
},
{
layerId = "957254E3-B7AD-4837-9092-D4428001DE8E";
paths = (
{
closed = 1;
nodes = (
"216 0 LINE",
"627 620 LINE",
"642 697 LINE",
"137 697 LINE",
"109 553 LINE",
"493 553 LINE",
"467 617 LINE",
"42 0 LINE"
);
}
);
width = 598;
}
);
leftKerningGroup = seven;
note = seven;
rightKerningGroup = seven;
unicode = 0037;
},
{
color = 1;
glyphname = eight;
lastChange = "2020-06-16 10:26:24 +0000";
layers = (
{
layerId = "F91D9E91-C1BC-4259-B0D8-112C0CBA2B8E";
paths = (
{
closed = 1;
nodes = (
"328 -5 OFFCURVE",
"444 60 OFFCURVE",
"469 189 CURVE SMOOTH",
"488 288 OFFCURVE",
"438 361 OFFCURVE",
"346 379 CURVE",
"422 397 OFFCURVE",
"481 458 OFFCURVE",
"496 534 CURVE SMOOTH",
"515 633 OFFCURVE",
"460 702 OFFCURVE",
"362 702 CURVE SMOOTH",
"282 702 OFFCURVE",
"185 645 OFFCURVE",
"165 544 CURVE SMOOTH",
"149 460 OFFCURVE",
"184 398 OFFCURVE",
"251 379 CURVE",
"149 362 OFFCURVE",
"71 289 OFFCURVE",
"51 191 CURVE SMOOTH",
"26 60 OFFCURVE",
"121 -5 OFFCURVE",
"224 -5 CURVE SMOOTH"
);
},
{
closed = 1;
nodes = (
"124 5 OFFCURVE",
"37 66 OFFCURVE",
"61 189 CURVE SMOOTH",
"82 298 OFFCURVE",
"179 373 OFFCURVE",
"298 373 CURVE SMOOTH",
"413 373 OFFCURVE",
"480 298 OFFCURVE",
"459 191 CURVE SMOOTH",
"435 66 OFFCURVE",
"327 5 OFFCURVE",
"225 5 CURVE SMOOTH"
);
},
{
closed = 1;
nodes = (
"207 383 OFFCURVE",
"156 447 OFFCURVE",
"175 542 CURVE SMOOTH",
"194 639 OFFCURVE",
"283 692 OFFCURVE",
"362 692 CURVE SMOOTH",
"453 692 OFFCURVE",
"505 628 OFFCURVE",
"487 536 CURVE SMOOTH",
"469 447 OFFCURVE",
"391 383 OFFCURVE",
"301 383 CURVE SMOOTH"
);
}
);
width = 545;
},
{
layerId = "957254E3-B7AD-4837-9092-D4428001DE8E";
paths = (
{
closed = 1;
nodes = (
"392 -11 OFFCURVE",
"534 62 OFFCURVE",
"563 211 CURVE SMOOTH",
"576 279 OFFCURVE",
"563 338 OFFCURVE",
"512 379 CURVE",
"551 409 OFFCURVE",
"578 446 OFFCURVE",
"588 500 CURVE SMOOTH",
"614 630 OFFCURVE",
"515 708 OFFCURVE",
"389 708 CURVE SMOOTH",
"263 708 OFFCURVE",
"134 630 OFFCURVE",
"108 500 CURVE SMOOTH",
"98 446 OFFCURVE",
"111 409 OFFCURVE",
"138 379 CURVE",
"71 338 OFFCURVE",
"34 279 OFFCURVE",
"21 211 CURVE SMOOTH",
"-8 62 OFFCURVE",
"106 -11 OFFCURVE",
"249 -11 CURVE SMOOTH"
);
},
{
closed = 1;
nodes = (
"206 132 OFFCURVE",
"163 164 OFFCURVE",
"175 226 CURVE SMOOTH",
"187 288 OFFCURVE",
"243 319 OFFCURVE",
"313 319 CURVE SMOOTH",
"383 319 OFFCURVE",
"427 288 OFFCURVE",
"415 226 CURVE SMOOTH",
"403 164 OFFCURVE",
"348 132 OFFCURVE",
"277 132 CURVE SMOOTH"
);
},
{
closed = 1;
nodes = (
"280 421 OFFCURVE",
"249 447 OFFCURVE",
"257 490 CURVE SMOOTH",
"266 535 OFFCURVE",
"305 564 OFFCURVE",
"361 564 CURVE SMOOTH",
"417 564 OFFCURVE",
"444 535 OFFCURVE",
"435 490 CURVE SMOOTH",
"427 447 OFFCURVE",
"386 421 OFFCURVE",
"333 421 CURVE SMOOTH"
);
}
);
width = 598;
}
);
leftKerningGroup = eight;
note = eight;
rightKerningGroup = eight;
unicode = 0038;
},
{
color = 1;
glyphname = nine;
lastChange = "2020-06-16 10:26:24 +0000";
layers = (
{
layerId = "F91D9E91-C1BC-4259-B0D8-112C0CBA2B8E";
paths = (
{
closed = 1;
nodes = (
"197 0 LINE",
"479 366 LINE SMOOTH",
"506 401 OFFCURVE",
"527 438 OFFCURVE",
"536 484 CURVE SMOOTH",
"559 604 OFFCURVE",
"480 702 OFFCURVE",
"359 702 CURVE SMOOTH",
"239 702 OFFCURVE",
"123 603 OFFCURVE",
"100 485 CURVE SMOOTH",
"76 364 OFFCURVE",
"156 265 OFFCURVE",
"276 265 CURVE SMOOTH",
"333 265 OFFCURVE",
"390 288 OFFCURVE",
"437 324 CURVE",
"437 326 LINE",
"186 0 LINE"
);
},
{
closed = 1;
nodes = (
"163 275 OFFCURVE",
"87 369 OFFCURVE",
"109 482 CURVE SMOOTH",
"132 598 OFFCURVE",
"244 692 OFFCURVE",
"359 692 CURVE SMOOTH",
"473 692 OFFCURVE",
"548 599 OFFCURVE",
"526 485 CURVE SMOOTH",
"503 368 OFFCURVE",
"390 275 OFFCURVE",
"276 275 CURVE SMOOTH"
);
}
);
width = 545;
},
{
layerId = "957254E3-B7AD-4837-9092-D4428001DE8E";
paths = (
{
closed = 1;
nodes = (
"268 0 LINE",
"538 326 LINE SMOOTH",
"573 368 OFFCURVE",
"595 415 OFFCURVE",
"604 460 CURVE SMOOTH",
"632 606 OFFCURVE",
"532 708 OFFCURVE",
"387 708 CURVE SMOOTH",
"244 708 OFFCURVE",
"105 607 OFFCURVE",
"76 459 CURVE SMOOTH",
"49 323 OFFCURVE",
"133 220 OFFCURVE",
"271 220 CURVE SMOOTH",
"288 220 OFFCURVE",
"307 222 OFFCURVE",
"325 225 CURVE",
"311 249 LINE",
"94 0 LINE"
);
},
{
closed = 1;
nodes = (
"256 353 OFFCURVE",
"216 392 OFFCURVE",
"229 459 CURVE SMOOTH",
"242 526 OFFCURVE",
"298 564 OFFCURVE",
"359 564 CURVE SMOOTH",
"421 564 OFFCURVE",
"463 526 OFFCURVE",
"450 459 CURVE SMOOTH",
"437 391 OFFCURVE",
"380 353 OFFCURVE",
"318 353 CURVE SMOOTH"
);
}
);
width = 598;
}
);
leftKerningGroup = nine;
note = nine;
rightKerningGroup = zero;
unicode = 0039;
},
{
color = 1;
glyphname = onesuperior;
lastChange = "2020-06-16 10:26:24 +0000";
layers = (
{
layerId = "F91D9E91-C1BC-4259-B0D8-112C0CBA2B8E";
paths = (
{
closed = 1;
nodes = (
"181 488 LINE",
"261 902 LINE",
"251 902 LINE",
"243 858 LINE SMOOTH",
"239 840 OFFCURVE",
"228 833 OFFCURVE",
"209 833 CURVE SMOOTH",
"128 833 LINE",
"126 823 LINE",
"241 823 LINE",
"237 831 LINE",
"171 488 LINE"
);
}
);
width = 216;
},
{
layerId = "957254E3-B7AD-4837-9092-D4428001DE8E";
paths = (
{
closed = 1;
nodes = (
"204 488 LINE",
"284 902 LINE",
"209 902 LINE",
"205 879 LINE SMOOTH",
"199 850 OFFCURVE",
"180 838 OFFCURVE",
"151 838 CURVE SMOOTH",
"98 838 LINE",
"86 777 LINE",
"204 777 LINE",
"188 814 LINE",
"125 488 LINE"
);
}
);
width = 201;
}
);
leftKerningGroup = onesuperior;
rightKerningGroup = onesuperior;
unicode = 00B9;
},
{
color = 1;
glyphname = twosuperior;
lastChange = "2020-06-16 10:26:24 +0000";
layers = (
{
layerId = "F91D9E91-C1BC-4259-B0D8-112C0CBA2B8E";
paths = (
{
closed = 1;
nodes = (
"362 488 LINE",
"363 498 LINE",
"93 498 LINE",
"95 503 LINE",
"227 578 OFFCURVE",
"372 665 OFFCURVE",
"396 788 CURVE SMOOTH",
"410 861 OFFCURVE",
"373 905 OFFCURVE",
"301 905 CURVE SMOOTH",
"222 905 OFFCURVE",
"169 855 OFFCURVE",
"153 772 CURVE",
"163 772 LINE",
"178 849 OFFCURVE",
"229 895 OFFCURVE",
"300 895 CURVE SMOOTH",
"368 895 OFFCURVE",
"399 855 OFFCURVE",
"386 790 CURVE SMOOTH",
"362 667 OFFCURVE",
"211 580 OFFCURVE",
"78 504 CURVE",
"76 488 LINE"
);
}
);
width = 349;
},
{
layerId = "957254E3-B7AD-4837-9092-D4428001DE8E";
paths = (
{
closed = 1;
nodes = (
"363 488 LINE",
"377 560 LINE",
"158 560 LINE",
"178 553 LINE",
"263 590 OFFCURVE",
"381 685 OFFCURVE",
"399 778 CURVE SMOOTH",
"415 862 OFFCURVE",
"366 908 OFFCURVE",
"290 908 CURVE SMOOTH",
"197 908 OFFCURVE",
"129 831 OFFCURVE",
"114 755 CURVE",
"191 749 LINE",
"201 789 OFFCURVE",
"224 836 OFFCURVE",
"276 836 CURVE SMOOTH",
"315 836 OFFCURVE",
"325 810 OFFCURVE",
"319 780 CURVE SMOOTH",
"300 682 OFFCURVE",
"136 591 OFFCURVE",
"59 550 CURVE",
"47 488 LINE"
);
}
);
width = 325;
}
);
leftKerningGroup = twosuperior;
rightKerningGroup = twosuperior;
unicode = 00B2;
},
{
color = 1;
glyphname = threesuperior;
lastChange = "2020-06-16 10:26:24 +0000";
layers = (
{
layerId = "F91D9E91-C1BC-4259-B0D8-112C0CBA2B8E";
paths = (
{
closed = 1;
nodes = (
"301 483 OFFCURVE",
"367 529 OFFCURVE",
"381 599 CURVE SMOOTH",
"395 675 OFFCURVE",
"333 700 OFFCURVE",
"285 706 CURVE",
"326 712 OFFCURVE",
"385 735 OFFCURVE",
"398 801 CURVE SMOOTH",
"409 861 OFFCURVE",
"367 903 OFFCURVE",
"300 903 CURVE SMOOTH",
"232 903 OFFCURVE",
"175 861 OFFCURVE",
"163 796 CURVE",
"173 796 LINE",
"184 853 OFFCURVE",
"237 893 OFFCURVE",
"300 893 CURVE SMOOTH",
"359 893 OFFCURVE",
"398 853 OFFCURVE",
"388 802 CURVE SMOOTH",
"373 727 OFFCURVE",
"296 710 OFFCURVE",
"243 710 CURVE",
"241 700 LINE",
"303 701 OFFCURVE",
"387 682 OFFCURVE",
"371 601 CURVE SMOOTH",
"358 534 OFFCURVE",
"295 493 OFFCURVE",
"222 493 CURVE SMOOTH",
"146 493 OFFCURVE",
"103 534 OFFCURVE",
"116 604 CURVE",
"106 603 LINE",
"92 529 OFFCURVE",
"138 483 OFFCURVE",
"222 483 CURVE SMOOTH"
);
}
);
width = 359;
},
{
layerId = "957254E3-B7AD-4837-9092-D4428001DE8E";
paths = (
{
closed = 1;
nodes = (
"280 480 OFFCURVE",
"363 523 OFFCURVE",
"379 609 CURVE SMOOTH",
"388 651 OFFCURVE",
"379 696 OFFCURVE",
"328 711 CURVE",
"372 732 OFFCURVE",
"387 763 OFFCURVE",
"393 792 CURVE SMOOTH",
"407 864 OFFCURVE",
"350 906 OFFCURVE",
"281 906 CURVE SMOOTH",
"209 906 OFFCURVE",
"138 861 OFFCURVE",
"123 782 CURVE",
"197 777 LINE",
"205 811 OFFCURVE",
"233 832 OFFCURVE",
"269 832 CURVE SMOOTH",
"298 832 OFFCURVE",
"321 819 OFFCURVE",
"313 775 CURVE SMOOTH",
"308 751 OFFCURVE",
"296 729 OFFCURVE",
"230 729 CURVE",
"220 677 LINE",
"263 677 OFFCURVE",
"316 672 OFFCURVE",
"305 617 CURVE SMOOTH",
"296 571 OFFCURVE",
"254 553 OFFCURVE",
"215 553 CURVE SMOOTH",
"170 553 OFFCURVE",
"139 578 OFFCURVE",
"148 623 CURVE",
"71 618 LINE",
"53 525 OFFCURVE",
"117 480 OFFCURVE",
"199 480 CURVE SMOOTH"
);
}
);
width = 319;
}
);
leftKerningGroup = threesuperior;
rightKerningGroup = threesuperior;
unicode = 00B3;
},
{
glyphname = fraction;
lastChange = "2020-06-16 10:26:24 +0000";
layers = (
{
layerId = "F91D9E91-C1BC-4259-B0D8-112C0CBA2B8E";
paths = (
{
closed = 1;
nodes = (
"-38 0 LINE",
"325 697 LINE",
"315 697 LINE",
"-48 0 LINE"
);
}
);
width = 237;
},
{
layerId = "957254E3-B7AD-4837-9092-D4428001DE8E";
paths = (
{
closed = 1;
nodes = (
"-32 0 LINE",
"404 697 LINE",
"318 697 LINE",
"-118 0 LINE"
);
}
);
width = 220;
}
);
note = fraction;
unicode = 2044;
},
{
color = 1;
glyphname = onehalf;
lastChange = "2020-06-16 10:26:24 +0000";
layers = (
{
layerId = "F91D9E91-C1BC-4259-B0D8-112C0CBA2B8E";
paths = (
{
closed = 1;
nodes = (
"192 0 LINE",
"555 697 LINE",
"545 697 LINE",
"182 0 LINE"
);
},
{
closed = 1;
nodes = (
"185 280 LINE",
"265 694 LINE",
"255 694 LINE",
"247 650 LINE SMOOTH",
"243 632 OFFCURVE",
"232 625 OFFCURVE",
"213 625 CURVE SMOOTH",
"132 625 LINE",
"130 615 LINE",
"245 615 LINE",
"241 623 LINE",
"175 280 LINE"
);
},
{
closed = 1;
nodes = (
"695 0 LINE",
"697 10 LINE",
"427 10 LINE",
"428 15 LINE",
"561 90 OFFCURVE",
"705 177 OFFCURVE",
"729 300 CURVE SMOOTH",
"744 373 OFFCURVE",
"707 417 OFFCURVE",
"634 417 CURVE SMOOTH",
"556 417 OFFCURVE",
"502 367 OFFCURVE",
"486 284 CURVE",
"496 284 LINE",
"511 361 OFFCURVE",
"563 407 OFFCURVE",
"634 407 CURVE SMOOTH",
"702 407 OFFCURVE",
"732 367 OFFCURVE",
"720 302 CURVE SMOOTH",
"696 179 OFFCURVE",
"545 92 OFFCURVE",
"412 16 CURVE",
"409 0 LINE"
);
}
);
width = 814;
},
{
layerId = "957254E3-B7AD-4837-9092-D4428001DE8E";
paths = (
{
closed = 1;
nodes = (
"180 0 LINE",
"616 697 LINE",
"530 697 LINE",
"94 0 LINE"
);
},
{
closed = 1;
nodes = (
"175 280 LINE",
"255 694 LINE",
"180 694 LINE",
"176 671 LINE SMOOTH",
"170 642 OFFCURVE",
"151 630 OFFCURVE",
"122 630 CURVE SMOOTH",
"69 630 LINE",
"57 569 LINE",
"175 569 LINE",
"159 606 LINE",
"96 280 LINE"
);
},
{
closed = 1;
nodes = (
"699 0 LINE",
"713 72 LINE",
"494 72 LINE",
"515 65 LINE",
"600 102 OFFCURVE",
"717 197 OFFCURVE",
"735 290 CURVE SMOOTH",
"752 374 OFFCURVE",
"703 420 OFFCURVE",
"627 420 CURVE SMOOTH",
"534 420 OFFCURVE",
"466 343 OFFCURVE",
"451 267 CURVE",
"528 261 LINE",
"538 301 OFFCURVE",
"561 348 OFFCURVE",
"613 348 CURVE SMOOTH",
"652 348 OFFCURVE",
"662 322 OFFCURVE",
"656 292 CURVE SMOOTH",
"637 194 OFFCURVE",
"472 103 OFFCURVE",
"395 62 CURVE",
"383 0 LINE"
);
}
);
width = 758;
}
);
unicode = 00BD;
},
{
color = 1;
glyphname = onequarter;
lastChange = "2020-06-16 10:26:24 +0000";
layers = (
{
layerId = "F91D9E91-C1BC-4259-B0D8-112C0CBA2B8E";
paths = (
{
closed = 1;
nodes = (
"192 0 LINE",
"555 697 LINE",
"545 697 LINE",
"182 0 LINE"
);
},
{
closed = 1;
nodes = (
"185 280 LINE",
"265 694 LINE",
"255 694 LINE",
"247 650 LINE SMOOTH",
"243 632 OFFCURVE",
"232 625 OFFCURVE",
"213 625 CURVE SMOOTH",
"132 625 LINE",
"130 615 LINE",
"245 615 LINE",
"241 623 LINE",
"175 280 LINE"
);
},
{
closed = 1;
nodes = (
"628 0 LINE",
"648 103 LINE",
"717 103 LINE",
"719 113 LINE",
"650 113 LINE",
"709 414 LINE",
"695 414 LINE",
"420 112 LINE",
"418 103 LINE",
"638 103 LINE",
"618 0 LINE"
);
},
{
closed = 1;
nodes = (
"694 399 LINE",
"696 399 LINE",
"640 113 LINE",
"433 113 LINE"
);
}
);
width = 810;
},
{
layerId = "957254E3-B7AD-4837-9092-D4428001DE8E";
paths = (
{
closed = 1;
nodes = (
"180 0 LINE",
"616 697 LINE",
"530 697 LINE",
"94 0 LINE"
);
},
{
closed = 1;
nodes = (
"175 280 LINE",
"255 694 LINE",
"180 694 LINE",
"176 671 LINE SMOOTH",
"170 642 OFFCURVE",
"151 630 OFFCURVE",
"122 630 CURVE SMOOTH",
"69 630 LINE",
"57 569 LINE",
"175 569 LINE",
"159 606 LINE",
"96 280 LINE"
);
},
{
closed = 1;
nodes = (
"630 0 LINE",
"649 97 LINE",
"714 97 LINE",
"728 170 LINE",
"663 170 LINE",
"711 414 LINE",
"644 414 LINE",
"390 143 LINE",
"381 97 LINE",
"570 97 LINE",
"551 0 LINE"
);
},
{
closed = 1;
nodes = (
"633 320 LINE",
"614 326 LINE",
"584 170 LINE",
"498 170 LINE"
);
}
);
width = 747;
}
);
unicode = 00BC;
},
{
color = 1;
glyphname = threequarters;
lastChange = "2020-06-16 10:26:24 +0000";
layers = (
{
layerId = "F91D9E91-C1BC-4259-B0D8-112C0CBA2B8E";
paths = (
{
closed = 1;
nodes = (
"328 0 LINE",
"691 697 LINE",
"681 697 LINE",
"318 0 LINE"
);
},
{
closed = 1;
nodes = (
"297 277 OFFCURVE",
"363 323 OFFCURVE",
"377 393 CURVE SMOOTH",
"391 469 OFFCURVE",
"329 494 OFFCURVE",
"281 500 CURVE",
"322 506 OFFCURVE",
"381 529 OFFCURVE",
"394 595 CURVE SMOOTH",
"405 655 OFFCURVE",
"363 697 OFFCURVE",
"296 697 CURVE SMOOTH",
"228 697 OFFCURVE",
"171 655 OFFCURVE",
"159 590 CURVE",
"169 590 LINE",
"180 647 OFFCURVE",
"233 687 OFFCURVE",
"296 687 CURVE SMOOTH",
"355 687 OFFCURVE",
"394 647 OFFCURVE",
"384 596 CURVE SMOOTH",
"369 521 OFFCURVE",
"292 504 OFFCURVE",
"239 504 CURVE",
"237 494 LINE",
"299 495 OFFCURVE",
"383 476 OFFCURVE",
"367 395 CURVE SMOOTH",
"354 328 OFFCURVE",
"291 287 OFFCURVE",
"218 287 CURVE SMOOTH",
"142 287 OFFCURVE",
"99 328 OFFCURVE",
"112 398 CURVE",
"102 397 LINE",
"88 323 OFFCURVE",
"134 277 OFFCURVE",
"218 277 CURVE SMOOTH"
);
},
{
closed = 1;
nodes = (
"764 0 LINE",
"784 103 LINE",
"853 103 LINE",
"855 113 LINE",
"786 113 LINE",
"845 414 LINE",
"831 414 LINE",
"556 112 LINE",
"554 103 LINE",
"774 103 LINE",
"754 0 LINE"
);
},
{
closed = 1;
nodes = (
"830 399 LINE",
"832 399 LINE",
"776 113 LINE",
"569 113 LINE"
);
}
);
width = 946;
},
{
layerId = "957254E3-B7AD-4837-9092-D4428001DE8E";
paths = (
{
closed = 1;
nodes = (
"293 0 LINE",
"729 697 LINE",
"643 697 LINE",
"207 0 LINE"
);
},
{
closed = 1;
nodes = (
"246 274 OFFCURVE",
"329 317 OFFCURVE",
"345 403 CURVE SMOOTH",
"354 445 OFFCURVE",
"345 490 OFFCURVE",
"294 505 CURVE",
"338 526 OFFCURVE",
"353 557 OFFCURVE",
"359 586 CURVE SMOOTH",
"373 658 OFFCURVE",
"316 700 OFFCURVE",
"247 700 CURVE SMOOTH",
"175 700 OFFCURVE",
"104 655 OFFCURVE",
"89 576 CURVE",
"163 571 LINE",
"171 605 OFFCURVE",
"199 626 OFFCURVE",
"235 626 CURVE SMOOTH",
"264 626 OFFCURVE",
"287 613 OFFCURVE",
"279 569 CURVE SMOOTH",
"274 545 OFFCURVE",
"262 523 OFFCURVE",
"196 523 CURVE",
"186 471 LINE",
"229 471 OFFCURVE",
"282 466 OFFCURVE",
"271 411 CURVE SMOOTH",
"262 365 OFFCURVE",
"220 347 OFFCURVE",
"181 347 CURVE SMOOTH",
"136 347 OFFCURVE",
"105 372 OFFCURVE",
"114 417 CURVE",
"37 412 LINE",
"19 319 OFFCURVE",
"83 274 OFFCURVE",
"165 274 CURVE SMOOTH"
);
},
{
closed = 1;
nodes = (
"743 0 LINE",
"762 97 LINE",
"827 97 LINE",
"841 170 LINE",
"776 170 LINE",
"824 414 LINE",
"757 414 LINE",
"503 143 LINE",
"494 97 LINE",
"683 97 LINE",
"664 0 LINE"
);
},
{
closed = 1;
nodes = (
"746 320 LINE",
"727 326 LINE",
"697 170 LINE",
"611 170 LINE"
);
}
);
width = 860;
}
);
unicode = 00BE;
},
{
color = 1;
glyphname = period;
lastChange = "2020-06-16 10:26:24 +0000";
layers = (
{
layerId = "F91D9E91-C1BC-4259-B0D8-112C0CBA2B8E";
paths = (
{
closed = 1;
nodes = (
"104 0 LINE",
"121 87 LINE",
"110 87 LINE",
"93 0 LINE"
);
}
);
width = 293;
},
{
layerId = "957254E3-B7AD-4837-9092-D4428001DE8E";
paths = (
{
closed = 1;
nodes = (
"169 0 LINE",
"197 142 LINE",
"57 142 LINE",
"29 0 LINE"
);
}
);
width = 294;
}
);
leftKerningGroup = comma;
note = period;
rightKerningGroup = comma;
unicode = 002E;
},
{
color = 1;
glyphname = comma;
lastChange = "2020-06-16 10:26:24 +0000";
layers = (
{
layerId = "F91D9E91-C1BC-4259-B0D8-112C0CBA2B8E";
paths = (
{
closed = 1;
nodes = (
"19 -162 LINE",
"214 128 LINE",
"203 128 LINE",
"7 -162 LINE"
);
}
);
width = 324;
},
{
layerId = "957254E3-B7AD-4837-9092-D4428001DE8E";
paths = (
{
closed = 1;
nodes = (
"75 -145 LINE",
"258 162 LINE",
"89 162 LINE",
"-23 -145 LINE"
);
}
);
width = 295;
}
);
leftKerningGroup = comma;
note = comma;
rightKerningGroup = comma;
unicode = 002C;
},
{
color = 1;
glyphname = colon;
lastChange = "2020-06-16 10:26:24 +0000";
layers = (
{
layerId = "F91D9E91-C1BC-4259-B0D8-112C0CBA2B8E";
paths = (
{
closed = 1;
nodes = (
"182 384 LINE",
"199 471 LINE",
"188 471 LINE",
"171 384 LINE"
);
},
{
closed = 1;
nodes = (
"107 0 LINE",
"124 87 LINE",
"113 87 LINE",
"96 0 LINE"
);
}
);
width = 299;
},
{
layerId = "957254E3-B7AD-4837-9092-D4428001DE8E";
paths = (
{
closed = 1;
nodes = (
"251 327 LINE",
"279 471 LINE",
"123 471 LINE",
"95 327 LINE"
);
},
{
closed = 1;
nodes = (
"187 0 LINE",
"215 142 LINE",
"59 142 LINE",
"31 0 LINE"
);
}
);
width = 314;
}
);
leftKerningGroup = colon;
note = colon;
rightKerningGroup = colon;
unicode = 003A;
},
{
color = 1;
glyphname = semicolon;
lastChange = "2020-06-16 10:26:24 +0000";
layers = (
{
layerId = "F91D9E91-C1BC-4259-B0D8-112C0CBA2B8E";
paths = (
{
closed = 1;
nodes = (
"4 -162 LINE",
"199 128 LINE",
"188 128 LINE",
"-8 -162 LINE"
);
},
{
closed = 1;
nodes = (
"229 384 LINE",
"246 471 LINE",
"236 471 LINE",
"219 384 LINE"
);
}
);
width = 331;
},
{
layerId = "957254E3-B7AD-4837-9092-D4428001DE8E";
paths = (
{
closed = 1;
nodes = (
"64 -145 LINE",
"240 131 LINE",
"71 131 LINE",
"-36 -145 LINE"
);
},
{
closed = 1;
nodes = (
"265 327 LINE",
"293 471 LINE",
"136 471 LINE",
"108 327 LINE"
);
}
);
width = 308;
}
);
leftKerningGroup = colon;
note = semicolon;
rightKerningGroup = colon;
unicode = 003B;
},
{
color = 1;
glyphname = ellipsis;
lastChange = "2020-06-16 10:26:24 +0000";
layers = (
{
layerId = "F91D9E91-C1BC-4259-B0D8-112C0CBA2B8E";
paths = (
{
closed = 1;
nodes = (
"308 0 LINE",
"325 87 LINE",
"314 87 LINE",
"297 0 LINE"
);
},
{
closed = 1;
nodes = (
"104 0 LINE",
"121 87 LINE",
"110 87 LINE",
"93 0 LINE"
);
},
{
closed = 1;
nodes = (
"512 0 LINE",
"529 87 LINE",
"519 87 LINE",
"502 0 LINE"
);
}
);
width = 701;
},
{
layerId = "957254E3-B7AD-4837-9092-D4428001DE8E";
paths = (
{
closed = 1;
nodes = (
"577 0 LINE",
"605 142 LINE",
"465 142 LINE",
"437 0 LINE"
);
},
{
closed = 1;
nodes = (
"169 0 LINE",
"197 142 LINE",
"57 142 LINE",
"29 0 LINE"
);
},
{
closed = 1;
nodes = (
"373 0 LINE",
"401 142 LINE",
"261 142 LINE",
"233 0 LINE"
);
}
);
width = 702;
}
);
leftKerningGroup = comma;
note = ellipsis;
rightKerningGroup = comma;
unicode = 2026;
},
{
color = 1;
glyphname = exclam;
lastChange = "2020-06-16 10:26:24 +0000";
layers = (
{
layerId = "F91D9E91-C1BC-4259-B0D8-112C0CBA2B8E";
paths = (
{
closed = 1;
nodes = (
"143 182 LINE",
"244 697 LINE",
"233 697 LINE",
"132 182 LINE"
);
},
{
closed = 1;
nodes = (
"108 0 LINE",
"125 87 LINE",
"114 87 LINE",
"97 0 LINE"
);
}
);
width = 301;
},
{
layerId = "957254E3-B7AD-4837-9092-D4428001DE8E";
paths = (
{
closed = 1;
nodes = (
"200 219 LINE",
"311 697 LINE",
"162 697 LINE",
"86 219 LINE"
);
},
{
closed = 1;
nodes = (
"178 0 LINE",
"206 142 LINE",
"50 142 LINE",
"22 0 LINE"
);
}
);
width = 296;
}
);
leftKerningGroup = exclam;
note = exclam;
rightKerningGroup = exclam;
unicode = 0021;
},
{
color = 1;
glyphname = exclamdown;
lastChange = "2020-06-16 10:26:24 +0000";
layers = (
{
layerId = "F91D9E91-C1BC-4259-B0D8-112C0CBA2B8E";
paths = (
{
closed = 1;
nodes = (
"68 -204 LINE",
"169 311 LINE",
"158 311 LINE",
"57 -204 LINE"
);
},
{
closed = 1;
nodes = (
"187 406 LINE",
"204 493 LINE",
"193 493 LINE",
"176 406 LINE"
);
}
);
width = 301;
},
{
layerId = "957254E3-B7AD-4837-9092-D4428001DE8E";
paths = (
{
closed = 1;
nodes = (
"134 -204 LINE",
"210 274 LINE",
"96 274 LINE",
"-15 -204 LINE"
);
},
{
closed = 1;
nodes = (
"246 351 LINE",
"274 493 LINE",
"118 493 LINE",
"90 351 LINE"
);
}
);
width = 296;
}
);
leftKerningGroup = exclamdown;
note = exclamdown;
rightKerningGroup = exclamdown;
unicode = 00A1;
},
{
color = 1;
glyphname = question;
lastChange = "2020-06-16 10:26:24 +0000";
layers = (
{
layerId = "F91D9E91-C1BC-4259-B0D8-112C0CBA2B8E";
paths = (
{
closed = 1;
nodes = (
"260 180 LINE",
"278 272 LINE SMOOTH",
"302 398 OFFCURVE",
"483 363 OFFCURVE",
"515 531 CURVE SMOOTH",
"536 640 OFFCURVE",
"476 702 OFFCURVE",
"352 702 CURVE SMOOTH",
"239 702 OFFCURVE",
"152 635 OFFCURVE",
"131 532 CURVE",
"140 532 LINE",
"160 629 OFFCURVE",
"243 692 OFFCURVE",
"351 692 CURVE SMOOTH",
"470 692 OFFCURVE",
"525 634 OFFCURVE",
"506 533 CURVE SMOOTH",
"475 374 OFFCURVE",
"294 408 OFFCURVE",
"268 272 CURVE SMOOTH",
"250 180 LINE"
);
},
{
closed = 1;
nodes = (
"225 0 LINE",
"242 87 LINE",
"232 87 LINE",
"215 0 LINE"
);
}
);
width = 543;
},
{
layerId = "957254E3-B7AD-4837-9092-D4428001DE8E";
paths = (
{
closed = 1;
nodes = (
"286 217 LINE",
"289 232 LINE SMOOTH",
"313 353 OFFCURVE",
"473 339 OFFCURVE",
"507 515 CURVE SMOOTH",
"534 655 OFFCURVE",
"442 708 OFFCURVE",
"329 708 CURVE SMOOTH",
"188 708 OFFCURVE",
"75 625 OFFCURVE",
"46 477 CURVE",
"179 477 LINE",
"191 547 OFFCURVE",
"231 583 OFFCURVE",
"301 583 CURVE SMOOTH",
"356 583 OFFCURVE",
"385 562 OFFCURVE",
"377 518 CURVE SMOOTH",
"358 422 OFFCURVE",
"200 424 OFFCURVE",
"164 243 CURVE SMOOTH",
"159 217 LINE"
);
},
{
closed = 1;
nodes = (
"260 0 LINE",
"288 142 LINE",
"133 142 LINE",
"105 0 LINE"
);
}
);
width = 465;
}
);
leftKerningGroup = question;
note = question;
rightKerningGroup = question;
unicode = 003F;
},
{
color = 1;
glyphname = questiondown;
lastChange = "2020-06-16 10:26:24 +0000";
layers = (
{
layerId = "F91D9E91-C1BC-4259-B0D8-112C0CBA2B8E";
paths = (
{
closed = 1;
nodes = (
"304 -209 OFFCURVE",
"391 -142 OFFCURVE",
"412 -39 CURVE",
"403 -39 LINE",
"383 -136 OFFCURVE",
"300 -199 OFFCURVE",
"192 -199 CURVE SMOOTH",
"73 -199 OFFCURVE",
"18 -141 OFFCURVE",
"37 -40 CURVE SMOOTH",
"68 119 OFFCURVE",
"249 85 OFFCURVE",
"275 221 CURVE SMOOTH",
"293 313 LINE",
"283 313 LINE",
"265 221 LINE SMOOTH",
"241 95 OFFCURVE",
"60 130 OFFCURVE",
"28 -38 CURVE SMOOTH",
"7 -147 OFFCURVE",
"67 -209 OFFCURVE",
"191 -209 CURVE SMOOTH"
);
},
{
closed = 1;
nodes = (
"311 406 LINE",
"328 493 LINE",
"318 493 LINE",
"301 406 LINE"
);
}
);
width = 543;
},
{
layerId = "957254E3-B7AD-4837-9092-D4428001DE8E";
paths = (
{
closed = 1;
nodes = (
"277 -215 OFFCURVE",
"390 -132 OFFCURVE",
"419 16 CURVE",
"286 16 LINE",
"274 -54 OFFCURVE",
"234 -90 OFFCURVE",
"164 -90 CURVE SMOOTH",
"109 -90 OFFCURVE",
"80 -69 OFFCURVE",
"88 -25 CURVE SMOOTH",
"107 71 OFFCURVE",
"265 69 OFFCURVE",
"301 250 CURVE SMOOTH",
"306 276 LINE",
"179 276 LINE",
"176 261 LINE SMOOTH",
"152 140 OFFCURVE",
"-8 154 OFFCURVE",
"-42 -22 CURVE SMOOTH",
"-69 -162 OFFCURVE",
"23 -215 OFFCURVE",
"136 -215 CURVE SMOOTH"
);
},
{
closed = 1;
nodes = (
"332 351 LINE",
"360 493 LINE",
"205 493 LINE",
"177 351 LINE"
);
}
);
width = 464;
}
);
leftKerningGroup = questiondown;
note = questiondown;
rightKerningGroup = questiondown;
unicode = 00BF;
},
{
color = 1;
glyphname = bullet;
lastChange = "2020-06-16 10:26:24 +0000";
layers = (
{
layerId = "F91D9E91-C1BC-4259-B0D8-112C0CBA2B8E";
paths = (
{
closed = 1;
nodes = (
"271 120 OFFCURVE",
"334 173 OFFCURVE",
"346 236 CURVE SMOOTH",
"359 302 OFFCURVE",
"316 355 OFFCURVE",
"250 355 CURVE SMOOTH",
"187 355 OFFCURVE",
"124 302 OFFCURVE",
"111 238 CURVE SMOOTH",
"99 173 OFFCURVE",
"142 120 OFFCURVE",
"206 120 CURVE SMOOTH"
);
}
);
width = 462;
},
{
layerId = "957254E3-B7AD-4837-9092-D4428001DE8E";
paths = (
{
closed = 1;
nodes = (
"205 120 OFFCURVE",
"268 174 OFFCURVE",
"280 237 CURVE SMOOTH",
"293 302 OFFCURVE",
"250 355 OFFCURVE",
"186 355 CURVE SMOOTH",
"121 355 OFFCURVE",
"59 301 OFFCURVE",
"46 237 CURVE SMOOTH",
"34 173 OFFCURVE",
"75 120 OFFCURVE",
"140 120 CURVE SMOOTH"
);
}
);
width = 330;
}
);
leftKerningGroup = bullet;
note = bullet;
rightKerningGroup = bullet;
unicode = 2022;
},
{
color = 1;
glyphname = asterisk;
lastChange = "2020-06-16 10:26:24 +0000";
layers = (
{
layerId = "F91D9E91-C1BC-4259-B0D8-112C0CBA2B8E";
paths = (
{
closed = 1;
nodes = (
"294 548 LINE",
"331 421 LINE",
"374 449 LINE",
"301 556 LINE",
"439 575 LINE",
"433 623 LINE",
"300 565 LINE",
"346 697 LINE",
"301 697 LINE",
"293 565 LINE",
"184 623 LINE",
"160 575 LINE",
"289 556 LINE",
"174 449 LINE",
"206 421 LINE"
);
}
);
width = 472;
},
{
layerId = "957254E3-B7AD-4837-9092-D4428001DE8E";
paths = (
{
closed = 1;
nodes = (
"240 504 LINE",
"271 408 LINE",
"365 466 LINE",
"311 536 LINE",
"411 551 LINE",
"399 642 LINE",
"302 607 LINE",
"331 697 LINE",
"228 697 LINE",
"223 607 LINE",
"140 642 LINE",
"90 551 LINE",
"184 536 LINE",
"104 466 LINE",
"175 408 LINE"
);
}
);
width = 386;
}
);
leftKerningGroup = asterisk;
note = asterisk;
rightKerningGroup = asterisk;
unicode = 002A;
},
{
color = 1;
glyphname = numbersign;
lastChange = "2020-06-16 10:26:24 +0000";
layers = (
{
layerId = "F91D9E91-C1BC-4259-B0D8-112C0CBA2B8E";
paths = (
{
closed = 1;
nodes = (
"120 0 LINE",
"207 219 LINE",
"434 219 LINE",
"346 0 LINE",
"357 0 LINE",
"445 219 LINE",
"593 219 LINE",
"595 229 LINE",
"449 229 LINE",
"550 483 LINE",
"687 483 LINE",
"689 493 LINE",
"554 493 LINE",
"636 697 LINE",
"624 697 LINE",
"543 493 LINE",
"317 493 LINE",
"398 697 LINE",
"387 697 LINE",
"306 493 LINE",
"162 493 LINE",
"160 483 LINE",
"302 483 LINE",
"201 229 LINE",
"68 229 LINE",
"66 219 LINE",
"197 219 LINE",
"109 0 LINE"
);
},
{
closed = 1;
nodes = (
"313 483 LINE",
"539 483 LINE",
"438 229 LINE",
"211 229 LINE"
);
}
);
width = 712;
},
{
layerId = "957254E3-B7AD-4837-9092-D4428001DE8E";
paths = (
{
closed = 1;
nodes = (
"158 0 LINE",
"239 200 LINE",
"334 200 LINE",
"251 0 LINE",
"368 0 LINE",
"451 200 LINE",
"587 200 LINE",
"608 306 LINE",
"494 306 LINE",
"534 400 LINE",
"666 400 LINE",
"686 506 LINE",
"576 506 LINE",
"660 697 LINE",
"541 697 LINE",
"461 506 LINE",
"367 506 LINE",
"450 697 LINE",
"331 697 LINE",
"249 511 LINE",
"113 511 LINE",
"92 400 LINE",
"205 400 LINE",
"167 306 LINE",
"34 306 LINE",
"13 200 LINE",
"124 200 LINE",
"41 0 LINE"
);
},
{
closed = 1;
nodes = (
"322 400 LINE",
"416 400 LINE",
"380 306 LINE",
"286 306 LINE"
);
}
);
width = 658;
}
);
leftKerningGroup = numbersign;
note = numbersign;
rightKerningGroup = numbersign;
unicode = 0023;
},
{
color = 1;
glyphname = slash;
lastChange = "2020-06-16 10:26:24 +0000";
layers = (
{
layerId = "F91D9E91-C1BC-4259-B0D8-112C0CBA2B8E";
paths = (
{
closed = 1;
nodes = (
"-48 -209 LINE",
"477 697 LINE",
"464 697 LINE",
"-61 -209 LINE"
);
}
);
width = 417;
},
{
layerId = "957254E3-B7AD-4837-9092-D4428001DE8E";
paths = (
{
closed = 1;
nodes = (
"-10 -212 LINE",
"532 697 LINE",
"419 697 LINE",
"-122 -212 LINE"
);
}
);
width = 411;
}
);
leftKerningGroup = slash;
note = slash;
rightKerningGroup = slash;
unicode = 002F;
},
{
color = 1;
glyphname = backslash;
lastChange = "2020-06-16 10:26:24 +0000";
layers = (
{
layerId = "F91D9E91-C1BC-4259-B0D8-112C0CBA2B8E";
paths = (
{
closed = 1;
nodes = (
"300 -209 LINE",
"127 697 LINE",
"116 697 LINE",
"289 -209 LINE"
);
}
);
width = 417;
},
{
layerId = "957254E3-B7AD-4837-9092-D4428001DE8E";
paths = (
{
closed = 1;
nodes = (
"359 -212 LINE",
"172 697 LINE",
"59 697 LINE",
"247 -212 LINE"
);
}
);
width = 411;
}
);
leftKerningGroup = backslash;
note = backslash;
rightKerningGroup = backslash;
unicode = 005C;
},
{
color = 1;
glyphname = triangularbullet;
lastChange = "2020-06-16 10:26:24 +0000";
layers = (
{
layerId = "F91D9E91-C1BC-4259-B0D8-112C0CBA2B8E";
paths = (
{
closed = 1;
nodes = (
"334 236 LINE",
"162 343 LINE",
"120 128 LINE"
);
}
);
width = 425;
},
{
layerId = "957254E3-B7AD-4837-9092-D4428001DE8E";
paths = (
{
closed = 1;
nodes = (
"450 271 LINE",
"126 486 LINE",
"42 55 LINE"
);
}
);
width = 442;
}
);
note = uni2023;
unicode = 2023;
},
{
color = 1;
glyphname = twodotenleader;
lastChange = "2020-06-16 10:26:24 +0000";
layers = (
{
layerId = "F91D9E91-C1BC-4259-B0D8-112C0CBA2B8E";
paths = (
{
closed = 1;
nodes = (
"308 0 LINE",
"325 87 LINE",
"314 87 LINE",
"297 0 LINE"
);
},
{
closed = 1;
nodes = (
"104 0 LINE",
"121 87 LINE",
"110 87 LINE",
"93 0 LINE"
);
}
);
width = 497;
},
{
layerId = "957254E3-B7AD-4837-9092-D4428001DE8E";
paths = (
{
closed = 1;
nodes = (
"385 0 LINE",
"413 142 LINE",
"261 142 LINE",
"233 0 LINE"
);
},
{
closed = 1;
nodes = (
"181 0 LINE",
"209 142 LINE",
"57 142 LINE",
"29 0 LINE"
);
}
);
width = 510;
}
);
note = twodotenleader;
unicode = 2025;
},
{
color = 1;
glyphname = period.ss03;
lastChange = "2020-06-16 10:26:24 +0000";
layers = (
{
layerId = "F91D9E91-C1BC-4259-B0D8-112C0CBA2B8E";
paths = (
{
closed = 1;
nodes = (
"108 -5 OFFCURVE",
"116 2 OFFCURVE",
"118 10 CURVE SMOOTH",
"120 20 OFFCURVE",
"114 27 OFFCURVE",
"105 27 CURVE SMOOTH",
"96 27 OFFCURVE",
"88 20 OFFCURVE",
"86 12 CURVE SMOOTH",
"85 2 OFFCURVE",
"90 -5 OFFCURVE",
"100 -5 CURVE SMOOTH"
);
}
);
width = 296;
},
{
layerId = "957254E3-B7AD-4837-9092-D4428001DE8E";
paths = (
{
closed = 1;
nodes = (
"137 -11 OFFCURVE",
"181 27 OFFCURVE",
"191 75 CURVE SMOOTH",
"200 123 OFFCURVE",
"170 160 OFFCURVE",
"122 160 CURVE SMOOTH",
"74 160 OFFCURVE",
"30 123 OFFCURVE",
"21 75 CURVE SMOOTH",
"11 27 OFFCURVE",
"42 -11 OFFCURVE",
"89 -11 CURVE SMOOTH"
);
}
);
width = 279;
}
);
leftKerningGroup = comma;
note = period;
rightKerningGroup = comma;
},
{
color = 1;
glyphname = colon.ss03;
lastChange = "2020-06-16 10:26:24 +0000";
layers = (
{
layerId = "F91D9E91-C1BC-4259-B0D8-112C0CBA2B8E";
paths = (
{
closed = 1;
nodes = (
"194 415 OFFCURVE",
"202 422 OFFCURVE",
"204 430 CURVE SMOOTH",
"206 440 OFFCURVE",
"200 447 OFFCURVE",
"190 447 CURVE SMOOTH",
"182 447 OFFCURVE",
"174 440 OFFCURVE",
"172 432 CURVE SMOOTH",
"170 422 OFFCURVE",
"176 415 OFFCURVE",
"186 415 CURVE SMOOTH"
);
},
{
closed = 1;
nodes = (
"112 -5 OFFCURVE",
"120 2 OFFCURVE",
"122 10 CURVE SMOOTH",
"124 20 OFFCURVE",
"118 27 OFFCURVE",
"109 27 CURVE SMOOTH",
"100 27 OFFCURVE",
"92 20 OFFCURVE",
"90 12 CURVE SMOOTH",
"89 2 OFFCURVE",
"94 -5 OFFCURVE",
"104 -5 CURVE SMOOTH"
);
}
);
width = 304;
},
{
layerId = "957254E3-B7AD-4837-9092-D4428001DE8E";
paths = (
{
closed = 1;
nodes = (
"195 301 OFFCURVE",
"239 339 OFFCURVE",
"248 387 CURVE SMOOTH",
"258 435 OFFCURVE",
"228 472 OFFCURVE",
"180 472 CURVE SMOOTH",
"132 472 OFFCURVE",
"88 435 OFFCURVE",
"78 387 CURVE SMOOTH",
"69 339 OFFCURVE",
"100 301 OFFCURVE",
"147 301 CURVE SMOOTH"
);
},
{
closed = 1;
nodes = (
"134 -11 OFFCURVE",
"178 27 OFFCURVE",
"188 75 CURVE SMOOTH",
"197 123 OFFCURVE",
"167 160 OFFCURVE",
"119 160 CURVE SMOOTH",
"71 160 OFFCURVE",
"27 123 OFFCURVE",
"18 75 CURVE SMOOTH",
"8 27 OFFCURVE",
"39 -11 OFFCURVE",
"86 -11 CURVE SMOOTH"
);
}
);
width = 273;
}
);
leftKerningGroup = colon;
note = colon;
rightKerningGroup = colon;
},
{
color = 1;
glyphname = semicolon.ss03;
lastChange = "2020-06-16 10:26:24 +0000";
layers = (
{
layerId = "F91D9E91-C1BC-4259-B0D8-112C0CBA2B8E";
paths = (
{
closed = 1;
nodes = (
"4 -162 LINE",
"199 128 LINE",
"188 128 LINE",
"-8 -162 LINE"
);
},
{
closed = 1;
nodes = (
"248 415 OFFCURVE",
"256 422 OFFCURVE",
"258 430 CURVE SMOOTH",
"260 440 OFFCURVE",
"254 447 OFFCURVE",
"244 447 CURVE SMOOTH",
"236 447 OFFCURVE",
"228 440 OFFCURVE",
"226 432 CURVE SMOOTH",
"224 422 OFFCURVE",
"230 415 OFFCURVE",
"240 415 CURVE SMOOTH"
);
}
);
width = 335;
},
{
layerId = "957254E3-B7AD-4837-9092-D4428001DE8E";
paths = (
{
closed = 1;
nodes = (
"53 -145 LINE",
"229 131 LINE",
"60 131 LINE",
"-47 -145 LINE"
);
},
{
closed = 1;
nodes = (
"221 301 OFFCURVE",
"265 339 OFFCURVE",
"274 387 CURVE SMOOTH",
"284 435 OFFCURVE",
"254 472 OFFCURVE",
"206 472 CURVE SMOOTH",
"158 472 OFFCURVE",
"114 435 OFFCURVE",
"104 387 CURVE SMOOTH",
"95 339 OFFCURVE",
"126 301 OFFCURVE",
"173 301 CURVE SMOOTH"
);
}
);
width = 289;
}
);
leftKerningGroup = colon;
note = semicolon;
rightKerningGroup = colon;
},
{
color = 1;
glyphname = ellipsis.ss03;
lastChange = "2020-06-16 10:26:24 +0000";
layers = (
{
layerId = "F91D9E91-C1BC-4259-B0D8-112C0CBA2B8E";
paths = (
{
closed = 1;
nodes = (
"484 -5 OFFCURVE",
"492 2 OFFCURVE",
"494 10 CURVE SMOOTH",
"496 20 OFFCURVE",
"490 27 OFFCURVE",
"481 27 CURVE SMOOTH",
"472 27 OFFCURVE",
"464 20 OFFCURVE",
"462 12 CURVE SMOOTH",
"461 2 OFFCURVE",
"466 -5 OFFCURVE",
"476 -5 CURVE SMOOTH"
);
},
{
closed = 1;
nodes = (
"108 -5 OFFCURVE",
"116 2 OFFCURVE",
"118 10 CURVE SMOOTH",
"120 20 OFFCURVE",
"114 27 OFFCURVE",
"105 27 CURVE SMOOTH",
"96 27 OFFCURVE",
"88 20 OFFCURVE",
"86 12 CURVE SMOOTH",
"85 2 OFFCURVE",
"90 -5 OFFCURVE",
"100 -5 CURVE SMOOTH"
);
},
{
closed = 1;
nodes = (
"296 -5 OFFCURVE",
"304 2 OFFCURVE",
"306 10 CURVE SMOOTH",
"308 20 OFFCURVE",
"302 27 OFFCURVE",
"293 27 CURVE SMOOTH",
"284 27 OFFCURVE",
"276 20 OFFCURVE",
"274 12 CURVE SMOOTH",
"273 2 OFFCURVE",
"278 -5 OFFCURVE",
"288 -5 CURVE SMOOTH"
);
}
);
width = 672;
},
{
layerId = "957254E3-B7AD-4837-9092-D4428001DE8E";
paths = (
{
closed = 1;
nodes = (
"530 -11 OFFCURVE",
"574 27 OFFCURVE",
"584 75 CURVE SMOOTH",
"593 122 OFFCURVE",
"563 159 OFFCURVE",
"515 159 CURVE SMOOTH",
"467 159 OFFCURVE",
"424 122 OFFCURVE",
"415 75 CURVE SMOOTH",
"405 27 OFFCURVE",
"435 -11 OFFCURVE",
"482 -11 CURVE SMOOTH"
);
},
{
closed = 1;
nodes = (
"138 -11 OFFCURVE",
"181 27 OFFCURVE",
"191 75 CURVE SMOOTH",
"200 122 OFFCURVE",
"171 159 OFFCURVE",
"123 159 CURVE SMOOTH",
"75 159 OFFCURVE",
"31 122 OFFCURVE",
"22 75 CURVE SMOOTH",
"12 27 OFFCURVE",
"43 -11 OFFCURVE",
"90 -11 CURVE SMOOTH"
);
},
{
closed = 1;
nodes = (
"334 -11 OFFCURVE",
"377 27 OFFCURVE",
"387 75 CURVE SMOOTH",
"396 122 OFFCURVE",
"367 159 OFFCURVE",
"319 159 CURVE SMOOTH",
"271 159 OFFCURVE",
"228 122 OFFCURVE",
"219 75 CURVE SMOOTH",
"209 27 OFFCURVE",
"239 -11 OFFCURVE",
"286 -11 CURVE SMOOTH"
);
}
);
width = 672;
}
);
leftKerningGroup = comma;
note = ellipsis;
rightKerningGroup = comma;
},
{
color = 1;
glyphname = exclam.ss03;
lastChange = "2020-06-16 10:26:24 +0000";
layers = (
{
layerId = "F91D9E91-C1BC-4259-B0D8-112C0CBA2B8E";
paths = (
{
closed = 1;
nodes = (
"143 182 LINE",
"244 697 LINE",
"233 697 LINE",
"132 182 LINE"
);
},
{
closed = 1;
nodes = (
"110 -5 OFFCURVE",
"118 2 OFFCURVE",
"120 10 CURVE SMOOTH",
"122 20 OFFCURVE",
"116 27 OFFCURVE",
"107 27 CURVE SMOOTH",
"98 27 OFFCURVE",
"90 20 OFFCURVE",
"88 12 CURVE SMOOTH",
"87 2 OFFCURVE",
"92 -5 OFFCURVE",
"102 -5 CURVE SMOOTH"
);
}
);
width = 301;
},
{
layerId = "957254E3-B7AD-4837-9092-D4428001DE8E";
paths = (
{
closed = 1;
nodes = (
"194 219 LINE",
"305 697 LINE",
"156 697 LINE",
"80 219 LINE"
);
},
{
closed = 1;
nodes = (
"141 -11 OFFCURVE",
"184 27 OFFCURVE",
"194 76 CURVE SMOOTH",
"203 124 OFFCURVE",
"174 161 OFFCURVE",
"125 161 CURVE SMOOTH",
"76 161 OFFCURVE",
"33 124 OFFCURVE",
"24 76 CURVE SMOOTH",
"14 27 OFFCURVE",
"45 -11 OFFCURVE",
"92 -11 CURVE SMOOTH"
);
}
);
width = 286;
}
);
leftKerningGroup = exclam;
note = exclam;
rightKerningGroup = exclam;
},
{
color = 1;
glyphname = exclamdown.ss03;
lastChange = "2020-06-16 10:26:24 +0000";
layers = (
{
layerId = "F91D9E91-C1BC-4259-B0D8-112C0CBA2B8E";
paths = (
{
closed = 1;
nodes = (
"68 -204 LINE",
"169 311 LINE",
"158 311 LINE",
"57 -204 LINE"
);
},
{
closed = 1;
nodes = (
"203 466 OFFCURVE",
"211 473 OFFCURVE",
"213 481 CURVE SMOOTH",
"214 491 OFFCURVE",
"209 498 OFFCURVE",
"199 498 CURVE SMOOTH",
"191 498 OFFCURVE",
"183 491 OFFCURVE",
"181 483 CURVE SMOOTH",
"179 473 OFFCURVE",
"185 466 OFFCURVE",
"194 466 CURVE SMOOTH"
);
}
);
width = 301;
},
{
layerId = "957254E3-B7AD-4837-9092-D4428001DE8E";
paths = (
{
closed = 1;
nodes = (
"130 -204 LINE",
"206 274 LINE",
"92 274 LINE",
"-19 -204 LINE"
);
},
{
closed = 1;
nodes = (
"209 333 OFFCURVE",
"253 370 OFFCURVE",
"262 418 CURVE SMOOTH",
"272 466 OFFCURVE",
"241 504 OFFCURVE",
"194 504 CURVE SMOOTH",
"146 504 OFFCURVE",
"102 466 OFFCURVE",
"92 418 CURVE SMOOTH",
"83 370 OFFCURVE",
"113 333 OFFCURVE",
"161 333 CURVE SMOOTH"
);
}
);
width = 288;
}
);
leftKerningGroup = exclamdown;
note = exclamdown;
rightKerningGroup = exclamdown;
},
{
color = 1;
glyphname = question.ss03;
lastChange = "2020-06-16 10:26:24 +0000";
layers = (
{
layerId = "F91D9E91-C1BC-4259-B0D8-112C0CBA2B8E";
paths = (
{
closed = 1;
nodes = (
"260 180 LINE",
"278 272 LINE SMOOTH",
"302 398 OFFCURVE",
"483 363 OFFCURVE",
"515 531 CURVE SMOOTH",
"536 640 OFFCURVE",
"476 702 OFFCURVE",
"352 702 CURVE SMOOTH",
"239 702 OFFCURVE",
"152 635 OFFCURVE",
"131 532 CURVE",
"140 532 LINE",
"160 629 OFFCURVE",
"243 692 OFFCURVE",
"351 692 CURVE SMOOTH",
"470 692 OFFCURVE",
"525 634 OFFCURVE",
"506 533 CURVE SMOOTH",
"475 374 OFFCURVE",
"294 408 OFFCURVE",
"268 272 CURVE SMOOTH",
"250 180 LINE"
);
},
{
closed = 1;
nodes = (
"228 -5 OFFCURVE",
"236 2 OFFCURVE",
"238 10 CURVE SMOOTH",
"240 20 OFFCURVE",
"234 27 OFFCURVE",
"225 27 CURVE SMOOTH",
"216 27 OFFCURVE",
"208 20 OFFCURVE",
"206 12 CURVE SMOOTH",
"205 2 OFFCURVE",
"210 -5 OFFCURVE",
"220 -5 CURVE SMOOTH"
);
}
);
width = 543;
},
{
layerId = "957254E3-B7AD-4837-9092-D4428001DE8E";
paths = (
{
closed = 1;
nodes = (
"286 217 LINE",
"289 232 LINE SMOOTH",
"313 353 OFFCURVE",
"473 339 OFFCURVE",
"507 515 CURVE SMOOTH",
"534 655 OFFCURVE",
"442 708 OFFCURVE",
"329 708 CURVE SMOOTH",
"188 708 OFFCURVE",
"75 625 OFFCURVE",
"46 477 CURVE",
"179 477 LINE",
"191 547 OFFCURVE",
"231 583 OFFCURVE",
"301 583 CURVE SMOOTH",
"356 583 OFFCURVE",
"385 562 OFFCURVE",
"377 518 CURVE SMOOTH",
"358 422 OFFCURVE",
"200 424 OFFCURVE",
"164 243 CURVE SMOOTH",
"159 217 LINE"
);
},
{
closed = 1;
nodes = (
"230 -11 OFFCURVE",
"274 27 OFFCURVE",
"284 75 CURVE SMOOTH",
"293 123 OFFCURVE",
"263 160 OFFCURVE",
"215 160 CURVE SMOOTH",
"167 160 OFFCURVE",
"123 123 OFFCURVE",
"114 75 CURVE SMOOTH",
"104 27 OFFCURVE",
"135 -11 OFFCURVE",
"182 -11 CURVE SMOOTH"
);
}
);
width = 464;
}
);
leftKerningGroup = question;
note = question;
rightKerningGroup = question;
},
{
color = 1;
glyphname = questiondown.ss03;
lastChange = "2020-06-16 10:26:24 +0000";
layers = (
{
layerId = "F91D9E91-C1BC-4259-B0D8-112C0CBA2B8E";
paths = (
{
closed = 1;
nodes = (
"303 -209 OFFCURVE",
"390 -142 OFFCURVE",
"411 -39 CURVE",
"402 -39 LINE",
"382 -136 OFFCURVE",
"299 -199 OFFCURVE",
"191 -199 CURVE SMOOTH",
"72 -199 OFFCURVE",
"17 -141 OFFCURVE",
"36 -40 CURVE SMOOTH",
"67 119 OFFCURVE",
"248 85 OFFCURVE",
"274 221 CURVE SMOOTH",
"292 313 LINE",
"282 313 LINE",
"264 221 LINE SMOOTH",
"240 95 OFFCURVE",
"59 130 OFFCURVE",
"27 -38 CURVE SMOOTH",
"6 -147 OFFCURVE",
"66 -209 OFFCURVE",
"190 -209 CURVE SMOOTH"
);
},
{
closed = 1;
nodes = (
"326 466 OFFCURVE",
"334 473 OFFCURVE",
"336 481 CURVE SMOOTH",
"337 491 OFFCURVE",
"332 498 OFFCURVE",
"322 498 CURVE SMOOTH",
"314 498 OFFCURVE",
"306 491 OFFCURVE",
"304 483 CURVE SMOOTH",
"302 473 OFFCURVE",
"308 466 OFFCURVE",
"317 466 CURVE SMOOTH"
);
}
);
width = 541;
},
{
layerId = "957254E3-B7AD-4837-9092-D4428001DE8E";
paths = (
{
closed = 1;
nodes = (
"276 -215 OFFCURVE",
"389 -132 OFFCURVE",
"418 16 CURVE",
"285 16 LINE",
"273 -54 OFFCURVE",
"233 -90 OFFCURVE",
"163 -90 CURVE SMOOTH",
"108 -90 OFFCURVE",
"79 -69 OFFCURVE",
"87 -25 CURVE SMOOTH",
"106 71 OFFCURVE",
"264 69 OFFCURVE",
"300 250 CURVE SMOOTH",
"305 276 LINE",
"178 276 LINE",
"175 261 LINE SMOOTH",
"151 140 OFFCURVE",
"-9 154 OFFCURVE",
"-43 -22 CURVE SMOOTH",
"-70 -162 OFFCURVE",
"22 -215 OFFCURVE",
"135 -215 CURVE SMOOTH"
);
},
{
closed = 1;
nodes = (
"297 333 OFFCURVE",
"341 370 OFFCURVE",
"350 418 CURVE SMOOTH",
"360 466 OFFCURVE",
"329 504 OFFCURVE",
"282 504 CURVE SMOOTH",
"234 504 OFFCURVE",
"190 466 OFFCURVE",
"180 418 CURVE SMOOTH",
"171 370 OFFCURVE",
"201 333 OFFCURVE",
"249 333 CURVE SMOOTH"
);
}
);
width = 463;
}
);
leftKerningGroup = questiondown;
note = questiondown;
rightKerningGroup = questiondown;
},
{
color = 1;
glyphname = twodotenleader.ss03;
lastChange = "2020-06-16 10:26:24 +0000";
layers = (
{
layerId = "F91D9E91-C1BC-4259-B0D8-112C0CBA2B8E";
paths = (
{
closed = 1;
nodes = (
"296 -5 OFFCURVE",
"304 2 OFFCURVE",
"306 10 CURVE SMOOTH",
"308 20 OFFCURVE",
"302 27 OFFCURVE",
"293 27 CURVE SMOOTH",
"284 27 OFFCURVE",
"276 20 OFFCURVE",
"274 12 CURVE SMOOTH",
"273 2 OFFCURVE",
"278 -5 OFFCURVE",
"288 -5 CURVE SMOOTH"
);
},
{
closed = 1;
nodes = (
"108 -5 OFFCURVE",
"116 2 OFFCURVE",
"118 10 CURVE SMOOTH",
"120 20 OFFCURVE",
"114 27 OFFCURVE",
"105 27 CURVE SMOOTH",
"96 27 OFFCURVE",
"88 20 OFFCURVE",
"86 12 CURVE SMOOTH",
"85 2 OFFCURVE",
"90 -5 OFFCURVE",
"100 -5 CURVE SMOOTH"
);
}
);
width = 484;
},
{
layerId = "957254E3-B7AD-4837-9092-D4428001DE8E";
paths = (
{
closed = 1;
nodes = (
"335 -11 OFFCURVE",
"379 27 OFFCURVE",
"389 75 CURVE SMOOTH",
"398 123 OFFCURVE",
"368 160 OFFCURVE",
"320 160 CURVE SMOOTH",
"271 160 OFFCURVE",
"228 123 OFFCURVE",
"219 75 CURVE SMOOTH",
"209 27 OFFCURVE",
"239 -11 OFFCURVE",
"287 -11 CURVE SMOOTH"
);
},
{
closed = 1;
nodes = (
"138 -11 OFFCURVE",
"181 27 OFFCURVE",
"191 75 CURVE SMOOTH",
"200 123 OFFCURVE",
"171 160 OFFCURVE",
"122 160 CURVE SMOOTH",
"74 160 OFFCURVE",
"30 123 OFFCURVE",
"21 75 CURVE SMOOTH",
"11 27 OFFCURVE",
"42 -11 OFFCURVE",
"89 -11 CURVE SMOOTH"
);
}
);
width = 477;
}
);
note = twodotenleader;
},
{
color = 1;
glyphname = parenleft;
lastChange = "2020-06-16 10:26:24 +0000";
layers = (
{
layerId = "F91D9E91-C1BC-4259-B0D8-112C0CBA2B8E";
paths = (
{
closed = 1;
nodes = (
"163 0 LINE",
"107 83 OFFCURVE",
"97 245 OFFCURVE",
"116 346 CURVE SMOOTH",
"137 453 OFFCURVE",
"198 597 OFFCURVE",
"300 697 CURVE",
"286 697 LINE",
"186 595 OFFCURVE",
"127 453 OFFCURVE",
"107 348 CURVE SMOOTH",
"87 246 OFFCURVE",
"96 87 OFFCURVE",
"150 0 CURVE"
);
}
);
width = 271;
},
{
layerId = "957254E3-B7AD-4837-9092-D4428001DE8E";
paths = (
{
closed = 1;
nodes = (
"225 -82 LINE",
"155 34 OFFCURVE",
"135 163 OFFCURVE",
"170 346 CURVE SMOOTH",
"206 529 OFFCURVE",
"276 658 OFFCURVE",
"392 774 CURVE",
"257 774 LINE",
"174 701 OFFCURVE",
"94 564 OFFCURVE",
"51 346 CURVE SMOOTH",
"9 128 OFFCURVE",
"36 -9 OFFCURVE",
"90 -82 CURVE"
);
}
);
width = 275;
}
);
leftKerningGroup = parenleft;
note = parenleft;
rightKerningGroup = parenleft;
unicode = 0028;
},
{
color = 1;
glyphname = parenright;
lastChange = "2020-06-16 10:26:24 +0000";
layers = (
{
layerId = "F91D9E91-C1BC-4259-B0D8-112C0CBA2B8E";
paths = (
{
closed = 1;
nodes = (
"25 0 LINE",
"113 87 OFFCURVE",
"184 246 OFFCURVE",
"203 346 CURVE SMOOTH",
"224 453 OFFCURVE",
"220 595 OFFCURVE",
"159 697 CURVE",
"147 697 LINE",
"209 597 OFFCURVE",
"214 453 OFFCURVE",
"194 348 CURVE SMOOTH",
"174 245 OFFCURVE",
"100 83 OFFCURVE",
"12 0 CURVE"
);
}
);
width = 271;
},
{
layerId = "957254E3-B7AD-4837-9092-D4428001DE8E";
paths = (
{
closed = 1;
nodes = (
"57 -82 LINE",
"139 -9 OFFCURVE",
"220 128 OFFCURVE",
"262 346 CURVE SMOOTH",
"305 564 OFFCURVE",
"277 701 OFFCURVE",
"224 774 CURVE",
"89 774 LINE",
"159 658 OFFCURVE",
"179 529 OFFCURVE",
"143 346 CURVE SMOOTH",
"108 163 OFFCURVE",
"38 34 OFFCURVE",
"-78 -82 CURVE"
);
}
);
width = 275;
}
);
leftKerningGroup = parenright;
note = parenright;
unicode = 0029;
},
{
color = 1;
glyphname = braceleft;
lastChange = "2020-06-16 10:26:24 +0000";
layers = (
{
layerId = "F91D9E91-C1BC-4259-B0D8-112C0CBA2B8E";
paths = (
{
closed = 1;
nodes = (
"194 -60 LINE",
"197 -49 LINE",
"160 -49 LINE SMOOTH",
"110 -49 OFFCURVE",
"83 -14 OFFCURVE",
"96 49 CURVE SMOOTH",
"135 252 LINE SMOOTH",
"141 281 OFFCURVE",
"126 304 OFFCURVE",
"93 317 CURVE",
"95 320 LINE",
"135 330 OFFCURVE",
"155 355 OFFCURVE",
"164 401 CURVE SMOOTH",
"209 632 LINE SMOOTH",
"222 699 OFFCURVE",
"257 727 OFFCURVE",
"322 727 CURVE SMOOTH",
"348 727 LINE",
"350 737 LINE",
"323 737 LINE SMOOTH",
"252 737 OFFCURVE",
"213 704 OFFCURVE",
"199 632 CURVE SMOOTH",
"154 401 LINE SMOOTH",
"146 357 OFFCURVE",
"126 336 OFFCURVE",
"85 328 CURVE",
"83 309 LINE",
"115 298 OFFCURVE",
"130 278 OFFCURVE",
"125 252 CURVE SMOOTH",
"86 49 LINE SMOOTH",
"73 -17 OFFCURVE",
"100 -60 OFFCURVE",
"159 -60 CURVE SMOOTH"
);
}
);
width = 306;
},
{
layerId = "957254E3-B7AD-4837-9092-D4428001DE8E";
paths = (
{
closed = 1;
nodes = (
"214 -82 LINE",
"233 15 LINE",
"196 15 LINE SMOOTH",
"160 15 OFFCURVE",
"163 44 OFFCURVE",
"167 69 CURVE SMOOTH",
"193 201 LINE SMOOTH",
"209 283 OFFCURVE",
"181 313 OFFCURVE",
"145 333 CURVE",
"146 339 LINE",
"195 363 OFFCURVE",
"230 393 OFFCURVE",
"245 467 CURVE SMOOTH",
"269 591 LINE SMOOTH",
"274 616 OFFCURVE",
"284 647 OFFCURVE",
"316 647 CURVE SMOOTH",
"356 647 LINE",
"374 742 LINE",
"282 742 LINE SMOOTH",
"211 742 OFFCURVE",
"159 685 OFFCURVE",
"142 594 CURVE SMOOTH",
"117 470 LINE SMOOTH",
"104 401 OFFCURVE",
"60 396 OFFCURVE",
"33 385 CURVE",
"14 289 LINE",
"38 278 OFFCURVE",
"79 272 OFFCURVE",
"65 198 CURVE SMOOTH",
"39 67 LINE SMOOTH",
"22 -23 OFFCURVE",
"46 -82 OFFCURVE",
"125 -82 CURVE SMOOTH"
);
}
);
width = 293;
}
);
leftKerningGroup = braceleft;
note = braceleft;
rightKerningGroup = bracketleft;
unicode = 007B;
},
{
color = 1;
glyphname = braceright;
lastChange = "2020-06-16 10:26:24 +0000";
layers = (
{
layerId = "F91D9E91-C1BC-4259-B0D8-112C0CBA2B8E";
paths = (
{
closed = 1;
nodes = (
"29 -60 LINE SMOOTH",
"88 -60 OFFCURVE",
"131 -17 OFFCURVE",
"144 49 CURVE SMOOTH",
"183 252 LINE SMOOTH",
"188 278 OFFCURVE",
"211 298 OFFCURVE",
"248 309 CURVE",
"251 328 LINE",
"214 336 OFFCURVE",
"203 357 OFFCURVE",
"212 401 CURVE SMOOTH",
"257 632 LINE SMOOTH",
"271 704 OFFCURVE",
"244 737 OFFCURVE",
"173 737 CURVE SMOOTH",
"146 737 LINE",
"144 727 LINE",
"172 727 LINE SMOOTH",
"237 727 OFFCURVE",
"260 699 OFFCURVE",
"247 632 CURVE SMOOTH",
"202 401 LINE SMOOTH",
"193 355 OFFCURVE",
"205 330 OFFCURVE",
"241 320 CURVE",
"239 317 LINE",
"202 304 OFFCURVE",
"179 281 OFFCURVE",
"173 252 CURVE SMOOTH",
"134 49 LINE SMOOTH",
"121 -14 OFFCURVE",
"80 -49 OFFCURVE",
"30 -49 CURVE SMOOTH",
"-5 -49 LINE",
"-8 -60 LINE"
);
}
);
width = 306;
},
{
layerId = "957254E3-B7AD-4837-9092-D4428001DE8E";
paths = (
{
closed = 1;
nodes = (
"40 -82 LINE SMOOTH",
"118 -82 OFFCURVE",
"166 -24 OFFCURVE",
"184 67 CURVE SMOOTH",
"210 198 LINE SMOOTH",
"223 269 OFFCURVE",
"264 278 OFFCURVE",
"295 289 CURVE",
"314 385 LINE",
"289 396 OFFCURVE",
"250 404 OFFCURVE",
"262 470 CURVE SMOOTH",
"287 594 LINE SMOOTH",
"304 685 OFFCURVE",
"274 742 OFFCURVE",
"203 742 CURVE SMOOTH",
"111 742 LINE",
"93 647 LINE",
"133 647 LINE SMOOTH",
"160 647 OFFCURVE",
"164 622 OFFCURVE",
"158 591 CURVE SMOOTH",
"134 467 LINE SMOOTH",
"119 392 OFFCURVE",
"146 360 OFFCURVE",
"184 339 CURVE",
"183 333 LINE",
"135 312 OFFCURVE",
"98 280 OFFCURVE",
"82 201 CURVE SMOOTH",
"56 69 LINE SMOOTH",
"50 36 OFFCURVE",
"39 15 OFFCURVE",
"7 15 CURVE SMOOTH",
"-30 15 LINE",
"-49 -82 LINE"
);
}
);
width = 293;
}
);
leftKerningGroup = bracketright;
note = braceright;
rightKerningGroup = braceright;
unicode = 007D;
},
{
color = 1;
glyphname = bracketleft;
lastChange = "2020-06-16 10:26:24 +0000";
layers = (
{
layerId = "F91D9E91-C1BC-4259-B0D8-112C0CBA2B8E";
paths = (
{
closed = 1;
nodes = (
"223 -42 LINE",
"225 -32 LINE",
"80 -32 LINE",
"228 728 LINE",
"373 728 LINE",
"375 738 LINE",
"220 738 LINE",
"68 -42 LINE"
);
}
);
width = 331;
},
{
layerId = "957254E3-B7AD-4837-9092-D4428001DE8E";
paths = (
{
closed = 1;
nodes = (
"231 -92 LINE",
"251 9 LINE",
"144 9 LINE",
"276 687 LINE",
"383 687 LINE",
"402 787 LINE",
"173 787 LINE",
"2 -92 LINE"
);
}
);
width = 299;
}
);
leftKerningGroup = bracketleft;
note = bracketleft;
rightKerningGroup = bracketleft;
unicode = 005B;
},
{
color = 1;
glyphname = bracketright;
lastChange = "2020-06-16 10:26:24 +0000";
layers = (
{
layerId = "F91D9E91-C1BC-4259-B0D8-112C0CBA2B8E";
paths = (
{
closed = 1;
nodes = (
"151 -42 LINE",
"303 738 LINE",
"148 738 LINE",
"146 728 LINE",
"291 728 LINE",
"143 -32 LINE",
"-2 -32 LINE",
"-4 -42 LINE"
);
}
);
width = 331;
},
{
layerId = "957254E3-B7AD-4837-9092-D4428001DE8E";
paths = (
{
closed = 1;
nodes = (
"164 -92 LINE",
"335 787 LINE",
"106 787 LINE",
"87 687 LINE",
"195 687 LINE",
"63 9 LINE",
"-45 9 LINE",
"-65 -92 LINE"
);
}
);
width = 298;
}
);
leftKerningGroup = bracketright;
note = bracketright;
unicode = 005D;
},
{
color = 1;
glyphname = hyphen;
lastChange = "2020-06-16 10:26:24 +0000";
layers = (
{
layerId = "F91D9E91-C1BC-4259-B0D8-112C0CBA2B8E";
paths = (
{
closed = 1;
nodes = (
"353 313 LINE",
"355 323 LINE",
"111 323 LINE",
"109 313 LINE"
);
}
);
width = 436;
},
{
layerId = "957254E3-B7AD-4837-9092-D4428001DE8E";
paths = (
{
closed = 1;
nodes = (
"353 234 LINE",
"374 346 LINE",
"73 346 LINE",
"52 234 LINE"
);
}
);
width = 409;
}
);
leftKerningGroup = hyphen;
note = hyphen;
rightKerningGroup = hyphen;
unicode = 002D;
},
{
color = 1;
glyphname = softhyphen;
lastChange = "2020-06-16 10:26:24 +0000";
layers = (
{
layerId = "F91D9E91-C1BC-4259-B0D8-112C0CBA2B8E";
paths = (
{
closed = 1;
nodes = (
"424 313 LINE",
"426 323 LINE",
"111 323 LINE",
"109 313 LINE"
);
}
);
width = 507;
},
{
layerId = "957254E3-B7AD-4837-9092-D4428001DE8E";
paths = (
{
closed = 1;
nodes = (
"422 234 LINE",
"443 346 LINE",
"73 346 LINE",
"52 234 LINE"
);
}
);
width = 478;
}
);
note = uni00AD;
unicode = 00AD;
},
{
color = 1;
glyphname = endash;
lastChange = "2020-06-16 10:26:24 +0000";
layers = (
{
layerId = "F91D9E91-C1BC-4259-B0D8-112C0CBA2B8E";
paths = (
{
closed = 1;
nodes = (
"348 313 LINE",
"350 323 LINE",
"15 323 LINE",
"13 313 LINE"
);
}
);
width = 335;
},
{
layerId = "957254E3-B7AD-4837-9092-D4428001DE8E";
paths = (
{
closed = 1;
nodes = (
"388 234 LINE",
"409 346 LINE",
"19 346 LINE",
"-2 234 LINE"
);
}
);
width = 390;
}
);
leftKerningGroup = hyphen;
leftMetricsKey = space;
note = endash;
rightKerningGroup = hyphen;
rightMetricsKey = space;
unicode = 2013;
},
{
color = 1;
glyphname = emdash;
lastChange = "2020-06-16 10:26:24 +0000";
layers = (
{
layerId = "F91D9E91-C1BC-4259-B0D8-112C0CBA2B8E";
paths = (
{
closed = 1;
nodes = (
"1021 313 LINE",
"1023 323 LINE",
"13 323 LINE",
"11 313 LINE"
);
}
);
width = 1006;
},
{
layerId = "957254E3-B7AD-4837-9092-D4428001DE8E";
paths = (
{
closed = 1;
nodes = (
"1006 234 LINE",
"1027 346 LINE",
"17 346 LINE",
"-4 234 LINE"
);
}
);
width = 1006;
}
);
leftKerningGroup = hyphen;
note = emdash;
rightKerningGroup = hyphen;
unicode = 2014;
},
{
color = 1;
glyphname = horizontalbar;
lastChange = "2020-06-16 10:26:24 +0000";
layers = (
{
layerId = "F91D9E91-C1BC-4259-B0D8-112C0CBA2B8E";
paths = (
{
closed = 1;
nodes = (
"591 313 LINE",
"593 323 LINE",
"15 323 LINE",
"13 313 LINE"
);
}
);
width = 578;
},
{
layerId = "957254E3-B7AD-4837-9092-D4428001DE8E";
paths = (
{
closed = 1;
nodes = (
"631 234 LINE",
"652 346 LINE",
"19 346 LINE",
"-2 234 LINE"
);
}
);
width = 633;
}
);
leftMetricsKey = space;
note = uni2015;
rightMetricsKey = space;
unicode = 2015;
},
{
color = 1;
glyphname = underscore;
lastChange = "2020-06-16 10:26:24 +0000";
layers = (
{
layerId = "F91D9E91-C1BC-4259-B0D8-112C0CBA2B8E";
paths = (
{
closed = 1;
nodes = (
"422 -10 LINE",
"424 0 LINE",
"48 0 LINE",
"46 -10 LINE"
);
}
);
width = 568;
},
{
layerId = "957254E3-B7AD-4837-9092-D4428001DE8E";
paths = (
{
closed = 1;
nodes = (
"415 -114 LINE",
"437 0 LINE",
"6 0 LINE",
"-16 -114 LINE"
);
}
);
width = 539;
}
);
leftKerningGroup = underscore;
note = underscore;
rightKerningGroup = underscore;
unicode = 005F;
},
{
color = 1;
glyphname = quotesinglbase;
lastChange = "2020-06-16 10:26:24 +0000";
layers = (
{
layerId = "F91D9E91-C1BC-4259-B0D8-112C0CBA2B8E";
paths = (
{
closed = 1;
nodes = (
"-2 -162 LINE",
"193 128 LINE",
"182 128 LINE",
"-14 -162 LINE"
);
}
);
width = 282;
},
{
layerId = "957254E3-B7AD-4837-9092-D4428001DE8E";
paths = (
{
closed = 1;
nodes = (
"66 -145 LINE",
"243 131 LINE",
"68 131 LINE",
"-32 -145 LINE"
);
}
);
width = 274;
}
);
leftKerningGroup = quotesinglbase;
note = quotesinglbase;
rightKerningGroup = quotesinglbase;
unicode = 201A;
},
{
color = 1;
glyphname = quotedblbase;
lastChange = "2020-06-16 10:26:24 +0000";
layers = (
{
layerId = "F91D9E91-C1BC-4259-B0D8-112C0CBA2B8E";
paths = (
{
closed = 1;
nodes = (
"-2 -162 LINE",
"193 128 LINE",
"182 128 LINE",
"-14 -162 LINE"
);
},
{
closed = 1;
nodes = (
"139 -162 LINE",
"334 128 LINE",
"323 128 LINE",
"127 -162 LINE"
);
}
);
width = 423;
},
{
layerId = "957254E3-B7AD-4837-9092-D4428001DE8E";
paths = (
{
closed = 1;
nodes = (
"66 -145 LINE",
"243 131 LINE",
"68 131 LINE",
"-32 -145 LINE"
);
},
{
closed = 1;
nodes = (
"285 -145 LINE",
"461 131 LINE",
"286 131 LINE",
"187 -145 LINE"
);
}
);
width = 492;
}
);
leftKerningGroup = quotesinglbase;
note = quotedblbase;
rightKerningGroup = quotesinglbase;
unicode = 201E;
},
{
color = 1;
glyphname = quotedblleft;
lastChange = "2020-06-16 10:26:24 +0000";
layers = (
{
layerId = "F91D9E91-C1BC-4259-B0D8-112C0CBA2B8E";
paths = (
{
closed = 1;
nodes = (
"108 407 LINE",
"304 697 LINE",
"292 697 LINE",
"97 407 LINE"
);
},
{
closed = 1;
nodes = (
"249 407 LINE",
"446 697 LINE",
"433 697 LINE",
"238 407 LINE"
);
}
);
width = 424;
},
{
layerId = "957254E3-B7AD-4837-9092-D4428001DE8E";
paths = (
{
closed = 1;
nodes = (
"218 420 LINE",
"318 697 LINE",
"219 697 LINE",
"43 420 LINE"
);
},
{
closed = 1;
nodes = (
"424 420 LINE",
"523 697 LINE",
"424 697 LINE",
"249 420 LINE"
);
}
);
width = 480;
}
);
leftKerningGroup = quoteleft;
note = quotedblleft;
rightKerningGroup = quoteleft;
unicode = 201C;
},
{
color = 1;
glyphname = quotedblright;
lastChange = "2020-06-16 10:26:24 +0000";
layers = (
{
layerId = "F91D9E91-C1BC-4259-B0D8-112C0CBA2B8E";
paths = (
{
closed = 1;
nodes = (
"109 407 LINE",
"305 697 LINE",
"293 697 LINE",
"98 407 LINE"
);
},
{
closed = 1;
nodes = (
"250 407 LINE",
"446 697 LINE",
"434 697 LINE",
"239 407 LINE"
);
}
);
width = 424;
},
{
layerId = "957254E3-B7AD-4837-9092-D4428001DE8E";
paths = (
{
closed = 1;
nodes = (
"176 421 LINE",
"353 697 LINE",
"178 697 LINE",
"78 421 LINE"
);
},
{
closed = 1;
nodes = (
"383 421 LINE",
"558 697 LINE",
"384 697 LINE",
"284 421 LINE"
);
}
);
width = 480;
}
);
leftKerningGroup = quoteright;
note = quotedblright;
rightKerningGroup = quoteright;
unicode = 201D;
},
{
color = 1;
glyphname = quoteleft;
lastChange = "2020-06-16 10:26:24 +0000";
layers = (
{
layerId = "F91D9E91-C1BC-4259-B0D8-112C0CBA2B8E";
paths = (
{
closed = 1;
nodes = (
"108 407 LINE",
"304 697 LINE",
"292 697 LINE",
"97 407 LINE"
);
}
);
width = 282;
},
{
layerId = "957254E3-B7AD-4837-9092-D4428001DE8E";
paths = (
{
closed = 1;
nodes = (
"218 420 LINE",
"318 697 LINE",
"219 697 LINE",
"43 420 LINE"
);
}
);
width = 275;
}
);
leftKerningGroup = quoteleft;
note = quoteleft;
rightKerningGroup = quoteleft;
unicode = 2018;
},
{
color = 1;
glyphname = quoteright;
lastChange = "2020-06-16 10:26:24 +0000";
layers = (
{
layerId = "F91D9E91-C1BC-4259-B0D8-112C0CBA2B8E";
paths = (
{
closed = 1;
nodes = (
"108 407 LINE",
"304 697 LINE",
"292 697 LINE",
"97 407 LINE"
);
}
);
width = 282;
},
{
layerId = "957254E3-B7AD-4837-9092-D4428001DE8E";
paths = (
{
closed = 1;
nodes = (
"176 421 LINE",
"353 697 LINE",
"178 697 LINE",
"78 421 LINE"
);
}
);
width = 274;
}
);
leftKerningGroup = quoteright;
note = quoteright;
rightKerningGroup = quoteright;
unicode = 2019;
},
{
color = 1;
glyphname = guillemetleft;
lastChange = "2020-06-16 10:26:24 +0000";
layers = (
{
layerId = "F91D9E91-C1BC-4259-B0D8-112C0CBA2B8E";
paths = (
{
closed = 1;
nodes = (
"365 104 LINE",
"230 253 LINE",
"423 400 LINE",
"425 413 LINE",
"215 253 LINE",
"363 91 LINE"
);
},
{
closed = 1;
nodes = (
"209 104 LINE",
"73 253 LINE",
"267 400 LINE",
"269 413 LINE",
"59 253 LINE",
"207 91 LINE"
);
}
);
width = 466;
},
{
layerId = "957254E3-B7AD-4837-9092-D4428001DE8E";
paths = (
{
closed = 1;
nodes = (
"526 192 LINE",
"444 252 LINE",
"550 312 LINE",
"581 472 LINE",
"267 252 LINE",
"495 32 LINE"
);
},
{
closed = 1;
nodes = (
"243 192 LINE",
"161 252 LINE",
"267 312 LINE",
"298 472 LINE",
"-16 252 LINE",
"212 32 LINE"
);
}
);
width = 597;
}
);
note = guillemotleft;
unicode = 00AB;
},
{
color = 1;
glyphname = guillemetright;
lastChange = "2020-06-16 10:26:24 +0000";
layers = (
{
layerId = "F91D9E91-C1BC-4259-B0D8-112C0CBA2B8E";
paths = (
{
closed = 1;
nodes = (
"408 253 LINE",
"260 413 LINE",
"258 400 LINE",
"394 253 LINE",
"200 104 LINE",
"198 91 LINE"
);
},
{
closed = 1;
nodes = (
"252 253 LINE",
"104 413 LINE",
"102 400 LINE",
"237 253 LINE",
"44 104 LINE",
"42 91 LINE"
);
}
);
width = 466;
},
{
layerId = "957254E3-B7AD-4837-9092-D4428001DE8E";
paths = (
{
closed = 1;
nodes = (
"620 252 LINE",
"392 472 LINE",
"361 312 LINE",
"443 252 LINE",
"337 192 LINE",
"306 32 LINE"
);
},
{
closed = 1;
nodes = (
"337 252 LINE",
"109 472 LINE",
"78 312 LINE",
"160 252 LINE",
"54 192 LINE",
"23 32 LINE"
);
}
);
width = 599;
}
);
note = guillemotright;
unicode = 00BB;
},
{
color = 1;
glyphname = guilsinglleft;
lastChange = "2020-06-16 10:26:24 +0000";
layers = (
{
layerId = "F91D9E91-C1BC-4259-B0D8-112C0CBA2B8E";
paths = (
{
closed = 1;
nodes = (
"209 104 LINE",
"74 253 LINE",
"267 400 LINE",
"269 413 LINE",
"59 253 LINE",
"207 91 LINE"
);
}
);
width = 310;
},
{
layerId = "957254E3-B7AD-4837-9092-D4428001DE8E";
paths = (
{
closed = 1;
nodes = (
"243 192 LINE",
"161 252 LINE",
"267 312 LINE",
"298 472 LINE",
"-16 252 LINE",
"212 32 LINE"
);
}
);
width = 314;
}
);
leftKerningGroup = guillemotleft;
note = guilsinglleft;
rightKerningGroup = guillemotleft;
unicode = 2039;
},
{
color = 1;
glyphname = guilsinglright;
lastChange = "2020-06-16 10:26:24 +0000";
layers = (
{
layerId = "F91D9E91-C1BC-4259-B0D8-112C0CBA2B8E";
paths = (
{
closed = 1;
nodes = (
"252 253 LINE",
"104 413 LINE",
"102 400 LINE",
"237 253 LINE",
"44 104 LINE",
"42 91 LINE"
);
}
);
width = 310;
},
{
layerId = "957254E3-B7AD-4837-9092-D4428001DE8E";
paths = (
{
closed = 1;
nodes = (
"332 252 LINE",
"104 472 LINE",
"73 312 LINE",
"155 252 LINE",
"49 192 LINE",
"18 32 LINE"
);
}
);
width = 316;
}
);
leftKerningGroup = guillemotright;
note = guilsinglright;
rightKerningGroup = guillemotright;
unicode = 203A;
},
{
color = 1;
glyphname = quotedbl;
lastChange = "2020-06-16 10:26:24 +0000";
layers = (
{
layerId = "F91D9E91-C1BC-4259-B0D8-112C0CBA2B8E";
paths = (
{
closed = 1;
nodes = (
"182 500 LINE",
"221 697 LINE",
"210 697 LINE",
"171 500 LINE"
);
},
{
closed = 1;
nodes = (
"324 500 LINE",
"363 697 LINE",
"353 697 LINE",
"314 500 LINE"
);
}
);
width = 397;
},
{
layerId = "957254E3-B7AD-4837-9092-D4428001DE8E";
paths = (
{
closed = 1;
nodes = (
"224 407 LINE",
"281 697 LINE",
"155 697 LINE",
"98 407 LINE"
);
},
{
closed = 1;
nodes = (
"405 407 LINE",
"462 697 LINE",
"335 697 LINE",
"278 407 LINE"
);
}
);
width = 441;
}
);
leftKerningGroup = quotedbl;
note = quotedbl;
rightKerningGroup = quotedbl;
unicode = 0022;
},
{
color = 1;
glyphname = quotesingle;
lastChange = "2020-06-16 10:26:24 +0000";
layers = (
{
layerId = "F91D9E91-C1BC-4259-B0D8-112C0CBA2B8E";
paths = (
{
closed = 1;
nodes = (
"185 514 LINE",
"221 697 LINE",
"210 697 LINE",
"174 514 LINE"
);
}
);
width = 255;
},
{
layerId = "957254E3-B7AD-4837-9092-D4428001DE8E";
paths = (
{
closed = 1;
nodes = (
"227 421 LINE",
"281 697 LINE",
"155 697 LINE",
"101 421 LINE"
);
}
);
width = 260;
}
);
leftKerningGroup = quotedbl;
note = quotesingle;
rightKerningGroup = quotedbl;
unicode = 0027;
},
{
color = 1;
glyphname = anoteleia;
lastChange = "2020-06-16 10:26:24 +0000";
layers = (
{
hints = (
{
horizontal = 1;
place = "{250, 160}";
type = Stem;
},
{
place = "{12, 152}";
type = Stem;
}
);
layerId = "F91D9E91-C1BC-4259-B0D8-112C0CBA2B8E";
paths = (
{
closed = 1;
nodes = (
"271 120 OFFCURVE",
"334 173 OFFCURVE",
"346 236 CURVE SMOOTH",
"359 302 OFFCURVE",
"316 355 OFFCURVE",
"250 355 CURVE SMOOTH",
"187 355 OFFCURVE",
"124 302 OFFCURVE",
"111 238 CURVE SMOOTH",
"99 173 OFFCURVE",
"142 120 OFFCURVE",
"206 120 CURVE SMOOTH"
);
}
);
width = 462;
},
{
layerId = "957254E3-B7AD-4837-9092-D4428001DE8E";
paths = (
{
closed = 1;
nodes = (
"205 120 OFFCURVE",
"268 174 OFFCURVE",
"280 237 CURVE SMOOTH",
"293 302 OFFCURVE",
"250 355 OFFCURVE",
"186 355 CURVE SMOOTH",
"121 355 OFFCURVE",
"59 301 OFFCURVE",
"46 237 CURVE SMOOTH",
"34 173 OFFCURVE",
"75 120 OFFCURVE",
"140 120 CURVE SMOOTH"
);
}
);
width = 330;
}
);
note = anoteleia;
unicode = 0387;
},
